<svg width="28" height="20" viewBox="0 0 28 20" fill="none" xmlns="http://www.w3.org/2000/svg">
<path d="M27 3V17C27 17.5304 26.7893 18.0391 26.4142 18.4142C26.0391 18.7893 25.5304 19 25 19H3C2.46957 19 1.96086 18.7893 1.58579 18.4142C1.21071 18.0391 1 17.5304 1 17V3M27 3C27 2.46957 26.7893 1.96086 26.4142 1.58579C26.0391 1.21071 25.5304 1 25 1H3C2.46957 1 1.96086 1.21071 1.58579 1.58579C1.21071 1.96086 1 2.46957 1 3M27 3L15.138 11.212C14.8036 11.4434 14.4066 11.5673 14 11.5673C13.5934 11.5673 13.1964 11.4434 12.862 11.212L1 3" stroke="#FF0000" stroke-width="2" stroke-linecap="round" stroke-linejoin="round"/>
</svg>
