<?xml version="1.0" encoding="UTF-8"?>
<svg xmlns="http://www.w3.org/2000/svg" version="1.1" viewBox="0 0 239 202.9">
  <defs>
    <style>
      .cls-1 {
        fill: #ed2024;
      }
    </style>
  </defs>
  <!-- Generator: Adobe Illustrator 28.7.1, SVG Export Plug-In . SVG Version: 1.2.0 Build 142)  -->
  <g>
    <g id="Layer_1">
      <path class="cls-1" d="M26.2,100.8c2.5,1.4,5.1,3.1,7.7,4.9,2.6,1.9,5.7,3.7,9.3,5.7,3.6,2,6.9,3.5,10,4.5,4.6,1.5,8.4,1.9,11.8,1.1s5.5-3,6.4-6.9c-9.2-3.5-13.8-4.9-22.9-6.9-5.6-1.3-11.5-4.4-17.7-9.4-6.1-4.9-11.4-10.4-14.8-16.8-3.5-6.4-5.1-12.9-4.5-19.8.5-6.8,3.1-13.8,7.5-21.1,4.4-7.3,10.2-14.1,16.8-20.2,6.6-6.1,12.6-10,18-11.1,26.8-1,35,1.7,56.9,17.4,1.6,1.6,3,4.4,4.4,8.5,1.4,4.1,2.1,8.5,2,13.6,0,2.3-.7,11.3-2.1,28.7-1.4,17.4-2.1,32.3-2,43.5.1,10.6,1.1,23.2,2.5,38.2,1.4,15,2,24.9,2,30,0,4.6-.4,7.9-1.4,10-1,2-2.2,2.5-3.9,1.1-5-4.1-7.2-6.7-11.8-11.2-1.5-1.4-2.9-4-4.5-7.7s-3.1-7.8-4.2-12.5c-.9-3.4-2.5-11-4.4-22.9-1.9-11.9-2.7-18.5-3-20.1-.3-1.7-.9-3.3-1.7-4.6s-1.6-2.1-2.3-2.4c-.7-.3-1.3-.3-1.6.2-.4.4-.6,1-.6,1.7s-.1,1.7-.1,2.9c.1,4.5.6,8.7,1,12.7.6,5.5,1,10.5,1.4,14.8.3,4.3.5,8,.5,10.9s-.4,4.7-1.2,5.2-2.1-.2-4.1-2.3c-2.7-2.7-6.6-7.5-12.3-13.7-5.7-6.2-12-12.3-18.8-18.6-6.7-6.3-13-11.9-18.6-17.3-4.1-4.1-6.2-7-6.8-9.1-.6-2.1,0-3.2,1.6-3.2,1.4,0,3.3.7,5.8,2.2h0ZM52.9,60.4c-2.9-.4-5.4,1.1-7.3,4.4-1.9,3.2-2.7,7.2-2.2,11.8.5,4.7,2.2,8.7,4.8,12.3s5.2,5.7,7.9,6.4c10.3,2.5,15.5,4.3,25.5,8.6-1.4-14.1-1.7-21.7-1.4-36.6-10.7-4-16.3-5.4-27.3-6.8Z"/>
      <path class="cls-1" d="M137.8,184.9c-3.1,3-4.5,4.5-7.7,7.5-1.4,1.4-2.6,1.1-3.5-.7-.9-1.8-1.3-5.2-1.1-10.1,0-2,.9-11.2,2.8-27.7s3.2-30,3.4-41c.2-11-.4-25.9-2-43.6-1.7-17.7-2.7-26.9-2.9-29.2-.2-5.1.3-9.6,1.6-13.7s2.7-7,4.4-8.5c1-.9,9.4-10,28.9-13.4,19.5-3.4,29.5,2.1,29.9,2.2,6,2,13,7.6,20.6,16s13.3,17.1,15.2,26.5c1.9,9.5-.6,17-6.3,23.8-5.7,6.8-12.4,10.6-19,11.2-.9,0-1.6.6-2.1,1.7-.6,1.1-.8,2.1-.6,3,.1,1,.6,1.4,1.5,1.3,8.7-1,14.7,2.2,16.5,7.2,1.9,5.1-1.7,10.9-9.7,18.9-8.3,8.3-17.2,15.9-25.7,24.4-8.5,8.5-14,15.2-17.7,18.9l-3.2,3.2M194.4,71.6c.2-2.2,0-4.2-.6-5.9-.6-1.7-1.4-3.1-2.4-4.1-1.1-1-2.3-1.5-3.6-1.3-9,1-13.5,2-22.4,4.7.2,10.1,0,15.3-.8,25.1,8.6-3,13-4.2,21.6-5.9.9-.2,1.8-.7,2.8-1.5s1.9-1.8,2.6-2.9c.7-1.1,1.4-2.4,1.9-3.8s.8-2.9.9-4.5h0ZM179.3,116.5c1.6-.6,3.4-2,5.5-4.3,2.1-2.3,3.8-4.9,4.9-7.9s1.3-5.4.6-7.3-2-2.7-3.8-2.3c-9.2,2-13.9,3.4-23,6.9-1.3,9.8-2.1,14.6-4.4,23.3,8.1-3.8,12.2-5.5,20.3-8.3h0Z"/>
    </g>
  </g>
</svg>