<?xml version="1.0" encoding="utf-8"?>
<!-- Generator: Adobe Illustrator 28.0.0, SVG Export Plug-In . SVG Version: 6.00 Build 0)  -->
<svg version="1.1" id="Layer_1" xmlns="http://www.w3.org/2000/svg" xmlns:xlink="http://www.w3.org/1999/xlink" x="0px" y="0px"
	 viewBox="0 0 1921 1080.5" style="enable-background:new 0 0 1921 1080.5;" xml:space="preserve">
<style type="text/css">
	.st0{fill:#4F4E4D;stroke:#999999;stroke-miterlimit:10;}
	.st1{fill:#D6AC7F;}
	.st2{opacity:0.1;enable-background:new    ;}
	.st3{fill:#998068;}
	.st4{fill:#FFFFFF;stroke:#999999;stroke-miterlimit:10;}
	.st5{opacity:0.1;stroke:#999999;stroke-miterlimit:10;enable-background:new    ;}
	.st6{fill:#231F20;}
	.st7{fill:#231F20;stroke:#999999;stroke-miterlimit:10;}
	.st8{opacity:0.1;fill:#231F20;enable-background:new    ;}
	.st9{fill:#EEBA6F;}
	.st10{fill:#CB9E64;}
	.st11{fill:#855939;}
	.st12{fill:#86B171;}
	.st13{opacity:0.8;}
	.st14{fill:#71C065;}
	.st15{fill:#6B885B;}
	.st16{fill:#D8DBDC;}
	.st17{fill:#FFFFFF;}
	.st18{fill:#9EA0A1;}
	.st19{fill:#9DA5A7;}
	.st20{opacity:0.1;fill:#221F1F;enable-background:new    ;}
	.st21{fill:#221F1F;}
	.st22{fill:#5B585A;}
	.st23{fill:#929799;}
	.st24{fill:#F5E2DA;}
	.st25{fill:#E9732F;}
	.st26{fill:#EC9F7A;}
	.st27{opacity:0.9;}
	.st28{fill:#D2ECF0;}
	.st29{opacity:0.5;fill:#D2ECF0;enable-background:new    ;}
	.st30{opacity:0.5;fill:#A8C1C3;enable-background:new    ;}
	.st31{fill:#60574C;}
	.st32{fill:#353433;}
	.st33{opacity:0.1;}
	.st34{fill:#ECB377;}
	.st35{opacity:0.5;fill:#EECCAF;enable-background:new    ;}
	.st36{fill:#423D38;}
	.st37{fill:#DCF0F3;}
	.st38{opacity:0.8;fill:#9BD3D6;enable-background:new    ;}
	.st39{fill:#CBD3D3;}
	.st40{fill:#674520;}
	.st41{fill:#6F8D54;}
	.st42{opacity:0.3;fill:#231F20;enable-background:new    ;}
	.st43{fill:#ED2C24;}
	.st44{opacity:0.7;fill:#DCF0F3;enable-background:new    ;}
	.st45{fill:#EDA07A;}
</style>
<g id="Layer_1_00000127038782377842283710000009709042771608078229_">
	<rect x="0.5" y="0.5" class="st0" width="1920" height="399.5"/>
	<rect x="0.5" y="460.3" class="st1" width="1920" height="620.2"/>
	<rect x="0.5" y="420" class="st2" width="1920" height="60.3"/>
	<rect x="0.5" y="400" class="st3" width="1920" height="60.3"/>
	<g>
		<path class="st4" d="M312.7,232.8v156.7c0,5.8-4.7,10.5-10.5,10.5H0.5V222.4h301.8c0.2,0,0.3,0,0.5,0h0
			C308.3,222.7,312.7,227.2,312.7,232.8z"/>
		<path class="st5" d="M312.7,236.3c0,1.2-0.1,2.4-0.3,3.4c-1.2-6-5.3-10.4-10.1-10.4H0.5v-6.9h301.7c0.2,0,0.3,0,0.5,0h0
			C308.3,222.8,312.7,228.8,312.7,236.3z"/>
	</g>
	<g>
		<path class="st4" d="M323.2,222.4h429.6c5.8,0,10.5,4.7,10.5,10.5v156.7c0,5.8-4.7,10.5-10.5,10.5H323.2
			c-5.8,0-10.5-4.7-10.5-10.5V232.8C312.7,227.1,317.4,222.4,323.2,222.4z"/>
		<path class="st5" d="M763.2,236.3c0,1.2-0.1,2.4-0.3,3.4c-1.2-6-5.3-10.4-10.2-10.4H323.2c-2.9,0-5.5,1.6-7.4,4.1
			c-1.3,1.7-2.3,3.9-2.7,6.4c-0.2-1.1-0.3-2.3-0.3-3.4c0-3.8,1.2-7.3,3.1-9.8c1.9-2.5,4.5-4.1,7.4-4.1h429.6
			C758.6,222.4,763.2,228.6,763.2,236.3L763.2,236.3z"/>
	</g>
	<g>
		<path class="st4" d="M773.7,222.4h429.6c5.8,0,10.5,4.7,10.5,10.5v156.7c0,5.8-4.7,10.5-10.5,10.5H773.7
			c-5.8,0-10.5-4.7-10.5-10.5V232.8C763.2,227.1,767.9,222.4,773.7,222.4z"/>
		<path class="st5" d="M1213.8,236.3c0,1.2-0.1,2.4-0.3,3.4c-1.2-6-5.3-10.4-10.2-10.4H773.7c-2.9,0-5.5,1.6-7.4,4.1
			c-1.3,1.7-2.3,3.9-2.7,6.4c-0.2-1.1-0.3-2.3-0.3-3.4c0-3.8,1.2-7.3,3.1-9.8c1.9-2.5,4.5-4.1,7.4-4.1h429.6
			C1209.1,222.4,1213.8,228.6,1213.8,236.3L1213.8,236.3z"/>
	</g>
	<g>
		<path class="st4" d="M1224.2,222.4h429.6c5.8,0,10.5,4.7,10.5,10.5v156.7c0,5.8-4.7,10.5-10.5,10.5h-429.6
			c-5.8,0-10.5-4.7-10.5-10.5V232.8C1213.8,227.1,1218.5,222.4,1224.2,222.4z"/>
		<path class="st5" d="M1664.3,236.3c0,1.2-0.1,2.4-0.3,3.4c-1.2-6-5.3-10.4-10.2-10.4h-429.6c-2.9,0-5.5,1.6-7.4,4.1
			c-1.3,1.7-2.3,3.9-2.7,6.4c-0.2-1.1-0.3-2.3-0.3-3.4c0-3.8,1.2-7.3,3.1-9.8c1.9-2.5,4.5-4.1,7.4-4.1h429.6
			C1659.6,222.4,1664.3,228.6,1664.3,236.3L1664.3,236.3z"/>
	</g>
	<g>
		<path class="st4" d="M1920.5,222.4V400h-245.7c-0.2,0-0.4,0-0.5,0c-5.5-0.3-9.9-4.9-9.9-10.5V232.9c0-5.8,4.7-10.5,10.5-10.5
			L1920.5,222.4L1920.5,222.4z"/>
		<path class="st5" d="M1920.5,222.4v6.9h-245.7c-2.9,0-5.5,1.6-7.4,4.1c-1.3,1.7-2.3,3.9-2.7,6.4c-0.2-1.1-0.3-2.2-0.3-3.4
			c0-3.8,1.2-7.3,3.1-9.8c1.9-2.5,4.5-4.1,7.4-4.1L1920.5,222.4L1920.5,222.4z"/>
	</g>
	<g>
		<path class="st4" d="M97.9,44.8h429.6c5.8,0,10.5,4.7,10.5,10.5v156.7c0,5.8-4.7,10.5-10.5,10.5H97.9c-5.8,0-10.5-4.7-10.5-10.5
			V55.2C87.5,49.5,92.1,44.8,97.9,44.8z"/>
		<path class="st5" d="M538,58.7c0,1.2-0.1,2.3-0.3,3.5c-1.2-6-5.3-10.4-10.2-10.4H97.9c-2.9,0-5.5,1.5-7.4,4.1
			c-1.3,1.7-2.3,3.9-2.7,6.4c-0.2-1.1-0.3-2.3-0.3-3.5c0-3.8,1.2-7.3,3.1-9.8c1.9-2.5,4.5-4.1,7.4-4.1h429.6
			C533.3,44.7,538,51,538,58.7L538,58.7z"/>
	</g>
	<g>
		<path class="st4" d="M87.4,55.2v156.7c0,5.8-4.7,10.5-10.5,10.5H0.5V44.8H77c0.2,0,0.4,0,0.5,0C83.1,45.1,87.5,49.6,87.4,55.2z"/>
		<path class="st5" d="M87.5,58.7L87.5,58.7c0,0.2,0,0.3,0,0.5c0,1-0.1,2-0.3,3c-1.2-6-5.3-10.4-10.2-10.4H0.5v-7H77
			c0.2,0,0.4,0,0.5,0c5.4,0.4,9.7,6.1,9.9,13.2C87.5,58.2,87.5,58.4,87.5,58.7z"/>
	</g>
	<g>
		<path class="st4" d="M548.5,44.8h429.6c5.8,0,10.5,4.7,10.5,10.5v156.7c0,5.8-4.7,10.5-10.5,10.5H548.5c-5.8,0-10.5-4.7-10.5-10.5
			V55.2C538,49.5,542.7,44.8,548.5,44.8z"/>
		<path class="st5" d="M988.5,58.7c0,1.2-0.1,2.3-0.3,3.5c-1.2-6-5.3-10.4-10.2-10.4H548.4c-2.9,0-5.5,1.5-7.4,4.1
			c-1.3,1.7-2.3,3.9-2.7,6.4c-0.2-1.1-0.3-2.3-0.3-3.5c0-3.8,1.2-7.3,3.1-9.8c1.9-2.5,4.5-4.1,7.4-4.1H978
			C983.8,44.8,988.5,51,988.5,58.7L988.5,58.7z"/>
	</g>
	<g>
		<path class="st4" d="M999,44.8h429.6c5.8,0,10.5,4.7,10.5,10.5v156.7c0,5.8-4.7,10.5-10.5,10.5H999c-5.8,0-10.5-4.7-10.5-10.5
			V55.2C988.5,49.5,993.2,44.8,999,44.8z"/>
		<path class="st5" d="M1439,58.7c0,1.2-0.1,2.3-0.3,3.5c-1.2-6-5.3-10.4-10.2-10.4H999c-2.9,0-5.5,1.5-7.4,4.1
			c-1.3,1.7-2.3,3.9-2.7,6.4c-0.2-1.1-0.3-2.3-0.3-3.5c0-3.8,1.2-7.3,3.1-9.8c1.9-2.5,4.5-4.1,7.4-4.1h429.6
			C1434.4,44.8,1439,51,1439,58.7L1439,58.7z"/>
	</g>
	<g>
		<path class="st4" d="M1449.5,44.8h429.6c5.8,0,10.5,4.7,10.5,10.5v156.7c0,5.8-4.7,10.5-10.5,10.5h-429.6
			c-5.8,0-10.5-4.7-10.5-10.5V55.2C1439,49.5,1443.7,44.8,1449.5,44.8z"/>
		<path class="st5" d="M1889.6,58.7c0,1.2-0.1,2.3-0.3,3.5c-1.2-6-5.3-10.4-10.2-10.4h-429.6c-2.9,0-5.5,1.5-7.4,4.1
			c-1.3,1.7-2.3,3.9-2.7,6.4c-0.2-1.1-0.3-2.3-0.3-3.5c0-3.8,1.2-7.3,3.1-9.8c1.9-2.5,4.5-4.1,7.4-4.1h429.6
			C1884.9,44.8,1889.6,51,1889.6,58.7L1889.6,58.7z"/>
	</g>
	<g>
		<path class="st4" d="M1920.5,44.8v177.6h-20.4c-5.8,0-10.5-4.7-10.5-10.5V55.2c0-5.8,4.7-10.5,10.5-10.5H1920.5z"/>
		<path class="st5" d="M1920.5,44.8v6.9H1900c-2.9,0-5.5,1.5-7.4,4.1c-1.3,1.7-2.3,3.9-2.7,6.4c-0.2-1.1-0.3-2.3-0.3-3.5
			c0-3.8,1.2-7.3,3.1-9.8c1.9-2.5,4.5-4.1,7.4-4.1H1920.5z"/>
	</g>
	<path class="st4" d="M0.5,0.5h312.2v33.8c0,5.8-4.7,10.5-10.5,10.5H0.5V0.5z"/>
	<path class="st4" d="M763.2,0.5v33.8c0,5.8-4.7,10.5-10.5,10.5H323.2c-5.8,0-10.5-4.7-10.5-10.5V0.5H763.2z"/>
	<path class="st4" d="M763.2,0.5h450.5v33.8c0,5.8-4.7,10.5-10.5,10.5H773.7c-5.8,0-10.5-4.7-10.5-10.5L763.2,0.5L763.2,0.5z"/>
	<path class="st4" d="M1664.3,0.5v33.8c0,5.8-4.7,10.5-10.5,10.5h-429.6c-5.8,0-10.5-4.7-10.5-10.5V0.5H1664.3L1664.3,0.5z"/>
	<path class="st4" d="M1920.5,0.5v44.3h-245.7c-5.8,0-10.5-4.7-10.5-10.5V0.5H1920.5z"/>
	<ellipse class="st6" cx="926" cy="696.6" rx="60.5" ry="16.9"/>
	<rect x="751.4" y="640.1" class="st7" width="48.5" height="46.5"/>
</g>
<g>
	<path class="st8" d="M395.5,556.9c0,14.4-41.9,26.1-93.6,26.1s-93.6-11.7-93.6-26.1H395.5L395.5,556.9z"/>
	<rect x="208.3" y="541.6" class="st8" width="187.2" height="15.3"/>
	<g>
		<path class="st9" d="M428.4,338.9l-2.3,13.9l-6.1,37l-24.5,149.4c0,6.4-5.1,11.5-11.5,11.5H219.8c-6.4,0-11.5-5.1-11.5-11.5
			l-24.5-149.5l-6.8-41.7l-1.5-9.2c0-1.8,0.4-3.4,1.1-4.9c1.3-2.8,3.7-4.9,6.6-5.9c1.2-0.4,2.4-0.6,3.8-0.6h229.9c3,0,5.7,1.1,7.7,3
			c1.1,1,2,2.2,2.7,3.6C428,335.5,428.4,337.1,428.4,338.9L428.4,338.9z"/>
		<path class="st10" d="M451.4,301.1v25.5c0,0.3,0,0.6,0,0.8c-0.1,2.2-0.9,4.4-2.1,6.6H154.6c-1.3-2.1-2-4.3-2.1-6.6
			c0-0.3,0-0.5,0-0.8v-25.5H451.4z"/>
		<path class="st10" d="M451.4,326.6c0,0.3,0,0.6,0,0.8c-0.1,2.2-0.9,4.4-2.1,6.6c-4.1,7-13.9,13.4-28,18.9
			c-27.3,10.5-70.6,17.3-119.2,17.3c-55.6,0-104.1-8.8-129.9-22c-8.5-4.3-14.4-9.1-17.4-14.2c-1.3-2.1-2-4.3-2.1-6.6
			c0-0.3,0-0.5,0-0.8c0-4,1.8-7.8,5.3-11.5c4.8-5.1,12.6-9.8,22.9-14c0.6-0.2,1.2-0.5,1.8-0.7h0c27.3-10.5,70.6-17.4,119.5-17.4
			s92.2,6.8,119.5,17.4h0c0.6,0.2,1.2,0.5,1.8,0.7c10.3,4.1,18.2,8.9,22.9,14C449.6,318.8,451.4,322.6,451.4,326.6L451.4,326.6z"/>
		<path class="st9" d="M451.4,303.6c0,4-1.8,7.8-5.3,11.5c-4.1,4.4-10.6,8.6-19.1,12.3c-2.3,1-4.8,2-7.4,3c-3.4,1.2-7,2.5-10.8,3.6
			c-27.1,8.1-65.1,13.1-107,13.1s-79.9-5-107-13.1c-6.1-1.8-11.7-3.8-16.6-5.9c-0.5-0.2-1-0.4-1.5-0.6c-8.4-3.7-14.9-7.9-19.1-12.3
			c-3.4-3.7-5.3-7.5-5.3-11.5c0-0.8,0.1-1.7,0.2-2.5c4.4-22.9,69.5-41.1,149.2-41.1s144.8,18.2,149.2,41.1
			C451.3,302,451.4,302.8,451.4,303.6L451.4,303.6z"/>
		<ellipse class="st11" cx="301.9" cy="306.1" rx="121.2" ry="32.9"/>
		<path class="st12" d="M207.6,299.5h-1.8c-0.4,0-0.7-0.3-0.7-0.7v-62.6c0-0.4,0.3-0.7,0.7-0.7h1.8c0.4,0,0.7,0.3,0.7,0.7v62.6
			C208.3,299.2,208,299.5,207.6,299.5z"/>
		<path class="st12" d="M237.1,317.6h-1.8c-0.4,0-0.7-0.3-0.7-0.7V190.2c0-0.4,0.3-0.7,0.7-0.7h1.8c0.4,0,0.7,0.3,0.7,0.7v126.6
			C237.9,317.2,237.5,317.6,237.1,317.6z"/>
		<path class="st12" d="M256.9,294.6H255c-0.4,0-0.7-0.3-0.7-0.7V152.4c0-0.4,0.3-0.7,0.7-0.7h1.8c0.4,0,0.7,0.3,0.7,0.7v141.4
			C257.6,294.2,257.3,294.6,256.9,294.6z"/>
		<ellipse class="st9" cx="301.9" cy="542.6" rx="93.6" ry="19.7"/>
		<g>
			<g class="st13">
				<path class="st14" d="M247,197.2c5.3,1.3,10.5,0.1,14.4-2.7c-2.1-4.3-6.2-7.7-11.5-9s-10.5-0.1-14.4,2.7
					C237.6,192.5,241.7,195.9,247,197.2z"/>
				<path class="st12" d="M247,197.2c5.3,1.3,10.5,0.1,14.4-2.7c-2.1-4.3-6.2-7.7-11.5-9s-10.5-0.1-14.4,2.7
					C237.6,192.5,241.7,195.9,247,197.2z"/>
				<path class="st15" d="M247,197.2c5.3,1.3,10.5,0.1,14.4-2.7l-25.9-6.3C237.6,192.5,241.7,195.9,247,197.2z"/>
			</g>
			<g class="st13">
				<path class="st14" d="M224.9,194.6c-4.6,0.3-8.9-1.4-11.7-4.5c2.4-3.4,6.3-5.8,11-6.1s8.9,1.4,11.7,4.5
					C233.5,191.9,229.5,194.2,224.9,194.6z"/>
				<path class="st12" d="M224.9,194.6c-4.6,0.3-8.9-1.4-11.7-4.5c2.4-3.4,6.3-5.8,11-6.1s8.9,1.4,11.7,4.5
					C233.5,191.9,229.5,194.2,224.9,194.6z"/>
				<path class="st15" d="M224.9,194.6c-4.6,0.3-8.9-1.4-11.7-4.5l22.7-1.6C233.4,191.9,229.5,194.2,224.9,194.6L224.9,194.6z"/>
			</g>
			<g>
				<path class="st14" d="M240.5,187.3c1.3-1.2,2-2.9,1.8-4.5c-1.6-0.4-3.4,0-4.7,1.2s-2,2.9-1.8,4.5
					C237.4,188.8,239.2,188.5,240.5,187.3z"/>
				<path class="st12" d="M240.5,187.3c1.3-1.2,2-2.9,1.8-4.5c-1.6-0.4-3.4,0-4.7,1.2s-2,2.9-1.8,4.5
					C237.4,188.8,239.2,188.5,240.5,187.3z"/>
				<path class="st15" d="M240.5,187.3c1.3-1.2,2-2.9,1.8-4.5l-6.6,5.7C237.4,188.8,239.2,188.5,240.5,187.3z"/>
			</g>
			<g>
				<path class="st14" d="M232.6,187.7c0.9,0.8,2.1,1.1,3.1,0.9c0-1.1-0.5-2.2-1.4-2.9s-2.1-1.1-3.1-0.9
					C231.2,185.8,231.7,186.9,232.6,187.7z"/>
				<path class="st12" d="M232.6,187.7c0.9,0.8,2.1,1.1,3.1,0.9c0-1.1-0.5-2.2-1.4-2.9s-2.1-1.1-3.1-0.9
					C231.2,185.8,231.7,186.9,232.6,187.7z"/>
				<path class="st15" d="M232.6,187.7c0.9,0.8,2.1,1.1,3.1,0.9l-4.5-3.8C231.2,185.8,231.7,186.9,232.6,187.7L232.6,187.7z"/>
			</g>
			<g>
				<path class="st14" d="M236,190.1c0.2-0.6,0.2-1.3-0.1-1.8c-0.6,0.2-1.1,0.6-1.4,1.2s-0.2,1.3,0.1,1.8
					C235.3,191.1,235.8,190.7,236,190.1z"/>
				<path class="st12" d="M236,190.1c0.2-0.6,0.2-1.3-0.1-1.8c-0.6,0.2-1.1,0.6-1.4,1.2s-0.2,1.3,0.1,1.8
					C235.3,191.1,235.8,190.7,236,190.1z"/>
				<path class="st15" d="M236,190.1c0.2-0.6,0.2-1.3-0.1-1.8l-1.2,3C235.3,191.1,235.8,190.7,236,190.1L236,190.1z"/>
			</g>
		</g>
		<g>
			<g class="st13">
				<path class="st14" d="M217.5,243.1c5.3,1.3,10.5,0.1,14.4-2.7c-2.1-4.3-6.2-7.7-11.5-9s-10.5-0.1-14.4,2.7
					C208.1,238.4,212.2,241.9,217.5,243.1z"/>
				<path class="st12" d="M217.5,243.1c5.3,1.3,10.5,0.1,14.4-2.7c-2.1-4.3-6.2-7.7-11.5-9s-10.5-0.1-14.4,2.7
					C208.1,238.4,212.2,241.9,217.5,243.1z"/>
				<path class="st15" d="M217.5,243.1c5.3,1.3,10.5,0.1,14.4-2.7l-25.9-6.3C208.1,238.4,212.2,241.9,217.5,243.1z"/>
			</g>
			<g class="st13">
				<path class="st14" d="M195.3,240.6c-4.6,0.3-8.9-1.4-11.7-4.5c2.4-3.4,6.3-5.8,11-6.1s8.9,1.4,11.7,4.5
					C203.9,237.9,199.9,240.2,195.3,240.6z"/>
				<path class="st12" d="M195.3,240.6c-4.6,0.3-8.9-1.4-11.7-4.5c2.4-3.4,6.3-5.8,11-6.1s8.9,1.4,11.7,4.5
					C203.9,237.9,199.9,240.2,195.3,240.6z"/>
				<path class="st15" d="M195.3,240.6c-4.6,0.3-8.9-1.4-11.7-4.5l22.7-1.6C203.9,237.9,199.9,240.2,195.3,240.6L195.3,240.6z"/>
			</g>
			<g>
				<path class="st14" d="M210.9,233.3c1.3-1.2,2-2.9,1.8-4.5c-1.6-0.4-3.4,0-4.7,1.2s-2,2.9-1.8,4.5
					C207.8,234.8,209.6,234.4,210.9,233.3z"/>
				<path class="st12" d="M210.9,233.3c1.3-1.2,2-2.9,1.8-4.5c-1.6-0.4-3.4,0-4.7,1.2s-2,2.9-1.8,4.5
					C207.8,234.8,209.6,234.4,210.9,233.3z"/>
				<path class="st15" d="M210.9,233.3c1.3-1.2,2-2.9,1.8-4.5l-6.6,5.7C207.8,234.8,209.6,234.4,210.9,233.3z"/>
			</g>
			<g>
				<path class="st14" d="M203,233.6c0.9,0.8,2.1,1.1,3.1,0.9c0-1.1-0.5-2.2-1.4-2.9s-2.1-1.1-3.1-0.9
					C201.6,231.8,202.1,232.9,203,233.6z"/>
				<path class="st12" d="M203,233.6c0.9,0.8,2.1,1.1,3.1,0.9c0-1.1-0.5-2.2-1.4-2.9s-2.1-1.1-3.1-0.9
					C201.6,231.8,202.1,232.9,203,233.6z"/>
				<path class="st15" d="M203,233.6c0.9,0.8,2.1,1.1,3.1,0.9l-4.5-3.8C201.6,231.8,202.1,232.9,203,233.6L203,233.6z"/>
			</g>
			<g>
				<path class="st14" d="M206.5,236.1c0.2-0.6,0.2-1.3-0.1-1.8c-0.6,0.2-1.1,0.6-1.4,1.2s-0.2,1.3,0.1,1.8
					C205.7,237.1,206.2,236.7,206.5,236.1z"/>
				<path class="st12" d="M206.5,236.1c0.2-0.6,0.2-1.3-0.1-1.8c-0.6,0.2-1.1,0.6-1.4,1.2s-0.2,1.3,0.1,1.8
					C205.7,237.1,206.2,236.7,206.5,236.1z"/>
				<path class="st15" d="M206.5,236.1c0.2-0.6,0.2-1.3-0.1-1.8l-1.2,3C205.7,237.1,206.2,236.7,206.5,236.1L206.5,236.1z"/>
			</g>
		</g>
		<g>
			<g class="st13">
				<path class="st14" d="M266.7,161c5.3,1.3,10.5,0.1,14.4-2.7c-2.1-4.3-6.2-7.7-11.5-9s-10.5-0.1-14.4,2.7
					C257.3,156.3,261.5,159.7,266.7,161z"/>
				<path class="st12" d="M266.7,161c5.3,1.3,10.5,0.1,14.4-2.7c-2.1-4.3-6.2-7.7-11.5-9s-10.5-0.1-14.4,2.7
					C257.3,156.3,261.5,159.7,266.7,161z"/>
				<path class="st15" d="M266.7,161c5.3,1.3,10.5,0.1,14.4-2.7l-25.9-6.3C257.3,156.3,261.5,159.7,266.7,161z"/>
			</g>
			<g class="st13">
				<path class="st14" d="M244.6,158.4c-4.6,0.3-8.9-1.4-11.7-4.5c2.4-3.4,6.3-5.8,11-6.1s8.9,1.4,11.7,4.5
					C253.2,155.7,249.2,158.1,244.6,158.4z"/>
				<path class="st12" d="M244.6,158.4c-4.6,0.3-8.9-1.4-11.7-4.5c2.4-3.4,6.3-5.8,11-6.1s8.9,1.4,11.7,4.5
					C253.2,155.7,249.2,158.1,244.6,158.4z"/>
				<path class="st15" d="M244.6,158.4c-4.6,0.3-8.9-1.4-11.7-4.5l22.7-1.6C253.2,155.7,249.2,158.1,244.6,158.4L244.6,158.4z"/>
			</g>
			<g>
				<path class="st14" d="M260.2,151.2c1.3-1.2,2-2.9,1.8-4.5c-1.6-0.4-3.4,0-4.7,1.2s-2,2.9-1.8,4.5
					C257.1,152.7,258.9,152.3,260.2,151.2z"/>
				<path class="st12" d="M260.2,151.2c1.3-1.2,2-2.9,1.8-4.5c-1.6-0.4-3.4,0-4.7,1.2s-2,2.9-1.8,4.5
					C257.1,152.7,258.9,152.3,260.2,151.2z"/>
				<path class="st15" d="M260.2,151.2c1.3-1.2,2-2.9,1.8-4.5l-6.6,5.7C257.1,152.7,258.9,152.3,260.2,151.2z"/>
			</g>
			<g>
				<path class="st14" d="M252.3,151.5c0.9,0.8,2.1,1.1,3.1,0.9c0-1.1-0.5-2.2-1.4-2.9s-2.1-1.1-3.1-0.9
					C250.9,149.7,251.4,150.8,252.3,151.5z"/>
				<path class="st12" d="M252.3,151.5c0.9,0.8,2.1,1.1,3.1,0.9c0-1.1-0.5-2.2-1.4-2.9s-2.1-1.1-3.1-0.9
					C250.9,149.7,251.4,150.8,252.3,151.5z"/>
				<path class="st15" d="M252.3,151.5c0.9,0.8,2.1,1.1,3.1,0.9l-4.5-3.8C250.9,149.7,251.4,150.7,252.3,151.5L252.3,151.5z"/>
			</g>
			<g>
				<path class="st14" d="M255.7,153.9c0.2-0.6,0.2-1.3-0.1-1.8c-0.6,0.2-1.1,0.6-1.4,1.2s-0.2,1.3,0.1,1.8
					C255,155,255.5,154.5,255.7,153.9z"/>
				<path class="st12" d="M255.7,153.9c0.2-0.6,0.2-1.3-0.1-1.8c-0.6,0.2-1.1,0.6-1.4,1.2s-0.2,1.3,0.1,1.8
					C255,155,255.5,154.5,255.7,153.9z"/>
				<path class="st15" d="M255.7,153.9c0.2-0.6,0.2-1.3-0.1-1.8l-1.2,3C255,155,255.5,154.5,255.7,153.9L255.7,153.9z"/>
			</g>
		</g>
		<path class="st12" d="M268.2,255.2h1.8c0.4,0,0.7,0.3,0.7,0.7v62.6c0,0.4-0.3,0.7-0.7,0.7h-1.8c-0.4,0-0.7-0.3-0.7-0.7v-62.6
			C267.4,255.5,267.8,255.2,268.2,255.2z"/>
		<path class="st12" d="M281.3,199.3h1.8c0.4,0,0.7,0.3,0.7,0.7v95.4c0,0.4-0.3,0.7-0.7,0.7h-1.8c-0.4,0-0.7-0.3-0.7-0.7v-95.4
			C280.6,199.7,280.9,199.3,281.3,199.3z"/>
		<path class="st12" d="M383.1,251.9h1.8c0.4,0,0.7,0.3,0.7,0.7v62.6c0,0.4-0.3,0.7-0.7,0.7h-1.8c-0.4,0-0.7-0.3-0.7-0.7v-62.6
			C382.4,252.2,382.7,251.9,383.1,251.9z"/>
		<path class="st12" d="M401.2,217.4h1.8c0.4,0,0.7,0.3,0.7,0.7v87.2c0,0.4-0.3,0.7-0.7,0.7h-1.8c-0.4,0-0.7-0.3-0.7-0.7v-87.2
			C400.5,217.7,400.8,217.4,401.2,217.4z"/>
		<path class="st12" d="M363.4,153.3h1.8c0.4,0,0.7,0.3,0.7,0.7v141.4c0,0.4-0.3,0.7-0.7,0.7h-1.8c-0.4,0-0.7-0.3-0.7-0.7V154.1
			C362.7,153.7,363,153.3,363.4,153.3z"/>
		<g>
			<g class="st13">
				<path class="st14" d="M391.3,225.1c-5.3,1.3-10.5,0.1-14.4-2.7c2.1-4.3,6.2-7.7,11.5-9s10.5-0.1,14.4,2.7
					C400.7,220.4,396.6,223.8,391.3,225.1z"/>
				<path class="st12" d="M391.3,225.1c-5.3,1.3-10.5,0.1-14.4-2.7c2.1-4.3,6.2-7.7,11.5-9s10.5-0.1,14.4,2.7
					C400.7,220.4,396.6,223.8,391.3,225.1z"/>
				<path class="st15" d="M391.3,225.1c-5.3,1.3-10.5,0.1-14.4-2.7l25.9-6.3C400.7,220.4,396.6,223.8,391.3,225.1z"/>
			</g>
			<g class="st13">
				<path class="st14" d="M413.5,222.5c4.6,0.3,8.9-1.4,11.7-4.5c-2.4-3.4-6.3-5.8-11-6.1s-8.9,1.4-11.7,4.5
					C404.9,219.8,408.9,222.2,413.5,222.5z"/>
				<path class="st12" d="M413.5,222.5c4.6,0.3,8.9-1.4,11.7-4.5c-2.4-3.4-6.3-5.8-11-6.1s-8.9,1.4-11.7,4.5
					C404.9,219.8,408.9,222.2,413.5,222.5z"/>
				<path class="st15" d="M413.5,222.5c4.6,0.3,8.9-1.4,11.7-4.5l-22.7-1.6C404.9,219.8,408.9,222.2,413.5,222.5L413.5,222.5z"/>
			</g>
			<g>
				<path class="st14" d="M397.9,215.2c-1.3-1.2-2-2.9-1.8-4.5c1.6-0.4,3.4,0,4.7,1.2s2,2.9,1.8,4.5
					C400.9,216.8,399.2,216.4,397.9,215.2z"/>
				<path class="st12" d="M397.9,215.2c-1.3-1.2-2-2.9-1.8-4.5c1.6-0.4,3.4,0,4.7,1.2s2,2.9,1.8,4.5
					C400.9,216.8,399.2,216.4,397.9,215.2z"/>
				<path class="st15" d="M397.9,215.2c-1.3-1.2-2-2.9-1.8-4.5l6.6,5.7C400.9,216.8,399.2,216.4,397.9,215.2z"/>
			</g>
			<g>
				<path class="st14" d="M405.8,215.6c-0.9,0.8-2.1,1.1-3.1,0.9c0-1.1,0.5-2.2,1.4-2.9s2.1-1.1,3.1-0.9
					C407.2,213.7,406.7,214.8,405.8,215.6z"/>
				<path class="st12" d="M405.8,215.6c-0.9,0.8-2.1,1.1-3.1,0.9c0-1.1,0.5-2.2,1.4-2.9s2.1-1.1,3.1-0.9
					C407.2,213.7,406.7,214.8,405.8,215.6z"/>
				<path class="st15" d="M405.8,215.6c-0.9,0.8-2.1,1.1-3.1,0.9l4.5-3.8C407.2,213.7,406.7,214.8,405.8,215.6L405.8,215.6z"/>
			</g>
			<g>
				<path class="st14" d="M402.3,218c-0.2-0.6-0.2-1.3,0.1-1.8c0.6,0.2,1.1,0.6,1.4,1.2s0.2,1.3-0.1,1.8
					C403.1,219,402.6,218.6,402.3,218z"/>
				<path class="st12" d="M402.3,218c-0.2-0.6-0.2-1.3,0.1-1.8c0.6,0.2,1.1,0.6,1.4,1.2s0.2,1.3-0.1,1.8
					C403.1,219,402.6,218.6,402.3,218z"/>
				<path class="st15" d="M402.3,218c-0.2-0.6-0.2-1.3,0.1-1.8l1.2,3C403.1,219,402.6,218.6,402.3,218L402.3,218z"/>
			</g>
		</g>
		<g>
			<g class="st13">
				<path class="st14" d="M373.3,261.2c-5.3,1.3-10.5,0.1-14.4-2.7c2.1-4.3,6.2-7.7,11.5-9s10.5-0.1,14.4,2.7
					C382.7,256.5,378.5,259.9,373.3,261.2L373.3,261.2z"/>
				<path class="st12" d="M373.3,261.2c-5.3,1.3-10.5,0.1-14.4-2.7c2.1-4.3,6.2-7.7,11.5-9s10.5-0.1,14.4,2.7
					C382.7,256.5,378.5,259.9,373.3,261.2L373.3,261.2z"/>
				<path class="st15" d="M373.3,261.2c-5.3,1.3-10.5,0.1-14.4-2.7l25.9-6.3C382.7,256.5,378.5,259.9,373.3,261.2L373.3,261.2z"/>
			</g>
			<g class="st13">
				<path class="st14" d="M395.4,258.6c4.6,0.3,8.9-1.5,11.7-4.5c-2.4-3.4-6.3-5.8-11-6.1s-8.9,1.4-11.7,4.5
					C386.8,255.9,390.8,258.3,395.4,258.6z"/>
				<path class="st12" d="M395.4,258.6c4.6,0.3,8.9-1.5,11.7-4.5c-2.4-3.4-6.3-5.8-11-6.1s-8.9,1.4-11.7,4.5
					C386.8,255.9,390.8,258.3,395.4,258.6z"/>
				<path class="st15" d="M395.4,258.6c4.6,0.3,8.9-1.5,11.7-4.5l-22.7-1.6C386.8,255.9,390.8,258.3,395.4,258.6L395.4,258.6z"/>
			</g>
			<g>
				<path class="st14" d="M379.8,251.3c-1.3-1.2-2-2.9-1.8-4.5c1.6-0.4,3.4,0,4.7,1.2s2,2.9,1.8,4.5
					C382.9,252.9,381.1,252.5,379.8,251.3z"/>
				<path class="st12" d="M379.8,251.3c-1.3-1.2-2-2.9-1.8-4.5c1.6-0.4,3.4,0,4.7,1.2s2,2.9,1.8,4.5
					C382.9,252.9,381.1,252.5,379.8,251.3z"/>
				<path class="st15" d="M379.8,251.3c-1.3-1.2-2-2.9-1.8-4.5l6.6,5.7C382.9,252.9,381.1,252.5,379.8,251.3z"/>
			</g>
			<g>
				<path class="st14" d="M387.7,251.7c-0.9,0.8-2.1,1.1-3.1,0.9c0-1.1,0.5-2.2,1.4-2.9s2.1-1.1,3.1-0.9
					C389.1,249.9,388.6,250.9,387.7,251.7z"/>
				<path class="st12" d="M387.7,251.7c-0.9,0.8-2.1,1.1-3.1,0.9c0-1.1,0.5-2.2,1.4-2.9s2.1-1.1,3.1-0.9
					C389.1,249.9,388.6,250.9,387.7,251.7z"/>
				<path class="st15" d="M387.7,251.7c-0.9,0.8-2.1,1.1-3.1,0.9l4.5-3.8C389.1,249.8,388.6,250.9,387.7,251.7L387.7,251.7z"/>
			</g>
			<g>
				<path class="st14" d="M384.2,254.1c-0.2-0.6-0.2-1.3,0.1-1.8c0.6,0.2,1.1,0.6,1.4,1.2s0.2,1.3-0.1,1.8
					C385,255.2,384.5,254.7,384.2,254.1z"/>
				<path class="st12" d="M384.2,254.1c-0.2-0.6-0.2-1.3,0.1-1.8c0.6,0.2,1.1,0.6,1.4,1.2s0.2,1.3-0.1,1.8
					C385,255.2,384.5,254.7,384.2,254.1z"/>
				<path class="st15" d="M384.2,254.1c-0.2-0.6-0.2-1.3,0.1-1.8l1.2,3C385,255.2,384.5,254.7,384.2,254.1L384.2,254.1z"/>
			</g>
		</g>
		<g>
			<g class="st13">
				<path class="st14" d="M258.3,262.9c-5.3,1.3-10.5,0.1-14.4-2.7c2.1-4.3,6.2-7.7,11.5-9c5.3-1.3,10.5-0.1,14.4,2.7
					C267.7,258.1,263.6,261.6,258.3,262.9L258.3,262.9z"/>
				<path class="st12" d="M258.3,262.9c-5.3,1.3-10.5,0.1-14.4-2.7c2.1-4.3,6.2-7.7,11.5-9c5.3-1.3,10.5-0.1,14.4,2.7
					C267.7,258.1,263.6,261.6,258.3,262.9L258.3,262.9z"/>
				<path class="st15" d="M258.3,262.9c-5.3,1.3-10.5,0.1-14.4-2.7l25.9-6.3C267.7,258.1,263.6,261.6,258.3,262.9L258.3,262.9z"/>
			</g>
			<g class="st13">
				<path class="st14" d="M280.5,260.3c4.6,0.3,8.9-1.5,11.7-4.5c-2.4-3.4-6.3-5.8-11-6.1s-8.9,1.4-11.7,4.5
					C271.9,257.6,275.8,260,280.5,260.3z"/>
				<path class="st12" d="M280.5,260.3c4.6,0.3,8.9-1.5,11.7-4.5c-2.4-3.4-6.3-5.8-11-6.1s-8.9,1.4-11.7,4.5
					C271.9,257.6,275.8,260,280.5,260.3z"/>
				<path class="st15" d="M280.5,260.3c4.6,0.3,8.9-1.5,11.7-4.5l-22.7-1.6C271.9,257.6,275.8,260,280.5,260.3L280.5,260.3z"/>
			</g>
			<g>
				<path class="st14" d="M264.8,253c-1.3-1.2-2-2.9-1.8-4.5c1.6-0.4,3.4,0,4.7,1.2s2,2.9,1.8,4.5
					C267.9,254.5,266.2,254.2,264.8,253z"/>
				<path class="st12" d="M264.8,253c-1.3-1.2-2-2.9-1.8-4.5c1.6-0.4,3.4,0,4.7,1.2s2,2.9,1.8,4.5
					C267.9,254.5,266.2,254.2,264.8,253z"/>
				<path class="st15" d="M264.8,253c-1.3-1.2-2-2.9-1.8-4.5l6.6,5.7C267.9,254.5,266.2,254.2,264.8,253z"/>
			</g>
			<g>
				<path class="st14" d="M272.8,253.3c-0.9,0.8-2.1,1.1-3.1,0.9c0-1.1,0.5-2.2,1.4-2.9s2.1-1.1,3.1-0.9
					C274.1,251.5,273.7,252.6,272.8,253.3z"/>
				<path class="st12" d="M272.8,253.3c-0.9,0.8-2.1,1.1-3.1,0.9c0-1.1,0.5-2.2,1.4-2.9s2.1-1.1,3.1-0.9
					C274.1,251.5,273.7,252.6,272.8,253.3z"/>
				<path class="st15" d="M272.8,253.3c-0.9,0.8-2.1,1.1-3.1,0.9l4.5-3.8C274.2,251.5,273.7,252.6,272.8,253.3L272.8,253.3z"/>
			</g>
			<g>
				<path class="st14" d="M269.3,255.8c-0.2-0.6-0.2-1.3,0.1-1.8c0.6,0.2,1.1,0.6,1.4,1.2s0.2,1.3-0.1,1.8
					C270.1,256.8,269.5,256.4,269.3,255.8z"/>
				<path class="st12" d="M269.3,255.8c-0.2-0.6-0.2-1.3,0.1-1.8c0.6,0.2,1.1,0.6,1.4,1.2s0.2,1.3-0.1,1.8
					C270.1,256.8,269.5,256.4,269.3,255.8z"/>
				<path class="st15" d="M269.3,255.8c-0.2-0.6-0.2-1.3,0.1-1.8l1.2,3C270.1,256.8,269.6,256.4,269.3,255.8L269.3,255.8z"/>
			</g>
		</g>
		<g>
			<g class="st13">
				<path class="st14" d="M271.4,207c-5.3,1.3-10.5,0.1-14.4-2.7c2.1-4.3,6.2-7.7,11.5-9s10.5-0.1,14.4,2.7
					C280.9,202.3,276.7,205.7,271.4,207z"/>
				<path class="st12" d="M271.4,207c-5.3,1.3-10.5,0.1-14.4-2.7c2.1-4.3,6.2-7.7,11.5-9s10.5-0.1,14.4,2.7
					C280.9,202.3,276.7,205.7,271.4,207z"/>
				<path class="st15" d="M271.4,207c-5.3,1.3-10.5,0.1-14.4-2.7L283,198C280.9,202.3,276.7,205.7,271.4,207L271.4,207z"/>
			</g>
			<g class="st13">
				<path class="st14" d="M293.6,204.4c4.6,0.3,8.9-1.4,11.7-4.5c-2.4-3.4-6.3-5.8-11-6.1s-8.9,1.4-11.7,4.5
					C285,201.7,289,204.1,293.6,204.4z"/>
				<path class="st12" d="M293.6,204.4c4.6,0.3,8.9-1.4,11.7-4.5c-2.4-3.4-6.3-5.8-11-6.1s-8.9,1.4-11.7,4.5
					C285,201.7,289,204.1,293.6,204.4z"/>
				<path class="st15" d="M293.6,204.4c4.6,0.3,8.9-1.4,11.7-4.5l-22.7-1.6C285,201.7,289,204.1,293.6,204.4L293.6,204.4z"/>
			</g>
			<g>
				<path class="st14" d="M278,197.1c-1.3-1.2-2-2.9-1.8-4.5c1.6-0.4,3.4,0,4.7,1.2s2,2.9,1.8,4.5
					C281.1,198.7,279.3,198.3,278,197.1z"/>
				<path class="st12" d="M278,197.1c-1.3-1.2-2-2.9-1.8-4.5c1.6-0.4,3.4,0,4.7,1.2s2,2.9,1.8,4.5
					C281.1,198.7,279.3,198.3,278,197.1z"/>
				<path class="st15" d="M278,197.1c-1.3-1.2-2-2.9-1.8-4.5l6.6,5.7C281.1,198.7,279.3,198.3,278,197.1z"/>
			</g>
			<g>
				<path class="st14" d="M285.9,197.5c-0.9,0.8-2.1,1.1-3.1,0.9c0-1.1,0.5-2.2,1.4-2.9s2.1-1.1,3.1-0.9
					C287.3,195.7,286.8,196.8,285.9,197.5z"/>
				<path class="st12" d="M285.9,197.5c-0.9,0.8-2.1,1.1-3.1,0.9c0-1.1,0.5-2.2,1.4-2.9s2.1-1.1,3.1-0.9
					C287.3,195.7,286.8,196.8,285.9,197.5z"/>
				<path class="st15" d="M285.9,197.5c-0.9,0.8-2.1,1.1-3.1,0.9l4.5-3.8C287.3,195.6,286.8,196.7,285.9,197.5L285.9,197.5z"/>
			</g>
			<g>
				<path class="st14" d="M282.4,199.9c-0.2-0.6-0.2-1.3,0.1-1.8c0.6,0.2,1.1,0.6,1.4,1.2s0.2,1.3-0.1,1.8
					C283.2,201,282.7,200.5,282.4,199.9z"/>
				<path class="st12" d="M282.4,199.9c-0.2-0.6-0.2-1.3,0.1-1.8c0.6,0.2,1.1,0.6,1.4,1.2s0.2,1.3-0.1,1.8
					C283.2,201,282.7,200.5,282.4,199.9z"/>
				<path class="st15" d="M282.4,199.9c-0.2-0.6-0.2-1.3,0.1-1.8l1.2,3C283.2,201,282.7,200.5,282.4,199.9L282.4,199.9z"/>
			</g>
		</g>
		<g>
			<g class="st13">
				<path class="st14" d="M353.5,162.7c-5.3,1.3-10.5,0.1-14.4-2.7c2.1-4.3,6.2-7.7,11.5-9s10.5-0.1,14.4,2.7
					C363,158,358.8,161.4,353.5,162.7z"/>
				<path class="st12" d="M353.5,162.7c-5.3,1.3-10.5,0.1-14.4-2.7c2.1-4.3,6.2-7.7,11.5-9s10.5-0.1,14.4,2.7
					C363,158,358.8,161.4,353.5,162.7z"/>
				<path class="st15" d="M353.5,162.7c-5.3,1.3-10.5,0.1-14.4-2.7l25.9-6.3C363,158,358.8,161.4,353.5,162.7L353.5,162.7z"/>
			</g>
			<g class="st13">
				<path class="st14" d="M375.7,160.1c4.6,0.3,8.9-1.4,11.7-4.5c-2.4-3.4-6.3-5.8-11-6.1s-8.9,1.4-11.7,4.5
					C367.1,157.4,371.1,159.8,375.7,160.1z"/>
				<path class="st12" d="M375.7,160.1c4.6,0.3,8.9-1.4,11.7-4.5c-2.4-3.4-6.3-5.8-11-6.1s-8.9,1.4-11.7,4.5
					C367.1,157.4,371.1,159.8,375.7,160.1z"/>
				<path class="st15" d="M375.7,160.1c4.6,0.3,8.9-1.4,11.7-4.5l-22.7-1.6C367.1,157.4,371.1,159.8,375.7,160.1L375.7,160.1z"/>
			</g>
			<g>
				<path class="st14" d="M360.1,152.8c-1.3-1.2-2-2.9-1.8-4.5c1.6-0.4,3.4,0,4.7,1.2s2,2.9,1.8,4.5
					C363.2,154.4,361.4,154,360.1,152.8z"/>
				<path class="st12" d="M360.1,152.8c-1.3-1.2-2-2.9-1.8-4.5c1.6-0.4,3.4,0,4.7,1.2s2,2.9,1.8,4.5
					C363.2,154.4,361.4,154,360.1,152.8z"/>
				<path class="st15" d="M360.1,152.8c-1.3-1.2-2-2.9-1.8-4.5l6.6,5.7C363.2,154.4,361.4,154,360.1,152.8z"/>
			</g>
			<g>
				<path class="st14" d="M368,153.2c-0.9,0.8-2.1,1.1-3.1,0.9c0-1.1,0.5-2.2,1.4-2.9s2.1-1.1,3.1-0.9
					C369.4,151.3,368.9,152.4,368,153.2z"/>
				<path class="st12" d="M368,153.2c-0.9,0.8-2.1,1.1-3.1,0.9c0-1.1,0.5-2.2,1.4-2.9s2.1-1.1,3.1-0.9
					C369.4,151.3,368.9,152.4,368,153.2z"/>
				<path class="st15" d="M368,153.2c-0.9,0.8-2.1,1.1-3.1,0.9l4.5-3.8C369.4,151.3,368.9,152.4,368,153.2L368,153.2z"/>
			</g>
			<g>
				<path class="st14" d="M364.5,155.6c-0.2-0.6-0.2-1.3,0.1-1.8c0.6,0.2,1.1,0.6,1.4,1.2s0.2,1.3-0.1,1.8
					C365.3,156.6,364.8,156.2,364.5,155.6z"/>
				<path class="st12" d="M364.5,155.6c-0.2-0.6-0.2-1.3,0.1-1.8c0.6,0.2,1.1,0.6,1.4,1.2s0.2,1.3-0.1,1.8
					C365.3,156.6,364.8,156.2,364.5,155.6z"/>
				<path class="st15" d="M364.5,155.6c-0.2-0.6-0.2-1.3,0.1-1.8l1.2,3C365.3,156.6,364.8,156.2,364.5,155.6L364.5,155.6z"/>
			</g>
		</g>
		<path class="st12" d="M345.4,189.5h1.8c0.4,0,0.7,0.3,0.7,0.7v126.6c0,0.4-0.3,0.7-0.7,0.7h-1.8c-0.4,0-0.7-0.3-0.7-0.7V190.2
			C344.6,189.8,345,189.5,345.4,189.5z"/>
		<path class="st12" d="M306,164.8h1.8c0.4,0,0.7,0.3,0.7,0.7V307c0,0.4-0.3,0.7-0.7,0.7H306c-0.4,0-0.7-0.3-0.7-0.7V165.6
			C305.2,165.2,305.6,164.8,306,164.8z"/>
		<g>
			<g class="st13">
				<path class="st14" d="M335.5,197.2c-5.3,1.3-10.5,0.1-14.4-2.7c2.1-4.3,6.2-7.7,11.5-9s10.5-0.1,14.4,2.7
					C344.9,192.5,340.8,195.9,335.5,197.2z"/>
				<path class="st12" d="M335.5,197.2c-5.3,1.3-10.5,0.1-14.4-2.7c2.1-4.3,6.2-7.7,11.5-9s10.5-0.1,14.4,2.7
					C344.9,192.5,340.8,195.9,335.5,197.2z"/>
				<path class="st15" d="M335.5,197.2c-5.3,1.3-10.5,0.1-14.4-2.7l25.9-6.3C344.9,192.5,340.8,195.9,335.5,197.2L335.5,197.2z"/>
			</g>
			<g class="st13">
				<path class="st14" d="M357.6,194.6c4.6,0.3,8.9-1.4,11.7-4.5c-2.4-3.4-6.3-5.8-11-6.1s-8.9,1.4-11.7,4.5
					C349.1,191.9,353,194.2,357.6,194.6z"/>
				<path class="st12" d="M357.6,194.6c4.6,0.3,8.9-1.4,11.7-4.5c-2.4-3.4-6.3-5.8-11-6.1s-8.9,1.4-11.7,4.5
					C349.1,191.9,353,194.2,357.6,194.6z"/>
				<path class="st15" d="M357.6,194.6c4.6,0.3,8.9-1.4,11.7-4.5l-22.7-1.6C349.1,191.9,353,194.2,357.6,194.6L357.6,194.6z"/>
			</g>
			<g>
				<path class="st14" d="M342,187.3c-1.3-1.2-2-2.9-1.8-4.5c1.6-0.4,3.4,0,4.7,1.2s2,2.9,1.8,4.5
					C345.1,188.8,343.4,188.5,342,187.3z"/>
				<path class="st12" d="M342,187.3c-1.3-1.2-2-2.9-1.8-4.5c1.6-0.4,3.4,0,4.7,1.2s2,2.9,1.8,4.5
					C345.1,188.8,343.4,188.5,342,187.3z"/>
				<path class="st15" d="M342,187.3c-1.3-1.2-2-2.9-1.8-4.5l6.6,5.7C345.1,188.8,343.4,188.5,342,187.3z"/>
			</g>
			<g>
				<path class="st14" d="M350,187.7c-0.9,0.8-2.1,1.1-3.1,0.9c0-1.1,0.5-2.2,1.4-2.9s2.1-1.1,3.1-0.9
					C351.3,185.8,350.9,186.9,350,187.7z"/>
				<path class="st12" d="M350,187.7c-0.9,0.8-2.1,1.1-3.1,0.9c0-1.1,0.5-2.2,1.4-2.9s2.1-1.1,3.1-0.9
					C351.3,185.8,350.9,186.9,350,187.7z"/>
				<path class="st15" d="M350,187.7c-0.9,0.8-2.1,1.1-3.1,0.9l4.5-3.8C351.3,185.8,350.9,186.9,350,187.7L350,187.7z"/>
			</g>
			<g>
				<path class="st14" d="M346.5,190.1c-0.2-0.6-0.2-1.3,0.1-1.8c0.6,0.2,1.1,0.6,1.4,1.2s0.2,1.3-0.1,1.8
					C347.2,191.1,346.7,190.7,346.5,190.1z"/>
				<path class="st12" d="M346.5,190.1c-0.2-0.6-0.2-1.3,0.1-1.8c0.6,0.2,1.1,0.6,1.4,1.2s0.2,1.3-0.1,1.8
					C347.2,191.1,346.7,190.7,346.5,190.1z"/>
				<path class="st15" d="M346.5,190.1c-0.2-0.6-0.2-1.3,0.1-1.8l1.2,3C347.3,191.1,346.7,190.7,346.5,190.1L346.5,190.1z"/>
			</g>
		</g>
		<g>
			<g class="st13">
				<path class="st14" d="M296.1,174.2c-5.3,1.3-10.5,0.1-14.4-2.7c2.1-4.3,6.2-7.7,11.5-9s10.5-0.1,14.4,2.7
					C305.5,169.5,301.4,172.9,296.1,174.2z"/>
				<path class="st12" d="M296.1,174.2c-5.3,1.3-10.5,0.1-14.4-2.7c2.1-4.3,6.2-7.7,11.5-9s10.5-0.1,14.4,2.7
					C305.5,169.5,301.4,172.9,296.1,174.2z"/>
				<path class="st15" d="M296.1,174.2c-5.3,1.3-10.5,0.1-14.4-2.7l25.9-6.3C305.5,169.5,301.4,172.9,296.1,174.2L296.1,174.2z"/>
			</g>
			<g class="st13">
				<path class="st14" d="M318.2,171.6c4.6,0.3,8.9-1.4,11.7-4.5c-2.4-3.4-6.3-5.8-11-6.1s-8.9,1.4-11.7,4.5
					C309.6,168.9,313.6,171.3,318.2,171.6z"/>
				<path class="st12" d="M318.2,171.6c4.6,0.3,8.9-1.4,11.7-4.5c-2.4-3.4-6.3-5.8-11-6.1s-8.9,1.4-11.7,4.5
					C309.6,168.9,313.6,171.3,318.2,171.6z"/>
				<path class="st15" d="M318.2,171.6c4.6,0.3,8.9-1.4,11.7-4.5l-22.7-1.6C309.7,168.9,313.6,171.3,318.2,171.6L318.2,171.6z"/>
			</g>
			<g>
				<path class="st14" d="M302.6,164.3c-1.3-1.2-2-2.9-1.8-4.5c1.6-0.4,3.4,0,4.7,1.2s2,2.9,1.8,4.5
					C305.7,165.8,303.9,165.5,302.6,164.3z"/>
				<path class="st12" d="M302.6,164.3c-1.3-1.2-2-2.9-1.8-4.5c1.6-0.4,3.4,0,4.7,1.2s2,2.9,1.8,4.5
					C305.7,165.8,303.9,165.5,302.6,164.3z"/>
				<path class="st15" d="M302.6,164.3c-1.3-1.2-2-2.9-1.8-4.5l6.6,5.7C305.7,165.8,303.9,165.5,302.6,164.3z"/>
			</g>
			<g>
				<path class="st14" d="M310.5,164.7c-0.9,0.8-2.1,1.1-3.1,0.9c0-1.1,0.5-2.2,1.4-2.9s2.1-1.1,3.1-0.9
					C311.9,162.8,311.4,163.9,310.5,164.7z"/>
				<path class="st12" d="M310.5,164.7c-0.9,0.8-2.1,1.1-3.1,0.9c0-1.1,0.5-2.2,1.4-2.9s2.1-1.1,3.1-0.9
					C311.9,162.8,311.4,163.9,310.5,164.7z"/>
				<path class="st15" d="M310.5,164.7c-0.9,0.8-2.1,1.1-3.1,0.9l4.5-3.8C311.9,162.8,311.5,163.9,310.5,164.7L310.5,164.7z"/>
			</g>
			<g>
				<path class="st14" d="M307.1,167.1c-0.2-0.6-0.2-1.3,0.1-1.8c0.6,0.2,1.1,0.6,1.4,1.2s0.2,1.3-0.1,1.8
					C307.8,168.1,307.3,167.7,307.1,167.1z"/>
				<path class="st12" d="M307.1,167.1c-0.2-0.6-0.2-1.3,0.1-1.8c0.6,0.2,1.1,0.6,1.4,1.2s0.2,1.3-0.1,1.8
					C307.8,168.1,307.3,167.7,307.1,167.1z"/>
				<path class="st15" d="M307.1,167.1c-0.2-0.6-0.2-1.3,0.1-1.8l1.2,3C307.8,168.1,307.3,167.7,307.1,167.1L307.1,167.1z"/>
			</g>
		</g>
		<path class="st12" d="M322.4,222.3h1.8c0.4,0,0.7,0.3,0.7,0.7v95.4c0,0.4-0.3,0.7-0.7,0.7h-1.8c-0.4,0-0.7-0.3-0.7-0.7v-95.4
			C321.6,222.7,322,222.3,322.4,222.3z"/>
		<g>
			<g class="st13">
				<path class="st14" d="M312.5,230c-5.3,1.3-10.5,0.1-14.4-2.7c2.1-4.3,6.2-7.7,11.5-9s10.5-0.1,14.4,2.7
					C321.9,225.3,317.8,228.7,312.5,230z"/>
				<path class="st12" d="M312.5,230c-5.3,1.3-10.5,0.1-14.4-2.7c2.1-4.3,6.2-7.7,11.5-9s10.5-0.1,14.4,2.7
					C321.9,225.3,317.8,228.7,312.5,230z"/>
				<path class="st15" d="M312.5,230c-5.3,1.3-10.5,0.1-14.4-2.7L324,221C321.9,225.3,317.8,228.7,312.5,230L312.5,230z"/>
			</g>
			<g class="st13">
				<path class="st14" d="M334.6,227.4c4.6,0.3,8.9-1.4,11.7-4.5c-2.4-3.4-6.3-5.8-11-6.1s-8.9,1.4-11.7,4.5
					C326.1,224.7,330,227.1,334.6,227.4z"/>
				<path class="st12" d="M334.6,227.4c4.6,0.3,8.9-1.4,11.7-4.5c-2.4-3.4-6.3-5.8-11-6.1s-8.9,1.4-11.7,4.5
					C326.1,224.7,330,227.1,334.6,227.4z"/>
				<path class="st15" d="M334.6,227.4c4.6,0.3,8.9-1.4,11.7-4.5l-22.7-1.6C326.1,224.7,330,227.1,334.6,227.4L334.6,227.4z"/>
			</g>
			<g>
				<path class="st14" d="M319,220.1c-1.3-1.2-2-2.9-1.8-4.5c1.6-0.4,3.4,0,4.7,1.2s2,2.9,1.8,4.5
					C322.1,221.7,320.4,221.3,319,220.1z"/>
				<path class="st12" d="M319,220.1c-1.3-1.2-2-2.9-1.8-4.5c1.6-0.4,3.4,0,4.7,1.2s2,2.9,1.8,4.5
					C322.1,221.7,320.4,221.3,319,220.1z"/>
				<path class="st15" d="M319,220.1c-1.3-1.2-2-2.9-1.8-4.5l6.6,5.7C322.1,221.7,320.4,221.3,319,220.1z"/>
			</g>
			<g>
				<path class="st14" d="M327,220.5c-0.9,0.8-2.1,1.1-3.1,0.9c0-1.1,0.5-2.2,1.4-2.9s2.1-1.1,3.1-0.9
					C328.3,218.6,327.9,219.7,327,220.5z"/>
				<path class="st12" d="M327,220.5c-0.9,0.8-2.1,1.1-3.1,0.9c0-1.1,0.5-2.2,1.4-2.9s2.1-1.1,3.1-0.9
					C328.3,218.6,327.9,219.7,327,220.5z"/>
				<path class="st15" d="M327,220.5c-0.9,0.8-2.1,1.1-3.1,0.9l4.5-3.8C328.3,218.6,327.9,219.7,327,220.5L327,220.5z"/>
			</g>
			<g>
				<path class="st14" d="M323.5,222.9c-0.2-0.6-0.2-1.3,0.1-1.8c0.6,0.2,1.1,0.6,1.4,1.2s0.2,1.3-0.1,1.8
					C324.2,224,323.7,223.5,323.5,222.9z"/>
				<path class="st12" d="M323.5,222.9c-0.2-0.6-0.2-1.3,0.1-1.8c0.6,0.2,1.1,0.6,1.4,1.2s0.2,1.3-0.1,1.8
					C324.2,224,323.7,223.5,323.5,222.9z"/>
				<path class="st15" d="M323.5,222.9c-0.2-0.6-0.2-1.3,0.1-1.8l1.2,3C324.3,224,323.7,223.5,323.5,222.9L323.5,222.9z"/>
			</g>
		</g>
		<g class="st13">
			<path class="st14" d="M196.2,258c-4.2,0.8-8.1,0.6-10.7-0.4c2.1-1.8,5.7-3.3,9.8-4.1s8.1-0.6,10.7,0.4
				C203.9,255.7,200.4,257.2,196.2,258z"/>
			<path class="st12" d="M196.2,258c-4.2,0.8-8.1,0.6-10.7-0.4c2.1-1.8,5.7-3.3,9.8-4.1s8.1-0.6,10.7,0.4
				C203.9,255.7,200.4,257.2,196.2,258z"/>
			<path class="st15" d="M196.2,258c-4.2,0.8-8.1,0.6-10.7-0.4l20.5-3.8C203.9,255.7,200.4,257.2,196.2,258L196.2,258z"/>
		</g>
		<g class="st13">
			<path class="st14" d="M225.8,276c-4.2,0.8-8.1,0.6-10.7-0.4c2.1-1.8,5.7-3.3,9.8-4.1s8.1-0.6,10.7,0.4
				C233.5,273.7,230,275.3,225.8,276z"/>
			<path class="st12" d="M225.8,276c-4.2,0.8-8.1,0.6-10.7-0.4c2.1-1.8,5.7-3.3,9.8-4.1s8.1-0.6,10.7,0.4
				C233.5,273.7,230,275.3,225.8,276z"/>
			<path class="st15" d="M225.8,276c-4.2,0.8-8.1,0.6-10.7-0.4l20.5-3.8C233.5,273.7,229.9,275.3,225.8,276L225.8,276z"/>
		</g>
		<g class="st13">
			<path class="st14" d="M257,279.3c-4.2,0.8-8.1,0.6-10.7-0.4c2.1-1.8,5.7-3.3,9.8-4.1s8-0.6,10.7,0.4
				C264.7,277,261.2,278.6,257,279.3z"/>
			<path class="st12" d="M257,279.3c-4.2,0.8-8.1,0.6-10.7-0.4c2.1-1.8,5.7-3.3,9.8-4.1s8-0.6,10.7,0.4
				C264.7,277,261.2,278.6,257,279.3z"/>
			<path class="st15" d="M257,279.3c-4.2,0.8-8.1,0.6-10.7-0.4l20.5-3.8C264.7,277,261.2,278.6,257,279.3L257,279.3z"/>
		</g>
		<g class="st13">
			<path class="st14" d="M334.2,289.2c-4.2,0.8-8,0.6-10.7-0.4c2.1-1.8,5.7-3.3,9.8-4.1c4.2-0.8,8-0.6,10.7,0.4
				C341.9,286.9,338.4,288.4,334.2,289.2z"/>
			<path class="st12" d="M334.2,289.2c-4.2,0.8-8,0.6-10.7-0.4c2.1-1.8,5.7-3.3,9.8-4.1c4.2-0.8,8-0.6,10.7,0.4
				C341.9,286.9,338.4,288.4,334.2,289.2z"/>
			<path class="st15" d="M334.2,289.2c-4.2,0.8-8,0.6-10.7-0.4l20.5-3.8C341.9,286.9,338.3,288.4,334.2,289.2L334.2,289.2z"/>
		</g>
		<g class="st13">
			<path class="st14" d="M271.8,236.6c-4.2,0.8-8,0.6-10.7-0.4c2.1-1.8,5.7-3.3,9.8-4.1c4.2-0.8,8-0.6,10.7,0.4
				C279.5,234.3,275.9,235.9,271.8,236.6z"/>
			<path class="st12" d="M271.8,236.6c-4.2,0.8-8,0.6-10.7-0.4c2.1-1.8,5.7-3.3,9.8-4.1c4.2-0.8,8-0.6,10.7,0.4
				C279.5,234.3,275.9,235.9,271.8,236.6z"/>
			<path class="st15" d="M271.8,236.6c-4.2,0.8-8,0.6-10.7-0.4l20.5-3.8C279.5,234.3,275.9,235.9,271.8,236.6L271.8,236.6z"/>
		</g>
		<g class="st13">
			<path class="st14" d="M243.9,174.2c-4.2,0.8-8.1,0.6-10.7-0.4c2.1-1.8,5.7-3.3,9.8-4.1s8.1-0.6,10.7,0.4
				C251.6,171.9,248,173.5,243.9,174.2z"/>
			<path class="st12" d="M243.9,174.2c-4.2,0.8-8.1,0.6-10.7-0.4c2.1-1.8,5.7-3.3,9.8-4.1s8.1-0.6,10.7,0.4
				C251.6,171.9,248,173.5,243.9,174.2z"/>
			<path class="st15" d="M243.9,174.2c-4.2,0.8-8.1,0.6-10.7-0.4l20.5-3.8C251.6,171.9,248,173.5,243.9,174.2L243.9,174.2z"/>
		</g>
		<g class="st13">
			<path class="st14" d="M317.8,182.4c-4.2,0.8-8,0.6-10.7-0.4c2.1-1.8,5.7-3.3,9.8-4.1c4.2-0.8,8-0.6,10.7,0.4
				C325.5,180.1,321.9,181.7,317.8,182.4z"/>
			<path class="st12" d="M317.8,182.4c-4.2,0.8-8,0.6-10.7-0.4c2.1-1.8,5.7-3.3,9.8-4.1c4.2-0.8,8-0.6,10.7,0.4
				C325.5,180.1,321.9,181.7,317.8,182.4z"/>
			<path class="st15" d="M317.8,182.4c-4.2,0.8-8,0.6-10.7-0.4l20.5-3.8C325.5,180.1,321.9,181.7,317.8,182.4L317.8,182.4z"/>
		</g>
		<g class="st13">
			<path class="st14" d="M334.2,249.8c-4.2,0.8-8,0.6-10.7-0.4c2.1-1.8,5.7-3.3,9.8-4.1s8-0.6,10.7,0.4
				C341.9,247.5,338.4,249,334.2,249.8z"/>
			<path class="st12" d="M334.2,249.8c-4.2,0.8-8,0.6-10.7-0.4c2.1-1.8,5.7-3.3,9.8-4.1s8-0.6,10.7,0.4
				C341.9,247.5,338.4,249,334.2,249.8z"/>
			<path class="st15" d="M334.2,249.8c-4.2,0.8-8,0.6-10.7-0.4l20.5-3.8C341.9,247.5,338.3,249,334.2,249.8L334.2,249.8z"/>
		</g>
		<g class="st13">
			<path class="st14" d="M411.4,239.9c-4.2,0.8-8,0.6-10.7-0.4c2.1-1.8,5.7-3.3,9.8-4.1c4.2-0.8,8-0.6,10.7,0.4
				C419.1,237.6,415.5,239.1,411.4,239.9z"/>
			<path class="st12" d="M411.4,239.9c-4.2,0.8-8,0.6-10.7-0.4c2.1-1.8,5.7-3.3,9.8-4.1c4.2-0.8,8-0.6,10.7,0.4
				C419.1,237.6,415.5,239.1,411.4,239.9z"/>
			<path class="st15" d="M411.4,239.9c-4.2,0.8-8,0.6-10.7-0.4l20.5-3.8C419.1,237.6,415.5,239.1,411.4,239.9L411.4,239.9z"/>
		</g>
		<g class="st13">
			<path class="st14" d="M375.2,238.3c-4.2,0.8-8,0.6-10.7-0.4c2.1-1.8,5.7-3.3,9.8-4.1s8-0.6,10.7,0.4
				C383,236,379.4,237.5,375.2,238.3z"/>
			<path class="st12" d="M375.2,238.3c-4.2,0.8-8,0.6-10.7-0.4c2.1-1.8,5.7-3.3,9.8-4.1s8-0.6,10.7,0.4
				C383,236,379.4,237.5,375.2,238.3z"/>
			<path class="st15" d="M375.2,238.3c-4.2,0.8-8,0.6-10.7-0.4l20.5-3.8C383,236,379.4,237.5,375.2,238.3L375.2,238.3z"/>
		</g>
		<g class="st13">
			<path class="st14" d="M375.2,177.5c-4.2,0.8-8,0.6-10.7-0.4c2.1-1.8,5.7-3.3,9.8-4.1s8-0.6,10.7,0.4
				C383,175.2,379.4,176.7,375.2,177.5z"/>
			<path class="st12" d="M375.2,177.5c-4.2,0.8-8,0.6-10.7-0.4c2.1-1.8,5.7-3.3,9.8-4.1s8-0.6,10.7,0.4
				C383,175.2,379.4,176.7,375.2,177.5z"/>
			<path class="st15" d="M375.2,177.5c-4.2,0.8-8,0.6-10.7-0.4l20.5-3.8C383,175.2,379.4,176.7,375.2,177.5L375.2,177.5z"/>
		</g>
		<g class="st13">
			<path class="st14" d="M225.8,221.9c-4.2,0.8-8.1,0.6-10.7-0.4c2.1-1.8,5.7-3.3,9.8-4.1s8.1-0.6,10.7,0.4
				C233.5,219.5,230,221.1,225.8,221.9z"/>
			<path class="st12" d="M225.8,221.9c-4.2,0.8-8.1,0.6-10.7-0.4c2.1-1.8,5.7-3.3,9.8-4.1s8.1-0.6,10.7,0.4
				C233.5,219.5,230,221.1,225.8,221.9z"/>
			<path class="st15" d="M225.8,221.9c-4.2,0.8-8.1,0.6-10.7-0.4l20.5-3.8C233.5,219.5,229.9,221.1,225.8,221.9L225.8,221.9z"/>
		</g>
		<g class="st13">
			<path class="st14" d="M243.7,239.9c-3.6-0.9-6.8-2.2-8.6-3.6c2.3-0.4,5.7-0.3,9.3,0.6s6.8,2.2,8.6,3.6
				C250.7,240.9,247.3,240.8,243.7,239.9L243.7,239.9z"/>
			<path class="st12" d="M243.7,239.9c-3.6-0.9-6.8-2.2-8.6-3.6c2.3-0.4,5.7-0.3,9.3,0.6s6.8,2.2,8.6,3.6
				C250.7,240.9,247.3,240.8,243.7,239.9L243.7,239.9z"/>
			<path class="st15" d="M243.7,239.9c-3.6-0.9-6.8-2.2-8.6-3.6l17.9,4.2C250.7,240.9,247.3,240.8,243.7,239.9L243.7,239.9z"/>
		</g>
		<g class="st13">
			<path class="st14" d="M214.1,264.6c-3.6-0.9-6.8-2.2-8.6-3.6c2.3-0.5,5.7-0.3,9.3,0.6c3.6,0.9,6.8,2.2,8.6,3.6
				C221.2,265.6,217.8,265.4,214.1,264.6L214.1,264.6z"/>
			<path class="st12" d="M214.1,264.6c-3.6-0.9-6.8-2.2-8.6-3.6c2.3-0.5,5.7-0.3,9.3,0.6c3.6,0.9,6.8,2.2,8.6,3.6
				C221.2,265.6,217.8,265.4,214.1,264.6L214.1,264.6z"/>
			<path class="st15" d="M214.1,264.6c-3.6-0.9-6.8-2.2-8.6-3.6l17.9,4.2C221.2,265.6,217.8,265.4,214.1,264.6L214.1,264.6z"/>
		</g>
		<g class="st13">
			<path class="st14" d="M291.3,220.2c-3.6-0.9-6.8-2.2-8.6-3.6c2.3-0.4,5.7-0.3,9.3,0.6s6.8,2.2,8.6,3.6
				C298.4,221.2,295,221.1,291.3,220.2z"/>
			<path class="st12" d="M291.3,220.2c-3.6-0.9-6.8-2.2-8.6-3.6c2.3-0.4,5.7-0.3,9.3,0.6s6.8,2.2,8.6,3.6
				C298.4,221.2,295,221.1,291.3,220.2z"/>
			<path class="st15" d="M291.3,220.2c-3.6-0.9-6.8-2.2-8.6-3.6l17.9,4.2C298.4,221.2,295,221.1,291.3,220.2z"/>
		</g>
		<g class="st13">
			<path class="st14" d="M314.3,267.8c-3.6-0.9-6.8-2.2-8.6-3.6c2.3-0.5,5.7-0.3,9.3,0.6c3.6,0.9,6.8,2.2,8.6,3.6
				C321.4,268.9,318,268.7,314.3,267.8z"/>
			<path class="st12" d="M314.3,267.8c-3.6-0.9-6.8-2.2-8.6-3.6c2.3-0.5,5.7-0.3,9.3,0.6c3.6,0.9,6.8,2.2,8.6,3.6
				C321.4,268.9,318,268.7,314.3,267.8z"/>
			<path class="st15" d="M314.3,267.8c-3.6-0.9-6.8-2.2-8.6-3.6l17.9,4.2C321.4,268.9,318,268.7,314.3,267.8z"/>
		</g>
		<g class="st13">
			<path class="st14" d="M355.4,215.3c-3.6-0.9-6.8-2.2-8.6-3.6c2.3-0.4,5.7-0.3,9.3,0.6s6.8,2.2,8.6,3.6
				C362.4,216.3,359,216.1,355.4,215.3z"/>
			<path class="st12" d="M355.4,215.3c-3.6-0.9-6.8-2.2-8.6-3.6c2.3-0.4,5.7-0.3,9.3,0.6s6.8,2.2,8.6,3.6
				C362.4,216.3,359,216.1,355.4,215.3z"/>
			<path class="st15" d="M355.4,215.3c-3.6-0.9-6.8-2.2-8.6-3.6l17.9,4.2C362.4,216.3,359,216.1,355.4,215.3z"/>
		</g>
		<g class="st13">
			<path class="st14" d="M376.7,285.9c-3.6-0.9-6.8-2.2-8.6-3.6c2.3-0.5,5.7-0.3,9.3,0.6c3.6,0.9,6.8,2.2,8.6,3.6
				C383.8,286.9,380.4,286.8,376.7,285.9z"/>
			<path class="st12" d="M376.7,285.9c-3.6-0.9-6.8-2.2-8.6-3.6c2.3-0.5,5.7-0.3,9.3,0.6c3.6,0.9,6.8,2.2,8.6,3.6
				C383.8,286.9,380.4,286.8,376.7,285.9z"/>
			<path class="st15" d="M376.7,285.9c-3.6-0.9-6.8-2.2-8.6-3.6l17.9,4.2C383.8,286.9,380.4,286.8,376.7,285.9z"/>
		</g>
		<g class="st13">
			<path class="st14" d="M393.1,241.6c-3.6-0.9-6.8-2.2-8.6-3.6c2.3-0.4,5.7-0.3,9.3,0.6s6.8,2.2,8.6,3.6
				C400.2,242.6,396.8,242.4,393.1,241.6z"/>
			<path class="st12" d="M393.1,241.6c-3.6-0.9-6.8-2.2-8.6-3.6c2.3-0.4,5.7-0.3,9.3,0.6s6.8,2.2,8.6,3.6
				C400.2,242.6,396.8,242.4,393.1,241.6z"/>
			<path class="st15" d="M393.1,241.6c-3.6-0.9-6.8-2.2-8.6-3.6l17.9,4.2C400.2,242.6,396.8,242.4,393.1,241.6z"/>
		</g>
		<g class="st13">
			<path class="st14" d="M393.1,276c-3.6-0.9-6.8-2.2-8.6-3.6c2.3-0.5,5.7-0.3,9.3,0.6c3.6,0.9,6.8,2.2,8.6,3.6
				C400.2,277.1,396.8,276.9,393.1,276z"/>
			<path class="st12" d="M393.1,276c-3.6-0.9-6.8-2.2-8.6-3.6c2.3-0.5,5.7-0.3,9.3,0.6c3.6,0.9,6.8,2.2,8.6,3.6
				C400.2,277.1,396.8,276.9,393.1,276z"/>
			<path class="st15" d="M393.1,276c-3.6-0.9-6.8-2.2-8.6-3.6l17.9,4.2C400.2,277.1,396.8,276.9,393.1,276z"/>
		</g>
	</g>
</g>
<g>
	<path class="st8" d="M640.8,495.3v11.9c0,4-17.6,7.3-39.3,7.3s-39.3-3.3-39.3-7.3v-11.9H640.8L640.8,495.3z"/>
	<g>
		<path class="st16" d="M640.8,495.7c0,5.1-17.6,9.2-39.3,9.2s-39.3-4.1-39.3-9.2c0-0.1,0-0.3,0-0.4v-0.1l17-114.7h44.4l17,114.5
			C640.8,495.3,640.8,495.5,640.8,495.7L640.8,495.7z"/>
		<path class="st17" d="M633.1,487.8c0,4.1-14.3,7.5-32,7.5s-32-3.4-32-7.5c0-0.1,0-0.2,0-0.3v-0.1l13.8-93.3h36.1l13.8,93.1
			C633.1,487.5,633.1,487.7,633.1,487.8L633.1,487.8z"/>
		<path class="st16" d="M562.3,495.3c0,0.1,0,0.3,0,0.4h0L562.3,495.3z"/>
		<ellipse class="st18" cx="601.5" cy="377" rx="29" ry="5.5"/>
		<rect x="572.5" y="370.9" class="st18" width="58.1" height="6.1"/>
		<ellipse class="st16" cx="601.5" cy="370.9" rx="29" ry="5.5"/>
		<path class="st19" d="M630.5,344.2l-0.2,0.8v0l-0.8,3.2l-5.5,21.7c0,1.9-9.8,3.4-21.8,3.4s-21.8-1.5-21.8-3.4l-6.7-21.3l-1-3.3v0
			l-0.1-0.3l-0.2-0.7L630.5,344.2L630.5,344.2z"/>
		<path class="st20" d="M630.3,345L630.3,345l-0.8,3.2c-3.3,3.6-14.6,6.3-28,6.3s-24-2.5-27.7-5.9l-1-3.3v0l-0.1-0.3
			c0.1-0.2,0.2-0.5,0.3-0.7c2.6-3.8,13.6-6.6,27-6.8c0.5,0,1,0,1.5,0s1,0,1.5,0c13.4,0.2,24.4,3.1,27,6.8
			C630.1,344.5,630.2,344.8,630.3,345L630.3,345z"/>
		<path class="st16" d="M630.5,344.2l-0.2,0.8v0c-1.6,3.4-13.9,6.1-28.8,6.1s-26.7-2.5-28.7-5.8v0l-0.1-0.3l-0.2-0.7
			c0-3.6,12.2-6.6,27.5-6.8c0.5,0,1,0,1.5,0s1,0,1.5,0C618.3,337.6,630.5,340.6,630.5,344.2L630.5,344.2z"/>
		<g>
			<ellipse class="st21" cx="581.8" cy="343.4" rx="2.6" ry="0.9"/>
			<ellipse class="st21" cx="592.1" cy="340" rx="2.6" ry="0.9"/>
			<ellipse class="st21" cx="592.1" cy="346.8" rx="2.6" ry="0.9"/>
			<ellipse class="st21" cx="600.6" cy="343.4" rx="2.6" ry="0.9"/>
			<ellipse class="st21" cx="609.2" cy="340" rx="2.6" ry="0.9"/>
			<ellipse class="st21" cx="609.2" cy="346.8" rx="2.6" ry="0.9"/>
			<ellipse class="st21" cx="621.1" cy="343.4" rx="2.6" ry="0.9"/>
		</g>
		<ellipse class="st20" cx="601.2" cy="395.2" rx="18.1" ry="3.2"/>
		<ellipse class="st17" cx="601.2" cy="394.1" rx="18.1" ry="2.2"/>
	</g>
</g>
<g>
	<path class="st8" d="M538.3,527.1v11.9c0,4-17.6,7.3-39.3,7.3s-39.3-3.3-39.3-7.3v-11.9H538.3L538.3,527.1z"/>
	<g>
		<path class="st16" d="M538.3,527.1c0,5.1-17.6,9.2-39.3,9.2s-39.3-4.1-39.3-9.2c0-0.1,0-0.3,0-0.4v-0.1l17-114.7h44.4l17,114.5
			C538.3,526.7,538.3,526.9,538.3,527.1z"/>
		<path class="st22" d="M530.6,519.2c0,4.1-14.3,7.5-32,7.5s-32-3.4-32-7.5c0-0.1,0-0.2,0-0.3v-0.1l13.8-93.3h36.1l13.8,93.1
			C530.6,518.8,530.6,519,530.6,519.2L530.6,519.2z"/>
		<path class="st16" d="M459.8,526.7c0,0.1,0,0.3,0,0.4h0L459.8,526.7L459.8,526.7z"/>
		<ellipse class="st18" cx="499" cy="408.4" rx="29" ry="5.5"/>
		<rect x="470" y="402.3" class="st18" width="58.1" height="6.1"/>
		<ellipse class="st16" cx="499" cy="402.3" rx="29" ry="5.5"/>
		<path class="st19" d="M528,375.6l-0.2,0.8v0l-0.8,3.2l-5.5,21.7c0,1.9-9.8,3.4-21.8,3.4s-21.8-1.5-21.8-3.4l-6.7-21.3l-1-3.3v0
			l-0.1-0.3l-0.2-0.7L528,375.6L528,375.6z"/>
		<path class="st20" d="M527.8,376.4L527.8,376.4l-0.8,3.2c-3.3,3.6-14.6,6.3-28,6.3s-24-2.5-27.7-5.9l-1-3.3v0l-0.1-0.3
			c0.1-0.2,0.2-0.5,0.3-0.7c2.6-3.8,13.6-6.6,27-6.8c0.5,0,1,0,1.5,0s1,0,1.5,0c13.4,0.2,24.4,3.1,27,6.8
			C527.6,375.9,527.8,376.1,527.8,376.4L527.8,376.4z"/>
		<path class="st16" d="M528,375.6l-0.2,0.8v0c-1.6,3.4-13.9,6.1-28.9,6.1s-26.7-2.5-28.7-5.8v0l-0.1-0.3l-0.2-0.7
			c0-3.6,12.2-6.6,27.5-6.8c0.5,0,1,0,1.5,0s1,0,1.5,0C515.8,369,528,372,528,375.6L528,375.6z"/>
		<g>
			<ellipse class="st21" cx="479.3" cy="374.8" rx="2.6" ry="0.9"/>
			<ellipse class="st21" cx="489.6" cy="371.4" rx="2.6" ry="0.9"/>
			<ellipse class="st21" cx="489.6" cy="378.2" rx="2.6" ry="0.9"/>
			<ellipse class="st21" cx="498.1" cy="374.8" rx="2.6" ry="0.9"/>
			<ellipse class="st21" cx="506.7" cy="371.4" rx="2.6" ry="0.9"/>
			<ellipse class="st21" cx="506.7" cy="378.2" rx="2.6" ry="0.9"/>
			<ellipse class="st21" cx="518.6" cy="374.8" rx="2.6" ry="0.9"/>
		</g>
		<ellipse class="st23" cx="498.7" cy="426.6" rx="18.1" ry="3.2"/>
		<ellipse class="st22" cx="498.7" cy="425.5" rx="18.1" ry="2.2"/>
	</g>
</g>
<g>
	<g>
		<path class="st24" d="M1580.3,880.7c-0.1,10.5-2.5,21.2-7.9,30.7l-8.9,15.8v0l-30.1,53.4l-9.9,17.5l-21.8,38.7l-15.8,28v0
			l-8.1,14.3l-0.8,1.5l-0.3,0.5H439.4l-0.3-0.5l-0.8-1.5l-11.4-20.8l-7.1-12.9v0l-25.9-47.3l-5.2-9.5l-30-54.8l0,0h0l-12.3-22.4
			l-0.3-0.5c-5.2-9.4-7.5-19.8-7.7-30.1c-0.1-9.2,1.5-18.2,4.7-26.1c0.1-0.4,0.3-0.7,0.4-1.1c0,0,0,0,0,0
			c6.2-15.2,18-26.1,32.7-26.1h1166.3c12.7,0,23.1,8.1,29.8,20.1c0.2,0.4,0.4,0.7,0.6,1.1c0,0,0,0,0,0
			C1577.9,857.7,1580.6,869.1,1580.3,880.7z"/>
		<path class="st20" d="M1687.9,845.3L1687.9,845.3c-8.8,12.2-21.2,24.1-36.8,35.4c-3.5,2.6-7.2,5.1-11,7.6
			c-20.6,13.6-45.7,26.3-74.9,38.1c-0.5,0.2-1.1,0.5-1.7,0.7l0,0l-30.1,53.4l-9.9,17.5l-21.8,38.7l-15.8,28c0,0,0,0,0,0v0
			c-20.2,5.6-41.5,10.8-63.8,15.8c-0.8,0.2-1.5,0.3-2.3,0.5H516.1c-0.8-0.2-1.5-0.3-2.3-0.5c-27.9-6.1-54.3-12.7-78.7-19.8
			c-2.7-0.8-5.5-1.6-8.2-2.5l-7.1-12.9v0l-25.9-47.3l-5.2-9.5l-30-54.8l0,0h0c-6.5-2.4-12.8-4.8-19-7.3
			c-29.2-11.8-54.3-24.5-74.9-38.1c-3.8-2.5-7.5-5-11-7.6c-8-5.9-15.2-11.8-21.5-18c21.3-29.7,63.6-57,122-80.9c0,0,0,0,0,0
			c0.9-0.4,1.8-0.8,2.8-1.1c0,0,0,0,0.1,0c71.1-28.6,165.5-52,275.3-67.9c5.5-0.8,11.1-1.6,16.7-2.4c48.6-6.6,100.1-11.7,153.8-15.2
			c21.3-1.4,42.9-2.5,64.8-3.3c28.6-1.1,57.7-1.7,87.2-1.9c4.2,0,8.4,0,12.7,0c4.7,0,9.4,0,14.1,0c43.4,0.2,85.8,1.5,127.1,3.8
			c5.6,0.3,11.2,0.6,16.8,1c155.4,9.6,293,33.2,396.4,65.9c1.1,0.3,2.2,0.7,3.3,1c0.1,0,0.1,0,0.2,0.1c0,0,0.1,0,0.1,0
			C1599.6,785.5,1655.5,813.8,1687.9,845.3z"/>
		<path class="st24" d="M1703.7,800.6c0,15.3-5.5,30.3-15.9,44.7c-8.8,12.2-21.2,24-36.8,35.4c-3.5,2.6-7.2,5.1-11,7.6
			c-20.6,13.6-45.7,26.3-74.9,38.1c-0.5,0.2-1.1,0.5-1.7,0.7c-9.6,3.9-19.7,7.7-30.1,11.4c-10.1,3.5-20.7,7-31.7,10.4
			c-137.2,42.6-332.4,69.1-549.2,69.1s-396.5-24.5-532.6-64.1c-10.8-3.1-21.1-6.3-31.2-9.6c-10.4-3.4-20.4-6.9-30-10.5
			c-6.5-2.4-12.8-4.8-19-7.3c-29.2-11.8-54.3-24.6-74.9-38.1c-3.8-2.5-7.5-5-11-7.6c-8-5.9-15.2-11.8-21.5-18
			c-20.3-19.6-31.2-40.5-31.2-62.1c0-120.1,336.4-217.4,751.3-217.4S1703.7,680.5,1703.7,800.6L1703.7,800.6z"/>
		<g>
			<ellipse class="st25" cx="956.3" cy="823.5" rx="625.5" ry="148.7"/>
			<path class="st26" d="M970.9,911c-8.6,0.2-17.3,0.2-26.1,0.2c-292.7,0-530.1-41-530.1-91.5c0-50.6,237.4-91.5,530.1-91.5
				c8.8,0,17.5,0,26.1,0.2c-280,2.4-502.8,42.4-502.8,91.4C468.1,868.6,690.9,908.6,970.9,911L970.9,911z"/>
			<path class="st26" d="M1429.2,819.7c0,35-187.3,63.4-418.2,63.4c-10.5,0-20.8-0.1-31.2-0.2c216-2.5,386-29.8,386-63.2
				s-170.1-60.7-386-63.2c10.3-0.1,20.7-0.2,31.2-0.2C1241.9,756.3,1429.2,784.7,1429.2,819.7L1429.2,819.7z"/>
			<path class="st26" d="M702.7,814c0,12.6,67.5,22.8,150.8,22.8c3.8,0,7.5,0,11.2-0.1c-77.8-0.9-139.2-10.8-139.2-22.8
				s61.3-21.9,139.2-22.8c-3.7-0.1-7.5-0.1-11.2-0.1C770.2,791.2,702.7,801.4,702.7,814L702.7,814z"/>
		</g>
	</g>
</g>
<g id="Layer_3">
	<g>
		<g class="st27">
			<path class="st28" d="M824,508.7c-43.6-55.6-103.2-85.1-147.7-77.4c-0.2,0-0.5,0.1-0.7,0.1c-18.5,41.4-4.1,106.7,39.7,162.5
				c43.9,55.9,103.8,85.4,148.4,77.3c0.1-0.2,0.2-0.5,0.3-0.7C882.1,629.1,867.6,564.3,824,508.7L824,508.7z"/>
			<path class="st29" d="M824,508.7c-43.6-55.6-103.2-85.1-147.7-77.4c-0.2,0-0.5,0.1-0.7,0.1c-18.5,41.4-4.1,106.7,39.7,162.5
				c43.9,55.9,103.8,85.4,148.4,77.3c0.1-0.2,0.2-0.5,0.3-0.7C882.1,629.1,867.6,564.3,824,508.7L824,508.7z"/>
			<path class="st30" d="M824,508.7c-43.6-55.6-103.2-85.1-147.7-77.4L864,670.5C882.1,629.1,867.6,564.3,824,508.7z"/>
		</g>
		<g class="st27">
			<path class="st28" d="M933.9,508.7c43.6-55.6,103.2-85.1,147.7-77.4c0.2,0,0.5,0.1,0.7,0.1c18.5,41.4,4.1,106.7-39.7,162.5
				c-43.9,55.9-103.8,85.4-148.4,77.3c-0.1-0.2-0.2-0.5-0.3-0.7C875.8,629.1,890.3,564.2,933.9,508.7L933.9,508.7z"/>
			<path class="st29" d="M933.9,508.7c43.6-55.6,103.2-85.1,147.7-77.4c0.2,0,0.5,0.1,0.7,0.1c18.5,41.4,4.1,106.7-39.7,162.5
				c-43.9,55.9-103.8,85.4-148.4,77.3c-0.1-0.2-0.2-0.5-0.3-0.7C875.8,629.1,890.3,564.2,933.9,508.7L933.9,508.7z"/>
			<path class="st30" d="M933.9,508.7c43.6-55.6,103.2-85.1,147.7-77.4L893.8,670.5C875.7,629.1,890.2,564.3,933.9,508.7z"/>
		</g>
	</g>
	<path class="st20" d="M919,566.1c4.3,4.7,8.4,10.1,12.1,16.1c-10.5,11.1-25,19-41.8,21.6c-24.4,3.7-47.6-4.7-62.3-20.5
		c3.7-6.1,7.7-11.5,12-16.2c-13.3-8.6-23.1-21.8-26.7-37.5c5.9-25.5,28.3-46.5,57.8-51c36.1-5.5,69.6,15.7,77,47.9
		C943.5,542.4,933.4,556.6,919,566.1L919,566.1z"/>
	<g>
		<path class="st31" d="M704.8,564.6l-5.7,2.5l-99.4,43.4c-5.3,2.3-12.6,8.8-39.4,0.6l133.2-58.2l1.7-0.8c1.7-0.7,3.5-1,5.2-0.7h0
			c1.3,0.2,2.5,0.6,3.6,1.2c1.7,1,3.1,2.4,3.9,4.4C709.2,559.9,707.8,563.3,704.8,564.6L704.8,564.6z"/>
		<path class="st31" d="M825.3,595.7l-4,11.8c-0.3,0.7-1,1.1-1.8,0.9l-120.4-41.3l-8.1-2.8c-0.7-0.2-1.1-1-0.9-1.8l3.3-9.6l1.7-0.8
			c1.7-0.7,3.5-1,5.2-0.7h0l3.6,1.2l120.5,41.3C825.2,594.2,825.5,594.9,825.3,595.7z"/>
	</g>
	<g>
		<path class="st31" d="M1136.7,442.2l-73,125.7l-0.9,1.6c-0.9,1.6-2.3,2.9-3.8,3.7c-1.1,0.6-2.3,1-3.5,1.1c-1.4,0.2-2.8,0-4.2-0.5
			c-0.5-0.2-1-0.4-1.5-0.7c-2.7-1.6-3.7-5.1-2-7.9l3.1-5.4l54.5-93.8C1108.1,461,1110.2,451.4,1136.7,442.2L1136.7,442.2z"/>
		<path class="st31" d="M1063.7,567.9l-0.9,1.6c-0.9,1.6-2.3,2.9-3.8,3.7l-3.5,1.1l-121,37.8c-1.1,0.3-2.1-0.3-2.5-1.3l-3.4-10.8
			c-0.3-1,0.3-2.1,1.3-2.5l120.9-37.8l7.6-2.4c1-0.3,2.1,0.3,2.5,1.3L1063.7,567.9L1063.7,567.9z"/>
	</g>
	<g>
		<path class="st31" d="M689.4,880l35.2-109.2c1-3.1-0.7-6.3-3.7-7.3l0,0c-5-1.6-10.4,1.2-12,6.3L663.8,910
			C687.7,895.3,687.7,885.5,689.4,880L689.4,880z"/>
		<path class="st31" d="M828.1,701.6l5.6,9.8c0.5,0.9,0.2,2.1-0.7,2.7l-117.1,66.6c-0.9,0.5-2.1,0.2-2.7-0.7l-5.6-9.8
			c-0.5-0.9-0.2-2.1,0.7-2.7l117.1-66.6C826.3,700.3,827.5,700.6,828.1,701.6z"/>
	</g>
	<g>
		<path class="st31" d="M1070.4,880.1l-35.2-109.2c-1-3.1,0.7-6.3,3.7-7.3l0,0c5-1.6,10.4,1.2,12,6.3L1096,910
			C1072.1,895.4,1072.1,885.6,1070.4,880.1L1070.4,880.1z"/>
		<path class="st31" d="M1052.3,770.1l-5.6,9.8c-0.5,0.9-1.7,1.3-2.7,0.7L927,714.1c-0.9-0.5-1.3-1.7-0.7-2.7l5.6-9.8
			c0.5-0.9,1.7-1.3,2.7-0.7l117.1,66.6C1052.5,767.9,1052.8,769.1,1052.3,770.1z"/>
	</g>
	<ellipse class="st25" cx="954.9" cy="823.5" rx="625.5" ry="148.7"/>
	<g>
		<path class="st31" d="M1064.1,589.6l2.4,5.7l42.6,99.2c2.3,5.3,3.1,14.9,28.2,27.5l-57-132.9l-0.7-1.7c-0.7-1.7-1.9-3.1-3.3-4.1h0
			c-1-0.8-2.2-1.3-3.4-1.6c-1.9-0.5-3.9-0.4-5.8,0.4C1064.2,583.3,1062.9,586.6,1064.1,589.6L1064.1,589.6z"/>
		<path class="st31" d="M942.5,630.9l4.5,11.6c0.3,0.7,1.1,1.1,1.8,0.8l118.6-46.2l8-3.1c0.7-0.3,1.1-1.1,0.8-1.8l-3.7-9.5l-1.8-0.7
			c-1.7-0.7-3.5-0.8-5.2-0.5h0l-3.5,1.4l-118.7,46.2C942.6,629.4,942.3,630.2,942.5,630.9L942.5,630.9z"/>
	</g>
	<g>
		<path class="st31" d="M699.4,595l-2.4,5.7l-42.6,99.2c-2.3,5.3-3.1,14.9-28.2,27.5l57-132.9l0.7-1.7c0.7-1.7,1.9-3.1,3.3-4.1h0
			c1-0.8,2.2-1.3,3.4-1.6c1.9-0.5,3.9-0.4,5.8,0.4C699.4,588.7,700.7,592,699.4,595L699.4,595z"/>
		<path class="st31" d="M652.3,630.7l19.1-7.6l0.2-0.1c0.2-0.1,0.5-0.1,0.7-0.1l0,0c0.2,0,0.3,0.1,0.5,0.2c0.2,0.2,0.4,0.4,0.4,0.7
			c0.1,0.5-0.1,1-0.6,1.2l-0.8,0.3l-12.1,3.9L652.3,630.7z"/>
		<path class="st31" d="M619.5,571.4l20.1,4.4l0.3,0.1c0.3,0.1,0.5,0.2,0.6,0.4l0,0c0.1,0.1,0.2,0.3,0.3,0.4c0.1,0.3,0.1,0.6,0,0.8
			c-0.2,0.4-0.7,0.7-1.1,0.6l-0.9-0.2l-12.2-3.6L619.5,571.4z"/>
		<path class="st31" d="M584.2,587.2l20.1,4.4l0.3,0.1c0.3,0.1,0.5,0.2,0.6,0.4l0,0c0.1,0.1,0.2,0.3,0.3,0.4c0.1,0.3,0.1,0.6,0,0.8
			c-0.2,0.4-0.7,0.7-1.1,0.6l-0.9-0.2l-12.2-3.6L584.2,587.2z"/>
		<path class="st31" d="M660.2,554.4l20.1,4.4l0.3,0.1c0.3,0.1,0.5,0.2,0.6,0.4l0,0c0.1,0.1,0.2,0.3,0.3,0.4c0.1,0.3,0.1,0.6,0,0.8
			c-0.2,0.4-0.7,0.7-1.1,0.6l-0.9-0.2l-12.2-3.6L660.2,554.4z"/>
		<path class="st31" d="M821,636.3l-4.5,11.6c-0.3,0.7-1.1,1.1-1.8,0.8L696,602.6l-8-3.1c-0.7-0.3-1.1-1.1-0.8-1.8l3.7-9.5l1.8-0.7
			c1.7-0.7,3.5-0.8,5.2-0.5h0l3.5,1.4l118.7,46.2C820.9,634.8,821.3,635.7,821,636.3L821,636.3z"/>
	</g>
	<path class="st31" d="M955.2,681.3c0,5.9-0.3,11.6-0.7,17.3c-1.9,23.9-7.4,45.8-15.5,64c-9.5,0.3-19.2,0.5-29.2,0.5
		c-34.5,0-66.6-1.9-93.7-5c-6.3-15.8-10.6-34.1-12.5-53.8c-0.7-7.8-1.1-15.7-1.1-23.9c0.3-38.3,9.6-72.7,24.3-97c1-1.6,2-3.2,3-4.7
		c2.8-4.2,5.9-8.1,9-11.6c11.9-13,25.9-20.5,40.8-20.4c14.4,0.1,27.8,7.2,39.2,19.5c3.2,3.4,6.2,7.3,9.1,11.5c1,1.5,2,3.1,3,4.7
		C946.2,606.9,955.5,642.2,955.2,681.3L955.2,681.3z"/>
	<g>
		<path class="st32" d="M883.5,726.5L883.5,726.5c0.3,0.3,0.3,0.7,0.1,1l-6.5,7.4c-0.3,0.3-0.7,0.3-1,0.1l0,0
			c-0.3-0.3-0.3-0.7-0.1-1l6.5-7.4C882.8,726.3,883.2,726.2,883.5,726.5z"/>
		<path class="st32" d="M884.1,734.3L884.1,734.3c-0.3,0.3-0.7,0.3-1,0.1l-7.4-6.5c-0.3-0.3-0.3-0.7-0.1-1l0,0
			c0.3-0.3,0.7-0.3,1-0.1l7.4,6.5C884.4,733.6,884.4,734,884.1,734.3z"/>
	</g>
	<g class="st33">
		<path class="st32" d="M883.9,727.8L883.9,727.8c0.3,0.3,0.3,0.7,0.1,1l-6.5,7.4c-0.3,0.3-0.7,0.3-1,0.1l0,0
			c-0.3-0.3-0.3-0.7-0.1-1l6.5-7.4C883.2,727.6,883.6,727.5,883.9,727.8z"/>
		<path class="st32" d="M884.5,735.6L884.5,735.6c-0.3,0.3-0.7,0.3-1,0.1l-7.4-6.5c-0.3-0.3-0.3-0.7-0.1-1l0,0
			c0.3-0.3,0.7-0.3,1-0.1l7.4,6.5C884.7,734.9,884.8,735.3,884.5,735.6z"/>
	</g>
	<path class="st8" d="M947.8,522.7c-0.2,1.3-0.4,2.5-0.7,3.8c-3.7,15.9-13.8,30.1-28.1,39.6c3.2,3.4,6.2,7.3,9.1,11.5
		c-2.8,2.6-5.8,5-9.1,7.2c-8.6,5.7-18.7,9.7-29.7,11.4c-18.5,2.8-36.3-1.4-50.3-10.5c-3.2-2.1-6.3-4.5-9-7.1c2.8-4.2,5.9-8.1,9-11.6
		c-13.3-8.6-23.1-21.7-26.7-37.5c-0.3-1.3-0.6-2.5-0.7-3.8c0.3-1.9,0.7-3.9,1.2-5.7c0.3-1.1,0.6-2.1,0.9-3.1
		c6.4-19.9,23.1-36.4,45.1-43.4c0.2-0.1,0.5-0.1,0.7-0.2c3.4-1.1,7-1.9,10.6-2.4C907.6,465.2,942.3,488.3,947.8,522.7L947.8,522.7z"
		/>
	<path class="st31" d="M947.8,522.7c-0.2,1.3-0.4,2.5-0.7,3.8c-3.7,15.9-13.8,30.1-28.1,39.6c-8.6,5.7-18.7,9.7-29.7,11.4
		c-18.5,2.8-36.3-1.4-50.3-10.5c-13.3-8.6-23.1-21.7-26.7-37.5c-0.3-1.3-0.6-2.5-0.7-3.8c0-0.2-0.1-0.3-0.1-0.4
		c-1.3-8.2-0.7-16.3,1.3-24c0.3-1.1,0.6-2.1,0.9-3.1c6.4-19.9,23.1-36.4,45.1-43.4c0.2-0.1,0.5-0.1,0.7-0.2c3.4-1.1,7-1.9,10.6-2.4
		c37.7-5.8,72.5,17.6,77.8,52.2C948.9,510.6,948.8,516.8,947.8,522.7L947.8,522.7z"/>
	<g>
		<path class="st20" d="M860.8,480.6c-2.4,5.9-6.6,11.5-12.4,15.8c-7.3,5.5-15.8,8.1-23.7,7.8c-4.2-0.1-8.3-1.1-12-2.9
			c0.3-1.1,0.6-2.1,0.9-3.1c-4.9-1.1-9.1-3.6-12.1-7.4c-7.2-12.8-2.4-30.5,11.5-41c14.8-11.2,34.5-10.2,44.4,2.1c0.5,1,0.9,2,1.3,3
			c0.2-0.1,0.5-0.1,0.7-0.2C864.2,462.3,864.4,471.9,860.8,480.6L860.8,480.6z"/>
		<path class="st34" d="M850.5,484.3c-1.9,2.1-4.1,4.1-6.5,6c-4,3-8.3,5.3-12.6,6.7c-6.2,2.1-12.4,2.5-17.8,1.2
			c-4.9-1.1-9.1-3.6-12.1-7.4c-0.1-0.1-0.2-0.2-0.3-0.4c-0.6-0.8-1.2-1.7-1.6-2.6c-0.3-0.6-0.3-0.6,0,0
			c-6.1-11.4-0.5-27.9,13.4-38.5c4.5-3.4,9.4-5.8,14.2-7.2c11.4-3.3,22.6-0.9,28.6,7c0.6,0.8,1.2,1.7,1.7,2.6c0.5,1,0.9,2,1.3,3
			C861.8,463.9,858.7,475.2,850.5,484.3L850.5,484.3z"/>
		<path class="st35" d="M832.7,469.6c-1.1,1.9-2.3,3.9-3.8,5.8c-2.7,3.5-5.7,6.5-8.7,8.9c-7.3,5.7-15,7.6-19.8,4.4
			c-0.1-0.1-0.2-0.1-0.3-0.2c-0.2-0.1-0.3-0.3-0.5-0.4c-0.1-0.1-0.1-0.1,0,0c-6.1-11.4-0.5-27.9,13.4-38.5c4.5-3.4,9.4-5.8,14.2-7.2
			c1,0,1.9,0,2.8,0.2c1.3,0.3,2.5,0.8,3.6,1.6C839.3,448.3,838.6,459,832.7,469.6L832.7,469.6z"/>
		<path class="st36" d="M859.9,461.3c0,0.9,0.6,6.2-0.8,7.4c-1.3-7.3-14.1-12.5-30-12.5s-27.1,7.1-30.6,13.2
			c-0.1-0.7-0.1-1.7,0.2-2.4c6.6-12.4,13.9-22.9,30.4-26.2S859.9,446.8,859.9,461.3L859.9,461.3z"/>
	</g>
	<g>
		<path class="st20" d="M899,480c2.4,5.9,6.6,11.5,12.4,15.8c7.3,5.5,15.8,8.1,23.7,7.8c4.2-0.1,8.3-1.1,12-2.9
			c-0.3-1.1-0.6-2.1-0.9-3.1c4.9-1.1,9.1-3.6,12.1-7.4c7.2-12.8,2.4-30.5-11.5-41c-14.8-11.2-34.5-10.2-44.4,2.1c-0.5,1-0.9,2-1.3,3
			c-0.2-0.1-0.5-0.1-0.7-0.2C895.7,461.7,895.4,471.2,899,480L899,480z"/>
		<path class="st34" d="M909.3,483.7c1.9,2.1,4.1,4.1,6.5,6c4,3,8.3,5.3,12.6,6.7c6.2,2.1,12.4,2.5,17.8,1.2
			c4.9-1.1,9.1-3.6,12.1-7.4c0.1-0.1,0.2-0.2,0.3-0.4c0.6-0.8,1.2-1.7,1.6-2.6c0.3-0.6,0.3-0.6,0,0c6.1-11.4,0.5-27.9-13.4-38.5
			c-4.5-3.4-9.4-5.8-14.2-7.2c-11.4-3.3-22.6-0.9-28.6,7c-0.6,0.8-1.2,1.7-1.7,2.6c-0.5,1-0.9,2-1.3,3
			C898,463.2,901.2,474.6,909.3,483.7L909.3,483.7z"/>
		<path class="st35" d="M927.1,468.9c1.1,1.9,2.3,3.9,3.8,5.8c2.7,3.5,5.7,6.5,8.7,8.9c7.3,5.7,15,7.6,19.8,4.4
			c0.1-0.1,0.2-0.1,0.3-0.2c0.2-0.1,0.3-0.3,0.5-0.4c0.1-0.1,0.1-0.1,0,0c6.1-11.4,0.5-27.9-13.4-38.5c-4.5-3.4-9.4-5.8-14.2-7.2
			c-1,0-1.9,0-2.8,0.2c-1.3,0.3-2.5,0.8-3.6,1.6C920.5,447.7,921.2,458.3,927.1,468.9L927.1,468.9z"/>
		<path class="st36" d="M899.9,460.6c0,0.9-0.6,6.2,0.8,7.4c1.3-7.3,14.1-12.5,30-12.5s27.1,7.1,30.6,13.2c0.1-0.7,0.1-1.7-0.2-2.4
			c-6.6-12.4-13.9-22.9-30.4-26.2S899.9,446.1,899.9,460.6L899.9,460.6z"/>
	</g>
	<path class="st31" d="M641.8,653.6l19.1-7.6l0.2-0.1c0.2-0.1,0.5-0.1,0.7-0.1l0,0c0.2,0,0.3,0.1,0.5,0.2c0.2,0.2,0.4,0.4,0.4,0.7
		c0.1,0.5-0.1,1-0.6,1.2l-0.8,0.3l-12.1,3.9L641.8,653.6z"/>
	<path class="st31" d="M632.1,679.8l19.1-7.6l0.2-0.1c0.2-0.1,0.5-0.1,0.7-0.1l0,0c0.2,0,0.3,0.1,0.5,0.2c0.2,0.2,0.4,0.4,0.4,0.7
		c0.1,0.5-0.1,1-0.6,1.2l-0.8,0.3l-12.1,3.9L632.1,679.8z"/>
	<path class="st31" d="M1106.6,612.1l-19.3-7.2l-0.2-0.1c-0.2-0.1-0.5-0.1-0.7-0.1l0,0c-0.2,0.1-0.3,0.1-0.4,0.2
		c-0.2,0.2-0.4,0.4-0.4,0.7c-0.1,0.5,0.2,1,0.6,1.1l0.8,0.3l12.2,3.6L1106.6,612.1z"/>
	<path class="st31" d="M1117.2,638l-19.3-7.2l-0.2-0.1c-0.2-0.1-0.5-0.1-0.7-0.1l0,0c-0.2,0.1-0.3,0.1-0.4,0.2
		c-0.2,0.2-0.4,0.4-0.4,0.7c-0.1,0.5,0.2,1,0.6,1.1l0.8,0.3l12.2,3.6L1117.2,638z"/>
	<path class="st31" d="M1127.7,660.1l-19.3-7.2l-0.2-0.1c-0.2-0.1-0.5-0.1-0.7-0.1l0,0c-0.2,0.1-0.3,0.1-0.4,0.2
		c-0.2,0.2-0.4,0.4-0.4,0.7c-0.1,0.5,0.2,1,0.6,1.1l0.8,0.3l12.2,3.6L1127.7,660.1z"/>
	<path class="st31" d="M1093.5,541.4l-19.3,7.2l-0.2,0.1c-0.2,0.1-0.5,0.1-0.7,0.1l0,0c-0.2-0.1-0.3-0.1-0.4-0.2
		c-0.2-0.2-0.4-0.4-0.4-0.7c-0.1-0.5,0.2-1,0.6-1.1l0.8-0.3l12.2-3.6L1093.5,541.4z"/>
	<path class="st31" d="M1106.6,518.5l-19.3,7.2l-0.2,0.1c-0.2,0.1-0.5,0.1-0.7,0.1l0,0c-0.2-0.1-0.3-0.1-0.4-0.2
		c-0.2-0.2-0.4-0.4-0.4-0.7c-0.1-0.5,0.2-1,0.6-1.1l0.8-0.3l12.2-3.6L1106.6,518.5z"/>
	<path class="st31" d="M1121.6,494.6l-19.3,7.2l-0.2,0.1c-0.2,0.1-0.5,0.1-0.7,0.1l0,0c-0.2-0.1-0.3-0.1-0.4-0.2
		c-0.2-0.2-0.4-0.4-0.4-0.7c-0.1-0.5,0.2-1,0.6-1.1l0.8-0.3l12.2-3.6L1121.6,494.6z"/>
	<g>
		<path class="st37" d="M1180.9,340.9l-0.6,1.2l-0.2,0.3l-0.7,1.3l-1.3,2.4l-48.2,91.8c-4.8,9.1-17.7,9.6-23.2,0.9l-55.4-87.7
			l-1.4-2.3l-0.8-1.2l-0.2-0.3l-0.7-1.1L1180.9,340.9L1180.9,340.9z"/>
		<path class="st38" d="M1154.3,376.2l-0.3,0.7l-0.1,0.2l-0.4,0.7l-0.7,1.4l-27.9,53.1c-2.8,5.3-10.2,5.6-13.4,0.5l-32-50.7
			l-0.8-1.3l-0.5-0.7l-0.1-0.2l-0.4-0.6c7.6,1.3,22,1.8,38.5,1.2C1132.5,379.7,1146.8,378.1,1154.3,376.2L1154.3,376.2z"/>
		
			<rect x="1115.4" y="438.4" transform="matrix(0.9992 -3.995740e-02 3.995740e-02 0.9992 -18.3249 45.1448)" class="st37" width="9.5" height="85.2"/>
		<path class="st39" d="M1180.9,340.7l-0.6,1.6c-0.1,0.1-0.2,0.2-0.3,0.3c-0.6,0.7-1.6,1.3-2.9,2c-9,4.6-33.4,8.6-62.1,9.7
			c-28.7,1.2-53.4-0.9-62.7-4.7c-1.3-0.5-2.3-1.1-3-1.7c-0.1-0.1-0.2-0.2-0.3-0.3l-0.7-1.5c-0.2-6,29.3-12,65.9-13.5
			C1150.8,331,1180.7,334.7,1180.9,340.7z"/>
		<path class="st37" d="M1176.3,341.1l-0.6,1.2c-0.1,0.1-0.2,0.2-0.3,0.2c-0.6,0.5-1.5,1-2.7,1.4c-8.4,3.4-31.1,6.5-57.8,7.6
			c-26.7,1.1-49.6-0.2-58.3-2.9c-1.2-0.4-2.2-0.8-2.8-1.2c-0.1,0-0.2-0.1-0.3-0.2l-0.7-1.1c-0.2-4.4,27.3-9,61.4-10.4
			C1148.3,334.3,1176.1,336.7,1176.3,341.1L1176.3,341.1z"/>
		<path class="st38" d="M1154.1,372.5l-0.3,0.8c0,0-0.1,0.1-0.2,0.2c-0.4,0.3-0.9,0.6-1.7,1c-5.2,2.3-19.3,4.3-35.9,5
			s-30.8-0.2-36.2-2.1c-0.8-0.3-1.3-0.5-1.7-0.8c-0.1,0-0.1-0.1-0.2-0.1l-0.4-0.7c-0.1-2.9,17-6,38.1-6.8
			C1136.8,367.9,1154,369.5,1154.1,372.5L1154.1,372.5z"/>
		<polygon class="st37" points="1161.5,537.3 1083.3,540.4 1086.1,538.6 1121.5,515.4 1158.6,535.7 		"/>
		<path class="st8" d="M1161.5,537.3l0.1,1.7c0.1,2.6-17.3,5.4-38.9,6.2c-21.6,0.9-39.2-0.5-39.3-3.1l-0.1-1.7L1161.5,537.3z"/>
		<path class="st37" d="M1161.5,537.3c0.1,2.6-17.3,5.4-38.9,6.2c-21.6,0.9-39.2-0.5-39.3-3.1l2.8-1.9c5.8-1.9,19.7-3.7,36.1-4.3
			c16.4-0.7,30.5,0,36.3,1.4L1161.5,537.3z"/>
		<path class="st40" d="M1130.6,394.7l-16.6-10.1l-25.4-19.9l-1.7-1.5c-0.1-0.1-0.1-0.1-0.1-0.2c-0.1,0-0.2-0.1-0.3-0.2l-0.5-0.4
			l-38.8-35l16.6,10.1l25.4,19.9l1.7,1.5c0.1,0.1,0.2,0.2,0.2,0.3c0.1,0,0.1,0.1,0.2,0.1l0.5,0.5L1130.6,394.7L1130.6,394.7z"/>
		<g>
			
				<ellipse transform="matrix(0.6929 -0.721 0.721 0.6929 65.625 921.6748)" class="st41" cx="1114.8" cy="383.8" rx="13.1" ry="10.1"/>
			
				<ellipse transform="matrix(0.6929 -0.721 0.721 0.6929 72.9068 924.4575)" class="st42" cx="1121.7" cy="376.6" rx="2.2" ry="4.5"/>
			<ellipse transform="matrix(0.6929 -0.721 0.721 0.6929 73.3046 924.5959)" class="st43" cx="1122.1" cy="376.2" rx="2" ry="4"/>
		</g>
		<g>
			
				<ellipse transform="matrix(0.6929 -0.721 0.721 0.6929 72.3656 903.9538)" class="st41" cx="1097.4" cy="367" rx="13.1" ry="10.1"/>
			<g>
				<path class="st32" d="M1105.2,361.7L1105.2,361.7c-0.2,0-0.3-0.2-0.3-0.3l-0.7-4.3c0-0.2,0.1-0.3,0.2-0.3l0,0
					c0.2,0,0.3,0.2,0.3,0.3l0.7,4.3C1105.4,361.6,1105.3,361.7,1105.2,361.7z"/>
				<path class="st32" d="M1102.7,359.2L1102.7,359.2c0-0.2,0.1-0.3,0.2-0.3l3.6,0.2c0.2,0,0.3,0.2,0.3,0.3l0,0
					c0,0.2-0.1,0.3-0.2,0.3l-3.6-0.2C1102.8,359.5,1102.7,359.3,1102.7,359.2z"/>
			</g>
			<g class="st33">
				<path class="st32" d="M1105.6,362L1105.6,362c-0.2,0-0.3-0.2-0.3-0.3l-0.7-4.3c0-0.2,0.1-0.3,0.2-0.3l0,0c0.2,0,0.3,0.2,0.3,0.3
					l0.7,4.3C1105.9,361.9,1105.8,362,1105.6,362z"/>
				<path class="st32" d="M1103.1,359.5L1103.1,359.5c0-0.2,0.1-0.3,0.2-0.3l3.6,0.2c0.2,0,0.3,0.2,0.3,0.3l0,0
					c0,0.2-0.1,0.3-0.2,0.3l-3.6-0.2C1103.3,359.8,1103.2,359.7,1103.1,359.5z"/>
			</g>
		</g>
		<g>
			
				<ellipse transform="matrix(0.6783 -0.7348 0.7348 0.6783 80.5624 931.2739)" class="st40" cx="1103.8" cy="373.6" rx="2.3" ry="1.4"/>
			
				<rect x="1101.9" y="373.5" transform="matrix(0.6332 -0.774 0.774 0.6332 115.4402 991.7768)" class="st40" width="4.6" height="1.2"/>
		</g>
		
			<ellipse transform="matrix(0.6225 -0.7826 0.7826 0.6225 119.5685 1025.1626)" class="st40" cx="1122.5" cy="388.6" rx="1" ry="0.6"/>
		
			<rect x="1122.1" y="388.6" transform="matrix(0.6225 -0.7826 0.7826 0.6225 119.4517 1025.7185)" class="st40" width="1.7" height="0.9"/>
		<path class="st44" d="M1181,340.9l-0.6,1.2l-0.2,0.3l-0.7,1.3l-1.3,2.4l-48.2,91.8c-4.8,9.1-17.7,9.6-23.2,0.9l-55.4-87.7
			l-1.4-2.3l-0.8-1.2l-0.2-0.3l-0.7-1.1l3-0.1l0.5,0.9c0.1,0.1,0.2,0.2,0.3,0.2c0.6,0.5,1.5,0.9,2.8,1.2c8.7,2.7,31.6,4,58.3,2.9
			c26.7-1.1,49.4-4.2,57.8-7.6c1.2-0.5,2.1-1,2.7-1.5c0.1-0.1,0.2-0.1,0.3-0.2l0.4-0.9L1181,340.9L1181,340.9z"/>
	</g>
	<path class="st45" d="M1422.8,847.8c-79.1,35.4-248.5,59.9-444.8,59.9c-271.9,0-492.3-47-492.3-105c0-21.2,29.5-41,80.2-57.5
		c-30.5,13.6-47.6,28.9-47.6,45.1c0,58,220.4,105,492.3,105C1183.1,895.4,1334.9,876.4,1422.8,847.8L1422.8,847.8z"/>
	<path class="st45" d="M1429.2,794.3c0,41.6-188.6,75.3-421.3,75.3c-135.2,0-255.5-11.4-332.6-29.1c75.2,12.5,176.1,20.2,287.1,20.2
		c232.7,0,421.3-33.7,421.3-75.3c0-17.4-33.1-33.5-88.7-46.2C1377.5,753,1429.2,772.6,1429.2,794.3L1429.2,794.3z"/>
	<path class="st45" d="M712.3,791.5C746,803.6,818.1,812,901.6,812c115.7,0,209.5-16.1,209.5-35.9c0-7.3-12.6-14-34.1-19.7
		c13,4.7,20.2,9.9,20.2,15.4c0,19.8-93.8,35.9-209.5,35.9C814.3,807.8,749.8,801.3,712.3,791.5L712.3,791.5z"/>
	<path class="st45" d="M678.8,758.4c0,14.2,80.3,25.8,179.2,25.8c57.5,0,108.7-3.9,141.5-10c-32,4.3-75,6.9-122.1,6.9
		c-99,0-179.2-11.5-179.2-25.8c0-6,14.1-11.4,37.7-15.8C700.7,744.3,678.8,751,678.8,758.4L678.8,758.4z"/>
</g>
</svg>
