<?xml version="1.0" encoding="UTF-8"?>
<svg xmlns="http://www.w3.org/2000/svg" viewBox="0 0 1921 1080.5">
  <defs>
    <style>
      .cls-1, .cls-2, .cls-3, .cls-4 {
        opacity: .1;
      }

      .cls-1, .cls-3, .cls-4, .cls-5, .cls-6, .cls-7, .cls-8, .cls-9, .cls-10, .cls-11, .cls-12, .cls-13, .cls-14, .cls-15, .cls-16, .cls-17, .cls-18, .cls-19, .cls-20, .cls-21, .cls-22, .cls-23, .cls-24, .cls-25, .cls-26, .cls-27, .cls-28, .cls-29 {
        stroke-width: 0px;
      }

      .cls-2, .cls-30, .cls-31 {
        stroke: #999;
        stroke-miterlimit: 10;
      }

      .cls-3, .cls-11 {
        fill: #221f1f;
      }

      .cls-4 {
        fill: #231f20;
      }

      .cls-30, .cls-24 {
        fill: #fff;
      }

      .cls-31 {
        fill: #4f4e4d;
      }

      .cls-5, .cls-6, .cls-7 {
        opacity: .5;
      }

      .cls-5, .cls-14 {
        fill: #d2ecf0;
      }

      .cls-6 {
        fill: #a8c1c3;
      }

      .cls-7 {
        fill: #eeccaf;
      }

      .cls-32 {
        opacity: .9;
      }

      .cls-33 {
        opacity: .8;
      }

      .cls-8 {
        fill: #60574c;
      }

      .cls-9 {
        fill: #5b585a;
      }

      .cls-10 {
        fill: #86b171;
      }

      .cls-12 {
        fill: #cb9e64;
      }

      .cls-13 {
        fill: #d6ac7f;
      }

      .cls-15 {
        fill: #d8dbdc;
      }

      .cls-16 {
        fill: #9da5a7;
      }

      .cls-17 {
        fill: #9ea0a1;
      }

      .cls-18 {
        fill: #998068;
      }

      .cls-19 {
        fill: #6b885b;
      }

      .cls-20 {
        fill: #929799;
      }

      .cls-21 {
        fill: #847d7f;
      }

      .cls-22 {
        fill: #855939;
      }

      .cls-23 {
        fill: #71c065;
      }

      .cls-25 {
        fill: #eeba6f;
      }

      .cls-26 {
        fill: #ecb377;
      }

      .cls-27 {
        fill: #ec9f7a;
      }

      .cls-28 {
        fill: #f5e2da;
      }

      .cls-29 {
        fill: #e9732f;
      }
    </style>
  </defs>
  <g id="Layer_1" data-name="Layer 1">
    <rect class="cls-31" x=".5" y=".5" width="1920" height="399.49"/>
    <rect class="cls-13" x=".5" y="460.29" width="1920" height="620.21"/>
    <rect class="cls-1" x=".5" y="420.05" width="1920" height="60.31"/>
    <rect class="cls-18" x=".5" y="399.98" width="1920" height="60.31"/>
    <g>
      <path class="cls-30" d="m312.72,232.85v156.66c0,5.78-4.69,10.47-10.47,10.47H.5v-177.6h301.75c.17,0,.33,0,.5.01h.04c5.53.28,9.93,4.86,9.93,10.46Z"/>
      <path class="cls-2" d="m312.72,236.29c0,1.19-.11,2.35-.33,3.45-1.16-6-5.26-10.42-10.15-10.42H.5v-6.95h301.74c.17,0,.34.01.51.02h.04c5.53.38,9.93,6.45,9.93,13.9Z"/>
    </g>
    <g>
      <rect class="cls-30" x="312.72" y="222.38" width="450.53" height="177.61" rx="10.47" ry="10.47"/>
      <path class="cls-2" d="m763.25,236.29c0,1.19-.11,2.35-.33,3.45-1.16-6-5.26-10.42-10.15-10.42h-429.58c-2.89,0-5.51,1.55-7.4,4.06-1.31,1.74-2.27,3.92-2.74,6.36-.22-1.1-.33-2.26-.33-3.45,0-3.84,1.17-7.31,3.07-9.84,1.89-2.52,4.51-4.08,7.4-4.08h429.58c5.79,0,10.48,6.23,10.48,13.91Z"/>
    </g>
    <g>
      <rect class="cls-30" x="763.25" y="222.38" width="450.53" height="177.61" rx="10.47" ry="10.47"/>
      <path class="cls-2" d="m1213.78,236.29c0,1.19-.11,2.35-.33,3.45-1.16-6-5.26-10.42-10.15-10.42h-429.58c-2.89,0-5.51,1.55-7.4,4.06-1.31,1.74-2.27,3.92-2.74,6.36-.22-1.1-.33-2.26-.33-3.45,0-3.84,1.17-7.31,3.07-9.84,1.89-2.52,4.51-4.08,7.4-4.08h429.58c5.79,0,10.48,6.23,10.48,13.91Z"/>
    </g>
    <g>
      <rect class="cls-30" x="1213.78" y="222.38" width="450.53" height="177.61" rx="10.47" ry="10.47"/>
      <path class="cls-2" d="m1664.31,236.29c0,1.19-.11,2.35-.33,3.45-1.16-6-5.26-10.42-10.15-10.42h-429.58c-2.89,0-5.51,1.55-7.4,4.06-1.31,1.74-2.27,3.92-2.74,6.36-.22-1.1-.33-2.26-.33-3.45,0-3.84,1.17-7.31,3.07-9.84,1.89-2.52,4.51-4.08,7.4-4.08h429.58c5.79,0,10.48,6.23,10.48,13.91Z"/>
    </g>
    <g>
      <path class="cls-30" d="m1920.5,222.38v177.61h-245.72c-.18,0-.36,0-.54-.01-5.53-.28-9.93-4.86-9.93-10.46v-156.66c0-5.79,4.69-10.48,10.47-10.48h245.72Z"/>
      <path class="cls-2" d="m1920.5,222.38v6.94h-245.72c-2.89,0-5.51,1.56-7.4,4.07-1.31,1.73-2.27,3.91-2.74,6.35-.22-1.1-.33-2.25-.33-3.45,0-3.83,1.17-7.31,3.07-9.83,1.89-2.53,4.51-4.08,7.4-4.08h245.72Z"/>
    </g>
    <g>
      <rect class="cls-30" x="87.46" y="44.77" width="450.53" height="177.61" rx="10.47" ry="10.47"/>
      <path class="cls-2" d="m537.99,58.67c0,1.19-.11,2.35-.33,3.45-1.16-6-5.26-10.42-10.15-10.42H97.93c-2.89,0-5.51,1.55-7.4,4.06-1.31,1.74-2.27,3.92-2.74,6.36-.22-1.1-.33-2.26-.33-3.45,0-3.84,1.17-7.31,3.07-9.84,1.89-2.52,4.51-4.08,7.4-4.08h429.58c5.79,0,10.48,6.23,10.48,13.91Z"/>
    </g>
    <g>
      <path class="cls-30" d="m87.45,55.24v156.66c0,5.78-4.68,10.47-10.47,10.47H.5V44.77h76.48c.18,0,.36,0,.54.01,5.54.28,9.93,4.86,9.93,10.46Z"/>
      <path class="cls-2" d="m87.46,58.67h0c0,.16,0,.31-.01.45-.02,1.04-.13,2.04-.32,3.01-1.16-6-5.26-10.42-10.15-10.42H.5v-6.95h76.48c.18,0,.36,0,.54.02,5.36.36,9.65,6.06,9.93,13.18.01.24.01.47.01.71Z"/>
    </g>
    <g>
      <rect class="cls-30" x="537.99" y="44.77" width="450.53" height="177.61" rx="10.47" ry="10.47"/>
      <path class="cls-2" d="m988.51,58.68c0,1.19-.11,2.35-.33,3.45-1.16-6-5.26-10.42-10.15-10.42h-429.58c-2.89,0-5.51,1.55-7.4,4.06-1.31,1.74-2.27,3.92-2.74,6.36-.22-1.1-.33-2.26-.33-3.45,0-3.84,1.17-7.31,3.07-9.84,1.89-2.52,4.51-4.08,7.4-4.08h429.58c5.79,0,10.48,6.23,10.48,13.91Z"/>
    </g>
    <g>
      <rect class="cls-30" x="988.52" y="44.77" width="450.53" height="177.61" rx="10.47" ry="10.47"/>
      <path class="cls-2" d="m1439.04,58.68c0,1.19-.11,2.35-.33,3.45-1.16-6-5.26-10.42-10.15-10.42h-429.58c-2.89,0-5.51,1.55-7.4,4.06-1.31,1.74-2.27,3.92-2.74,6.36-.22-1.1-.33-2.26-.33-3.45,0-3.84,1.17-7.31,3.07-9.84,1.89-2.52,4.51-4.08,7.4-4.08h429.58c5.79,0,10.48,6.23,10.48,13.91Z"/>
    </g>
    <g>
      <rect class="cls-30" x="1439.04" y="44.77" width="450.53" height="177.61" rx="10.47" ry="10.47"/>
      <path class="cls-2" d="m1889.57,58.68c0,1.19-.11,2.35-.33,3.45-1.16-6-5.26-10.42-10.15-10.42h-429.58c-2.89,0-5.51,1.55-7.4,4.06-1.31,1.74-2.27,3.92-2.74,6.36-.22-1.1-.33-2.26-.33-3.45,0-3.84,1.17-7.31,3.07-9.84,1.89-2.52,4.51-4.08,7.4-4.08h429.58c5.79,0,10.48,6.23,10.48,13.91Z"/>
    </g>
    <g>
      <path class="cls-30" d="m1920.5,44.77v177.61h-20.45c-5.79,0-10.48-4.69-10.48-10.48V55.24c.01-5.78,4.68-10.46,10.46-10.47h20.47Z"/>
      <path class="cls-2" d="m1920.5,44.77v6.94h-20.46c-2.89,0-5.51,1.55-7.4,4.06-1.31,1.74-2.27,3.92-2.74,6.36-.22-1.1-.33-2.26-.33-3.45,0-3.84,1.17-7.31,3.07-9.84,1.89-2.52,4.5-4.07,7.39-4.07h20.47Z"/>
    </g>
    <path class="cls-30" d="m.5.5h312.22v33.78c0,5.79-4.69,10.47-10.47,10.47H.5V.5Z"/>
    <path class="cls-30" d="m763.25.5v33.78c0,5.79-4.69,10.48-10.47,10.48h-429.58c-5.79,0-10.48-4.69-10.48-10.48V.5h450.53Z"/>
    <path class="cls-30" d="m763.25.5h450.53v33.79c-.01,5.79-4.69,10.47-10.47,10.47h-429.58c-5.79,0-10.48-4.69-10.48-10.48V.5Z"/>
    <path class="cls-30" d="m1664.31.5v33.79c0,5.78-4.69,10.47-10.48,10.47h-429.58c-5.78,0-10.47-4.69-10.47-10.47V.5h450.53Z"/>
    <path class="cls-30" d="m1920.5.5v44.26h-245.72c-5.78,0-10.47-4.69-10.47-10.47V.5h256.19Z"/>
  </g>
  <g id="Layer_2" data-name="Layer 2">
    <g>
      <path class="cls-4" d="m395.54,556.87c0,14.42-41.91,26.09-93.62,26.09s-93.61-11.68-93.61-26.09h187.22Z"/>
      <rect class="cls-4" x="208.32" y="541.6" width="187.22" height="15.27"/>
      <g>
        <path class="cls-25" d="m428.39,338.93l-2.28,13.93-6.06,36.98-24.5,149.45c0,6.36-5.14,11.5-11.5,11.5h-164.23c-6.36,0-11.5-5.14-11.5-11.5l-24.5-149.45-6.83-41.68-1.51-9.23c0-1.77.39-3.43,1.12-4.93,1.3-2.78,3.7-4.93,6.62-5.93,1.17-.43,2.43-.64,3.76-.64h229.92c2.99,0,5.68,1.12,7.72,2.99,1.12.99,2.02,2.22,2.66,3.58.72,1.49,1.12,3.15,1.12,4.93Z"/>
        <path class="cls-12" d="m451.38,301.15v25.46c0,.28-.02.56-.03.82-.13,2.23-.85,4.43-2.12,6.57H154.63c-1.26-2.13-1.99-4.34-2.12-6.57-.02-.26-.03-.54-.03-.82v-25.46h298.9Z"/>
        <path class="cls-12" d="m451.38,326.61c0,.28-.02.56-.03.82-.13,2.23-.85,4.43-2.12,6.57-4.11,7-13.94,13.42-28.05,18.85-27.28,10.49-70.55,17.28-119.25,17.28-55.62,0-104.15-8.84-129.87-21.97-8.46-4.3-14.45-9.08-17.42-14.16-1.26-2.13-1.99-4.34-2.12-6.57-.02-.26-.03-.54-.03-.82,0-3.97,1.84-7.83,5.27-11.5,4.76-5.09,12.61-9.8,22.94-13.96.57-.23,1.17-.46,1.76-.71h.02c27.28-10.54,70.63-17.36,119.46-17.36s92.18,6.82,119.46,17.36h.02c.59.25,1.18.48,1.76.71,10.33,4.15,18.18,8.87,22.94,13.96,3.43,3.66,5.27,7.52,5.27,11.5Z"/>
        <path class="cls-25" d="m451.38,303.62c0,3.97-1.84,7.83-5.27,11.5-4.14,4.43-10.64,8.57-19.07,12.32-2.3,1.03-4.76,2.02-7.36,2.99-3.37,1.25-6.95,2.45-10.76,3.58-27.15,8.11-65.05,13.14-107,13.14s-79.85-5.03-107-13.14c-6.13-1.82-11.71-3.81-16.65-5.93-.49-.21-.99-.43-1.46-.64-8.42-3.74-14.93-7.88-19.07-12.32-3.43-3.66-5.27-7.52-5.27-11.5,0-.82.08-1.66.25-2.46,4.38-22.89,69.5-41.06,149.2-41.06s144.82,18.16,149.2,41.06c.16.8.25,1.64.25,2.46Z"/>
        <ellipse class="cls-22" cx="301.93" cy="306.08" rx="121.25" ry="32.85"/>
        <rect class="cls-10" x="205.04" y="235.46" width="3.28" height="64.05" rx=".74" ry=".74" transform="translate(413.36 534.98) rotate(180)"/>
        <rect class="cls-10" x="234.6" y="189.48" width="3.28" height="128.1" rx=".74" ry=".74" transform="translate(472.48 507.06) rotate(180)"/>
        <rect class="cls-10" x="254.3" y="151.71" width="3.28" height="142.88" rx=".74" ry=".74" transform="translate(511.89 446.29) rotate(180)"/>
        <ellipse class="cls-25" cx="301.93" cy="542.57" rx="93.61" ry="19.71"/>
        <g>
          <g class="cls-33">
            <path class="cls-23" d="m247.02,197.17c5.28,1.28,10.52.14,14.36-2.67-2.12-4.26-6.25-7.69-11.53-8.97-5.28-1.28-10.52-.14-14.36,2.67,2.12,4.26,6.25,7.69,11.53,8.97Z"/>
            <path class="cls-10" d="m247.02,197.17c5.28,1.28,10.52.14,14.36-2.67-2.12-4.26-6.25-7.69-11.53-8.97-5.28-1.28-10.52-.14-14.36,2.67,2.12,4.26,6.25,7.69,11.53,8.97Z"/>
            <path class="cls-19" d="m247.02,197.17c5.28,1.28,10.52.14,14.36-2.67l-25.89-6.3c2.12,4.26,6.25,7.69,11.53,8.97Z"/>
          </g>
          <g class="cls-33">
            <path class="cls-23" d="m224.87,194.58c-4.63.33-8.89-1.45-11.73-4.48,2.38-3.41,6.34-5.78,10.97-6.11,4.63-.33,8.89,1.45,11.73,4.48-2.38,3.41-6.34,5.78-10.97,6.11Z"/>
            <path class="cls-10" d="m224.87,194.58c-4.63.33-8.89-1.45-11.73-4.48,2.38-3.41,6.34-5.78,10.97-6.11,4.63-.33,8.89,1.45,11.73,4.48-2.38,3.41-6.34,5.78-10.97,6.11Z"/>
            <path class="cls-19" d="m224.87,194.58c-4.63.33-8.89-1.45-11.73-4.48l22.69-1.63c-2.38,3.41-6.34,5.78-10.97,6.11Z"/>
          </g>
          <g>
            <path class="cls-23" d="m240.5,187.3c1.34-1.17,1.96-2.86,1.84-4.53-1.64-.36-3.4.02-4.74,1.19s-1.96,2.86-1.84,4.53c1.64.36,3.4-.02,4.74-1.19Z"/>
            <path class="cls-10" d="m240.5,187.3c1.34-1.17,1.96-2.86,1.84-4.53-1.64-.36-3.4.02-4.74,1.19s-1.96,2.86-1.84,4.53c1.64.36,3.4-.02,4.74-1.19Z"/>
            <path class="cls-19" d="m240.5,187.3c1.34-1.17,1.96-2.86,1.84-4.53l-6.58,5.72c1.64.36,3.4-.02,4.74-1.19Z"/>
          </g>
          <g>
            <path class="cls-23" d="m232.57,187.66c.92.77,2.07,1.06,3.12.86.01-1.07-.46-2.16-1.37-2.93s-2.07-1.06-3.12-.86c-.01,1.07.46,2.16,1.37,2.93Z"/>
            <path class="cls-10" d="m232.57,187.66c.92.77,2.07,1.06,3.12.86.01-1.07-.46-2.16-1.37-2.93s-2.07-1.06-3.12-.86c-.01,1.07.46,2.16,1.37,2.93Z"/>
            <path class="cls-19" d="m232.57,187.66c.92.77,2.07,1.06,3.12.86l-4.5-3.8c-.01,1.07.46,2.16,1.37,2.93Z"/>
          </g>
          <g>
            <path class="cls-23" d="m236.04,190.07c.25-.61.18-1.27-.13-1.8-.59.16-1.1.59-1.35,1.2s-.18,1.27.13,1.8c.59-.16,1.1-.59,1.35-1.2Z"/>
            <path class="cls-10" d="m236.04,190.07c.25-.61.18-1.27-.13-1.8-.59.16-1.1.59-1.35,1.2s-.18,1.27.13,1.8c.59-.16,1.1-.59,1.35-1.2Z"/>
            <path class="cls-19" d="m236.04,190.07c.25-.61.18-1.27-.13-1.8l-1.23,3c.59-.16,1.1-.59,1.35-1.2Z"/>
          </g>
        </g>
        <g>
          <g class="cls-33">
            <path class="cls-23" d="m217.46,243.15c5.28,1.28,10.52.14,14.36-2.67-2.12-4.26-6.25-7.69-11.53-8.97-5.28-1.28-10.52-.14-14.36,2.67,2.12,4.26,6.25,7.69,11.53,8.97Z"/>
            <path class="cls-10" d="m217.46,243.15c5.28,1.28,10.52.14,14.36-2.67-2.12-4.26-6.25-7.69-11.53-8.97-5.28-1.28-10.52-.14-14.36,2.67,2.12,4.26,6.25,7.69,11.53,8.97Z"/>
            <path class="cls-19" d="m217.46,243.15c5.28,1.28,10.52.14,14.36-2.67l-25.89-6.3c2.12,4.26,6.25,7.69,11.53,8.97Z"/>
          </g>
          <g class="cls-33">
            <path class="cls-23" d="m195.31,240.57c-4.63.33-8.89-1.45-11.73-4.48,2.38-3.41,6.34-5.78,10.97-6.11,4.63-.33,8.89,1.45,11.73,4.48-2.38,3.41-6.34,5.78-10.97,6.11Z"/>
            <path class="cls-10" d="m195.31,240.57c-4.63.33-8.89-1.45-11.73-4.48,2.38-3.41,6.34-5.78,10.97-6.11,4.63-.33,8.89,1.45,11.73,4.48-2.38,3.41-6.34,5.78-10.97,6.11Z"/>
            <path class="cls-19" d="m195.31,240.57c-4.63.33-8.89-1.45-11.73-4.48l22.69-1.63c-2.38,3.41-6.34,5.78-10.97,6.11Z"/>
          </g>
          <g>
            <path class="cls-23" d="m210.94,233.28c1.34-1.17,1.96-2.86,1.84-4.53-1.64-.36-3.4.02-4.74,1.19s-1.96,2.86-1.84,4.53c1.64.36,3.4-.02,4.74-1.19Z"/>
            <path class="cls-10" d="m210.94,233.28c1.34-1.17,1.96-2.86,1.84-4.53-1.64-.36-3.4.02-4.74,1.19s-1.96,2.86-1.84,4.53c1.64.36,3.4-.02,4.74-1.19Z"/>
            <path class="cls-19" d="m210.94,233.28c1.34-1.17,1.96-2.86,1.84-4.53l-6.58,5.72c1.64.36,3.4-.02,4.74-1.19Z"/>
          </g>
          <g>
            <path class="cls-23" d="m203,233.65c.92.77,2.07,1.06,3.12.86.01-1.07-.46-2.16-1.37-2.93s-2.07-1.06-3.12-.86c-.01,1.07.46,2.16,1.37,2.93Z"/>
            <path class="cls-10" d="m203,233.65c.92.77,2.07,1.06,3.12.86.01-1.07-.46-2.16-1.37-2.93s-2.07-1.06-3.12-.86c-.01,1.07.46,2.16,1.37,2.93Z"/>
            <path class="cls-19" d="m203,233.65c.92.77,2.07,1.06,3.12.86l-4.5-3.8c-.01,1.07.46,2.16,1.37,2.93Z"/>
          </g>
          <g>
            <path class="cls-23" d="m206.47,236.06c.25-.61.18-1.27-.13-1.8-.59.16-1.1.59-1.35,1.2s-.18,1.27.13,1.8c.59-.16,1.1-.59,1.35-1.2Z"/>
            <path class="cls-10" d="m206.47,236.06c.25-.61.18-1.27-.13-1.8-.59.16-1.1.59-1.35,1.2s-.18,1.27.13,1.8c.59-.16,1.1-.59,1.35-1.2Z"/>
            <path class="cls-19" d="m206.47,236.06c.25-.61.18-1.27-.13-1.8l-1.23,3c.59-.16,1.1-.59,1.35-1.2Z"/>
          </g>
        </g>
        <g>
          <g class="cls-33">
            <path class="cls-23" d="m266.73,161.03c5.28,1.28,10.52.14,14.36-2.67-2.12-4.26-6.25-7.69-11.53-8.97-5.28-1.28-10.52-.14-14.36,2.67,2.12,4.26,6.25,7.69,11.53,8.97Z"/>
            <path class="cls-10" d="m266.73,161.03c5.28,1.28,10.52.14,14.36-2.67-2.12-4.26-6.25-7.69-11.53-8.97-5.28-1.28-10.52-.14-14.36,2.67,2.12,4.26,6.25,7.69,11.53,8.97Z"/>
            <path class="cls-19" d="m266.73,161.03c5.28,1.28,10.52.14,14.36-2.67l-25.89-6.3c2.12,4.26,6.25,7.69,11.53,8.97Z"/>
          </g>
          <g class="cls-33">
            <path class="cls-23" d="m244.58,158.45c-4.63.33-8.89-1.45-11.73-4.48,2.38-3.41,6.34-5.78,10.97-6.11,4.63-.33,8.89,1.45,11.73,4.48-2.38,3.41-6.34,5.78-10.97,6.11Z"/>
            <path class="cls-10" d="m244.58,158.45c-4.63.33-8.89-1.45-11.73-4.48,2.38-3.41,6.34-5.78,10.97-6.11,4.63-.33,8.89,1.45,11.73,4.48-2.38,3.41-6.34,5.78-10.97,6.11Z"/>
            <path class="cls-19" d="m244.58,158.45c-4.63.33-8.89-1.45-11.73-4.48l22.69-1.63c-2.38,3.41-6.34,5.78-10.97,6.11Z"/>
          </g>
          <g>
            <path class="cls-23" d="m260.21,151.17c1.34-1.17,1.96-2.86,1.84-4.53-1.64-.36-3.4.02-4.74,1.19s-1.96,2.86-1.84,4.53c1.64.36,3.4-.02,4.74-1.19Z"/>
            <path class="cls-10" d="m260.21,151.17c1.34-1.17,1.96-2.86,1.84-4.53-1.64-.36-3.4.02-4.74,1.19s-1.96,2.86-1.84,4.53c1.64.36,3.4-.02,4.74-1.19Z"/>
            <path class="cls-19" d="m260.21,151.17c1.34-1.17,1.96-2.86,1.84-4.53l-6.58,5.72c1.64.36,3.4-.02,4.74-1.19Z"/>
          </g>
          <g>
            <path class="cls-23" d="m252.27,151.53c.92.77,2.07,1.06,3.12.86.01-1.07-.46-2.16-1.37-2.93s-2.07-1.06-3.12-.86c-.01,1.07.46,2.16,1.37,2.93Z"/>
            <path class="cls-10" d="m252.27,151.53c.92.77,2.07,1.06,3.12.86.01-1.07-.46-2.16-1.37-2.93s-2.07-1.06-3.12-.86c-.01,1.07.46,2.16,1.37,2.93Z"/>
            <path class="cls-19" d="m252.27,151.53c.92.77,2.07,1.06,3.12.86l-4.5-3.8c-.01,1.07.46,2.16,1.37,2.93Z"/>
          </g>
          <g>
            <path class="cls-23" d="m255.74,153.94c.25-.61.18-1.27-.13-1.8-.59.16-1.1.59-1.35,1.2s-.18,1.27.13,1.8c.59-.16,1.1-.59,1.35-1.2Z"/>
            <path class="cls-10" d="m255.74,153.94c.25-.61.18-1.27-.13-1.8-.59.16-1.1.59-1.35,1.2s-.18,1.27.13,1.8c.59-.16,1.1-.59,1.35-1.2Z"/>
            <path class="cls-19" d="m255.74,153.94c.25-.61.18-1.27-.13-1.8l-1.23,3c.59-.16,1.1-.59,1.35-1.2Z"/>
          </g>
        </g>
        <rect class="cls-10" x="267.44" y="255.17" width="3.28" height="64.05" rx=".74" ry=".74"/>
        <rect class="cls-10" x="280.58" y="199.33" width="3.28" height="96.9" rx=".74" ry=".74"/>
        <rect class="cls-10" x="382.4" y="251.89" width="3.28" height="64.05" rx=".74" ry=".74"/>
        <rect class="cls-10" x="400.47" y="217.4" width="3.28" height="88.68" rx=".74" ry=".74"/>
        <rect class="cls-10" x="362.7" y="153.35" width="3.28" height="142.88" rx=".74" ry=".74"/>
        <g>
          <g class="cls-33">
            <path class="cls-23" d="m391.33,225.08c-5.28,1.28-10.52.14-14.36-2.67,2.12-4.26,6.25-7.69,11.53-8.97,5.28-1.28,10.52-.14,14.36,2.67-2.12,4.26-6.25,7.69-11.53,8.97Z"/>
            <path class="cls-10" d="m391.33,225.08c-5.28,1.28-10.52.14-14.36-2.67,2.12-4.26,6.25-7.69,11.53-8.97,5.28-1.28,10.52-.14,14.36,2.67-2.12,4.26-6.25,7.69-11.53,8.97Z"/>
            <path class="cls-19" d="m391.33,225.08c-5.28,1.28-10.52.14-14.36-2.67l25.89-6.3c-2.12,4.26-6.25,7.69-11.53,8.97Z"/>
          </g>
          <g class="cls-33">
            <path class="cls-23" d="m413.48,222.5c4.63.33,8.89-1.45,11.73-4.48-2.38-3.41-6.34-5.78-10.97-6.11-4.63-.33-8.89,1.45-11.73,4.48,2.38,3.41,6.34,5.78,10.97,6.11Z"/>
            <path class="cls-10" d="m413.48,222.5c4.63.33,8.89-1.45,11.73-4.48-2.38-3.41-6.34-5.78-10.97-6.11-4.63-.33-8.89,1.45-11.73,4.48,2.38,3.41,6.34,5.78,10.97,6.11Z"/>
            <path class="cls-19" d="m413.48,222.5c4.63.33,8.89-1.45,11.73-4.48l-22.69-1.63c2.38,3.41,6.34,5.78,10.97,6.11Z"/>
          </g>
          <g>
            <path class="cls-23" d="m397.85,215.22c-1.34-1.17-1.96-2.86-1.84-4.53,1.64-.36,3.4.02,4.74,1.19s1.96,2.86,1.84,4.53c-1.64.36-3.4-.02-4.74-1.19Z"/>
            <path class="cls-10" d="m397.85,215.22c-1.34-1.17-1.96-2.86-1.84-4.53,1.64-.36,3.4.02,4.74,1.19s1.96,2.86,1.84,4.53c-1.64.36-3.4-.02-4.74-1.19Z"/>
            <path class="cls-19" d="m397.85,215.22c-1.34-1.17-1.96-2.86-1.84-4.53l6.58,5.72c-1.64.36-3.4-.02-4.74-1.19Z"/>
          </g>
          <g>
            <path class="cls-23" d="m405.78,215.58c-.92.77-2.07,1.06-3.12.86-.01-1.07.46-2.16,1.37-2.93s2.07-1.06,3.12-.86c.01,1.07-.46,2.16-1.37,2.93Z"/>
            <path class="cls-10" d="m405.78,215.58c-.92.77-2.07,1.06-3.12.86-.01-1.07.46-2.16,1.37-2.93s2.07-1.06,3.12-.86c.01,1.07-.46,2.16-1.37,2.93Z"/>
            <path class="cls-19" d="m405.78,215.58c-.92.77-2.07,1.06-3.12.86l4.5-3.8c.01,1.07-.46,2.16-1.37,2.93Z"/>
          </g>
          <g>
            <path class="cls-23" d="m402.31,217.99c-.25-.61-.18-1.27.13-1.8.59.16,1.1.59,1.35,1.2s.18,1.27-.13,1.8c-.59-.16-1.1-.59-1.35-1.2Z"/>
            <path class="cls-10" d="m402.31,217.99c-.25-.61-.18-1.27.13-1.8.59.16,1.1.59,1.35,1.2s.18,1.27-.13,1.8c-.59-.16-1.1-.59-1.35-1.2Z"/>
            <path class="cls-19" d="m402.31,217.99c-.25-.61-.18-1.27.13-1.8l1.23,3c-.59-.16-1.1-.59-1.35-1.2Z"/>
          </g>
        </g>
        <g>
          <g class="cls-33">
            <path class="cls-23" d="m373.26,261.21c-5.28,1.28-10.52.14-14.36-2.67,2.12-4.26,6.25-7.69,11.53-8.97,5.28-1.28,10.52-.14,14.36,2.67-2.12,4.26-6.25,7.69-11.53,8.97Z"/>
            <path class="cls-10" d="m373.26,261.21c-5.28,1.28-10.52.14-14.36-2.67,2.12-4.26,6.25-7.69,11.53-8.97,5.28-1.28,10.52-.14,14.36,2.67-2.12,4.26-6.25,7.69-11.53,8.97Z"/>
            <path class="cls-19" d="m373.26,261.21c-5.28,1.28-10.52.14-14.36-2.67l25.89-6.3c-2.12,4.26-6.25,7.69-11.53,8.97Z"/>
          </g>
          <g class="cls-33">
            <path class="cls-23" d="m395.41,258.63c4.63.33,8.89-1.45,11.73-4.48-2.38-3.41-6.34-5.78-10.97-6.11-4.63-.33-8.89,1.45-11.73,4.48,2.38,3.41,6.34,5.78,10.97,6.11Z"/>
            <path class="cls-10" d="m395.41,258.63c4.63.33,8.89-1.45,11.73-4.48-2.38-3.41-6.34-5.78-10.97-6.11-4.63-.33-8.89,1.45-11.73,4.48,2.38,3.41,6.34,5.78,10.97,6.11Z"/>
            <path class="cls-19" d="m395.41,258.63c4.63.33,8.89-1.45,11.73-4.48l-22.69-1.63c2.38,3.41,6.34,5.78,10.97,6.11Z"/>
          </g>
          <g>
            <path class="cls-23" d="m379.79,251.35c-1.34-1.17-1.96-2.86-1.84-4.53,1.64-.36,3.4.02,4.74,1.19s1.96,2.86,1.84,4.53c-1.64.36-3.4-.02-4.74-1.19Z"/>
            <path class="cls-10" d="m379.79,251.35c-1.34-1.17-1.96-2.86-1.84-4.53,1.64-.36,3.4.02,4.74,1.19s1.96,2.86,1.84,4.53c-1.64.36-3.4-.02-4.74-1.19Z"/>
            <path class="cls-19" d="m379.79,251.35c-1.34-1.17-1.96-2.86-1.84-4.53l6.58,5.72c-1.64.36-3.4-.02-4.74-1.19Z"/>
          </g>
          <g>
            <path class="cls-23" d="m387.72,251.71c-.92.77-2.07,1.06-3.12.86-.01-1.07.46-2.16,1.37-2.93s2.07-1.06,3.12-.86c.01,1.07-.46,2.16-1.37,2.93Z"/>
            <path class="cls-10" d="m387.72,251.71c-.92.77-2.07,1.06-3.12.86-.01-1.07.46-2.16,1.37-2.93s2.07-1.06,3.12-.86c.01,1.07-.46,2.16-1.37,2.93Z"/>
            <path class="cls-19" d="m387.72,251.71c-.92.77-2.07,1.06-3.12.86l4.5-3.8c.01,1.07-.46,2.16-1.37,2.93Z"/>
          </g>
          <g>
            <path class="cls-23" d="m384.25,254.12c-.25-.61-.18-1.27.13-1.8.59.16,1.1.59,1.35,1.2s.18,1.27-.13,1.8c-.59-.16-1.1-.59-1.35-1.2Z"/>
            <path class="cls-10" d="m384.25,254.12c-.25-.61-.18-1.27.13-1.8.59.16,1.1.59,1.35,1.2s.18,1.27-.13,1.8c-.59-.16-1.1-.59-1.35-1.2Z"/>
            <path class="cls-19" d="m384.25,254.12c-.25-.61-.18-1.27.13-1.8l1.23,3c-.59-.16-1.1-.59-1.35-1.2Z"/>
          </g>
        </g>
        <g>
          <g class="cls-33">
            <path class="cls-23" d="m258.3,262.86c-5.28,1.28-10.52.14-14.36-2.67,2.12-4.26,6.25-7.69,11.53-8.97,5.28-1.28,10.52-.14,14.36,2.67-2.12,4.26-6.25,7.69-11.53,8.97Z"/>
            <path class="cls-10" d="m258.3,262.86c-5.28,1.28-10.52.14-14.36-2.67,2.12-4.26,6.25-7.69,11.53-8.97,5.28-1.28,10.52-.14,14.36,2.67-2.12,4.26-6.25,7.69-11.53,8.97Z"/>
            <path class="cls-19" d="m258.3,262.86c-5.28,1.28-10.52.14-14.36-2.67l25.89-6.3c-2.12,4.26-6.25,7.69-11.53,8.97Z"/>
          </g>
          <g class="cls-33">
            <path class="cls-23" d="m280.45,260.28c4.63.33,8.89-1.45,11.73-4.48-2.38-3.41-6.34-5.78-10.97-6.11-4.63-.33-8.89,1.45-11.73,4.48,2.38,3.41,6.34,5.78,10.97,6.11Z"/>
            <path class="cls-10" d="m280.45,260.28c4.63.33,8.89-1.45,11.73-4.48-2.38-3.41-6.34-5.78-10.97-6.11-4.63-.33-8.89,1.45-11.73,4.48,2.38,3.41,6.34,5.78,10.97,6.11Z"/>
            <path class="cls-19" d="m280.45,260.28c4.63.33,8.89-1.45,11.73-4.48l-22.69-1.63c2.38,3.41,6.34,5.78,10.97,6.11Z"/>
          </g>
          <g>
            <path class="cls-23" d="m264.83,252.99c-1.34-1.17-1.96-2.86-1.84-4.53,1.64-.36,3.4.02,4.74,1.19s1.96,2.86,1.84,4.53c-1.64.36-3.4-.02-4.74-1.19Z"/>
            <path class="cls-10" d="m264.83,252.99c-1.34-1.17-1.96-2.86-1.84-4.53,1.64-.36,3.4.02,4.74,1.19s1.96,2.86,1.84,4.53c-1.64.36-3.4-.02-4.74-1.19Z"/>
            <path class="cls-19" d="m264.83,252.99c-1.34-1.17-1.96-2.86-1.84-4.53l6.58,5.72c-1.64.36-3.4-.02-4.74-1.19Z"/>
          </g>
          <g>
            <path class="cls-23" d="m272.76,253.35c-.92.77-2.07,1.06-3.12.86-.01-1.07.46-2.16,1.37-2.93s2.07-1.06,3.12-.86c.01,1.07-.46,2.16-1.37,2.93Z"/>
            <path class="cls-10" d="m272.76,253.35c-.92.77-2.07,1.06-3.12.86-.01-1.07.46-2.16,1.37-2.93s2.07-1.06,3.12-.86c.01,1.07-.46,2.16-1.37,2.93Z"/>
            <path class="cls-19" d="m272.76,253.35c-.92.77-2.07,1.06-3.12.86l4.5-3.8c.01,1.07-.46,2.16-1.37,2.93Z"/>
          </g>
          <g>
            <path class="cls-23" d="m269.29,255.76c-.25-.61-.18-1.27.13-1.8.59.16,1.1.59,1.35,1.2s.18,1.27-.13,1.8c-.59-.16-1.1-.59-1.35-1.2Z"/>
            <path class="cls-10" d="m269.29,255.76c-.25-.61-.18-1.27.13-1.8.59.16,1.1.59,1.35,1.2s.18,1.27-.13,1.8c-.59-.16-1.1-.59-1.35-1.2Z"/>
            <path class="cls-19" d="m269.29,255.76c-.25-.61-.18-1.27.13-1.8l1.23,3c-.59-.16-1.1-.59-1.35-1.2Z"/>
          </g>
        </g>
        <g>
          <g class="cls-33">
            <path class="cls-23" d="m271.44,207.02c-5.28,1.28-10.52.14-14.36-2.67,2.12-4.26,6.25-7.69,11.53-8.97,5.28-1.28,10.52-.14,14.36,2.67-2.12,4.26-6.25,7.69-11.53,8.97Z"/>
            <path class="cls-10" d="m271.44,207.02c-5.28,1.28-10.52.14-14.36-2.67,2.12-4.26,6.25-7.69,11.53-8.97,5.28-1.28,10.52-.14,14.36,2.67-2.12,4.26-6.25,7.69-11.53,8.97Z"/>
            <path class="cls-19" d="m271.44,207.02c-5.28,1.28-10.52.14-14.36-2.67l25.89-6.3c-2.12,4.26-6.25,7.69-11.53,8.97Z"/>
          </g>
          <g class="cls-33">
            <path class="cls-23" d="m293.59,204.44c4.63.33,8.89-1.45,11.73-4.48-2.38-3.41-6.34-5.78-10.97-6.11-4.63-.33-8.89,1.45-11.73,4.48,2.38,3.41,6.34,5.78,10.97,6.11Z"/>
            <path class="cls-10" d="m293.59,204.44c4.63.33,8.89-1.45,11.73-4.48-2.38-3.41-6.34-5.78-10.97-6.11-4.63-.33-8.89,1.45-11.73,4.48,2.38,3.41,6.34,5.78,10.97,6.11Z"/>
            <path class="cls-19" d="m293.59,204.44c4.63.33,8.89-1.45,11.73-4.48l-22.69-1.63c2.38,3.41,6.34,5.78,10.97,6.11Z"/>
          </g>
          <g>
            <path class="cls-23" d="m277.96,197.15c-1.34-1.17-1.96-2.86-1.84-4.53,1.64-.36,3.4.02,4.74,1.19s1.96,2.86,1.84,4.53c-1.64.36-3.4-.02-4.74-1.19Z"/>
            <path class="cls-10" d="m277.96,197.15c-1.34-1.17-1.96-2.86-1.84-4.53,1.64-.36,3.4.02,4.74,1.19s1.96,2.86,1.84,4.53c-1.64.36-3.4-.02-4.74-1.19Z"/>
            <path class="cls-19" d="m277.96,197.15c-1.34-1.17-1.96-2.86-1.84-4.53l6.58,5.72c-1.64.36-3.4-.02-4.74-1.19Z"/>
          </g>
          <g>
            <path class="cls-23" d="m285.9,197.52c-.92.77-2.07,1.06-3.12.86-.01-1.07.46-2.16,1.37-2.93s2.07-1.06,3.12-.86c.01,1.07-.46,2.16-1.37,2.93Z"/>
            <path class="cls-10" d="m285.9,197.52c-.92.77-2.07,1.06-3.12.86-.01-1.07.46-2.16,1.37-2.93s2.07-1.06,3.12-.86c.01,1.07-.46,2.16-1.37,2.93Z"/>
            <path class="cls-19" d="m285.9,197.52c-.92.77-2.07,1.06-3.12.86l4.5-3.8c.01,1.07-.46,2.16-1.37,2.93Z"/>
          </g>
          <g>
            <path class="cls-23" d="m282.43,199.93c-.25-.61-.18-1.27.13-1.8.59.16,1.1.59,1.35,1.2s.18,1.27-.13,1.8c-.59-.16-1.1-.59-1.35-1.2Z"/>
            <path class="cls-10" d="m282.43,199.93c-.25-.61-.18-1.27.13-1.8.59.16,1.1.59,1.35,1.2s.18,1.27-.13,1.8c-.59-.16-1.1-.59-1.35-1.2Z"/>
            <path class="cls-19" d="m282.43,199.93c-.25-.61-.18-1.27.13-1.8l1.23,3c-.59-.16-1.1-.59-1.35-1.2Z"/>
          </g>
        </g>
        <g>
          <g class="cls-33">
            <path class="cls-23" d="m353.55,162.68c-5.28,1.28-10.52.14-14.36-2.67,2.12-4.26,6.25-7.69,11.53-8.97,5.28-1.28,10.52-.14,14.36,2.67-2.12,4.26-6.25,7.69-11.53,8.97Z"/>
            <path class="cls-10" d="m353.55,162.68c-5.28,1.28-10.52.14-14.36-2.67,2.12-4.26,6.25-7.69,11.53-8.97,5.28-1.28,10.52-.14,14.36,2.67-2.12,4.26-6.25,7.69-11.53,8.97Z"/>
            <path class="cls-19" d="m353.55,162.68c-5.28,1.28-10.52.14-14.36-2.67l25.89-6.3c-2.12,4.26-6.25,7.69-11.53,8.97Z"/>
          </g>
          <g class="cls-33">
            <path class="cls-23" d="m375.71,160.1c4.63.33,8.89-1.45,11.73-4.48-2.38-3.41-6.34-5.78-10.97-6.11-4.63-.33-8.89,1.45-11.73,4.48,2.38,3.41,6.34,5.78,10.97,6.11Z"/>
            <path class="cls-10" d="m375.71,160.1c4.63.33,8.89-1.45,11.73-4.48-2.38-3.41-6.34-5.78-10.97-6.11-4.63-.33-8.89,1.45-11.73,4.48,2.38,3.41,6.34,5.78,10.97,6.11Z"/>
            <path class="cls-19" d="m375.71,160.1c4.63.33,8.89-1.45,11.73-4.48l-22.69-1.63c2.38,3.41,6.34,5.78,10.97,6.11Z"/>
          </g>
          <g>
            <path class="cls-23" d="m360.08,152.81c-1.34-1.17-1.96-2.86-1.84-4.53,1.64-.36,3.4.02,4.74,1.19s1.96,2.86,1.84,4.53c-1.64.36-3.4-.02-4.74-1.19Z"/>
            <path class="cls-10" d="m360.08,152.81c-1.34-1.17-1.96-2.86-1.84-4.53,1.64-.36,3.4.02,4.74,1.19s1.96,2.86,1.84,4.53c-1.64.36-3.4-.02-4.74-1.19Z"/>
            <path class="cls-19" d="m360.08,152.81c-1.34-1.17-1.96-2.86-1.84-4.53l6.58,5.72c-1.64.36-3.4-.02-4.74-1.19Z"/>
          </g>
          <g>
            <path class="cls-23" d="m368.01,153.18c-.92.77-2.07,1.06-3.12.86-.01-1.07.46-2.16,1.37-2.93s2.07-1.06,3.12-.86c.01,1.07-.46,2.16-1.37,2.93Z"/>
            <path class="cls-10" d="m368.01,153.18c-.92.77-2.07,1.06-3.12.86-.01-1.07.46-2.16,1.37-2.93s2.07-1.06,3.12-.86c.01,1.07-.46,2.16-1.37,2.93Z"/>
            <path class="cls-19" d="m368.01,153.18c-.92.77-2.07,1.06-3.12.86l4.5-3.8c.01,1.07-.46,2.16-1.37,2.93Z"/>
          </g>
          <g>
            <path class="cls-23" d="m364.54,155.58c-.25-.61-.18-1.27.13-1.8.59.16,1.1.59,1.35,1.2s.18,1.27-.13,1.8c-.59-.16-1.1-.59-1.35-1.2Z"/>
            <path class="cls-10" d="m364.54,155.58c-.25-.61-.18-1.27.13-1.8.59.16,1.1.59,1.35,1.2s.18,1.27-.13,1.8c-.59-.16-1.1-.59-1.35-1.2Z"/>
            <path class="cls-19" d="m364.54,155.58c-.25-.61-.18-1.27.13-1.8l1.23,3c-.59-.16-1.1-.59-1.35-1.2Z"/>
          </g>
        </g>
        <rect class="cls-10" x="344.63" y="189.48" width="3.28" height="128.1" rx=".74" ry=".74"/>
        <rect class="cls-10" x="305.22" y="164.84" width="3.28" height="142.88" rx=".74" ry=".74"/>
        <g>
          <g class="cls-33">
            <path class="cls-23" d="m335.49,197.17c-5.28,1.28-10.52.14-14.36-2.67,2.12-4.26,6.25-7.69,11.53-8.97,5.28-1.28,10.52-.14,14.36,2.67-2.12,4.26-6.25,7.69-11.53,8.97Z"/>
            <path class="cls-10" d="m335.49,197.17c-5.28,1.28-10.52.14-14.36-2.67,2.12-4.26,6.25-7.69,11.53-8.97,5.28-1.28,10.52-.14,14.36,2.67-2.12,4.26-6.25,7.69-11.53,8.97Z"/>
            <path class="cls-19" d="m335.49,197.17c-5.28,1.28-10.52.14-14.36-2.67l25.89-6.3c-2.12,4.26-6.25,7.69-11.53,8.97Z"/>
          </g>
          <g class="cls-33">
            <path class="cls-23" d="m357.64,194.58c4.63.33,8.89-1.45,11.73-4.48-2.38-3.41-6.34-5.78-10.97-6.11-4.63-.33-8.89,1.45-11.73,4.48,2.38,3.41,6.34,5.78,10.97,6.11Z"/>
            <path class="cls-10" d="m357.64,194.58c4.63.33,8.89-1.45,11.73-4.48-2.38-3.41-6.34-5.78-10.97-6.11-4.63-.33-8.89,1.45-11.73,4.48,2.38,3.41,6.34,5.78,10.97,6.11Z"/>
            <path class="cls-19" d="m357.64,194.58c4.63.33,8.89-1.45,11.73-4.48l-22.69-1.63c2.38,3.41,6.34,5.78,10.97,6.11Z"/>
          </g>
          <g>
            <path class="cls-23" d="m342.01,187.3c-1.34-1.17-1.96-2.86-1.84-4.53,1.64-.36,3.4.02,4.74,1.19s1.96,2.86,1.84,4.53c-1.64.36-3.4-.02-4.74-1.19Z"/>
            <path class="cls-10" d="m342.01,187.3c-1.34-1.17-1.96-2.86-1.84-4.53,1.64-.36,3.4.02,4.74,1.19s1.96,2.86,1.84,4.53c-1.64.36-3.4-.02-4.74-1.19Z"/>
            <path class="cls-19" d="m342.01,187.3c-1.34-1.17-1.96-2.86-1.84-4.53l6.58,5.72c-1.64.36-3.4-.02-4.74-1.19Z"/>
          </g>
          <g>
            <path class="cls-23" d="m349.95,187.66c-.92.77-2.07,1.06-3.12.86-.01-1.07.46-2.16,1.37-2.93s2.07-1.06,3.12-.86c.01,1.07-.46,2.16-1.37,2.93Z"/>
            <path class="cls-10" d="m349.95,187.66c-.92.77-2.07,1.06-3.12.86-.01-1.07.46-2.16,1.37-2.93s2.07-1.06,3.12-.86c.01,1.07-.46,2.16-1.37,2.93Z"/>
            <path class="cls-19" d="m349.95,187.66c-.92.77-2.07,1.06-3.12.86l4.5-3.8c.01,1.07-.46,2.16-1.37,2.93Z"/>
          </g>
          <g>
            <path class="cls-23" d="m346.48,190.07c-.25-.61-.18-1.27.13-1.8.59.16,1.1.59,1.35,1.2s.18,1.27-.13,1.8c-.59-.16-1.1-.59-1.35-1.2Z"/>
            <path class="cls-10" d="m346.48,190.07c-.25-.61-.18-1.27.13-1.8.59.16,1.1.59,1.35,1.2s.18,1.27-.13,1.8c-.59-.16-1.1-.59-1.35-1.2Z"/>
            <path class="cls-19" d="m346.48,190.07c-.25-.61-.18-1.27.13-1.8l1.23,3c-.59-.16-1.1-.59-1.35-1.2Z"/>
          </g>
        </g>
        <g>
          <g class="cls-33">
            <path class="cls-23" d="m296.07,174.17c-5.28,1.28-10.52.14-14.36-2.67,2.12-4.26,6.25-7.69,11.53-8.97,5.28-1.28,10.52-.14,14.36,2.67-2.12,4.26-6.25,7.69-11.53,8.97Z"/>
            <path class="cls-10" d="m296.07,174.17c-5.28,1.28-10.52.14-14.36-2.67,2.12-4.26,6.25-7.69,11.53-8.97,5.28-1.28,10.52-.14,14.36,2.67-2.12,4.26-6.25,7.69-11.53,8.97Z"/>
            <path class="cls-19" d="m296.07,174.17c-5.28,1.28-10.52.14-14.36-2.67l25.89-6.3c-2.12,4.26-6.25,7.69-11.53,8.97Z"/>
          </g>
          <g class="cls-33">
            <path class="cls-23" d="m318.23,171.59c4.63.33,8.89-1.45,11.73-4.48-2.38-3.41-6.34-5.78-10.97-6.11-4.63-.33-8.89,1.45-11.73,4.48,2.38,3.41,6.34,5.78,10.97,6.11Z"/>
            <path class="cls-10" d="m318.23,171.59c4.63.33,8.89-1.45,11.73-4.48-2.38-3.41-6.34-5.78-10.97-6.11-4.63-.33-8.89,1.45-11.73,4.48,2.38,3.41,6.34,5.78,10.97,6.11Z"/>
            <path class="cls-19" d="m318.23,171.59c4.63.33,8.89-1.45,11.73-4.48l-22.69-1.63c2.38,3.41,6.34,5.78,10.97,6.11Z"/>
          </g>
          <g>
            <path class="cls-23" d="m302.6,164.3c-1.34-1.17-1.96-2.86-1.84-4.53,1.64-.36,3.4.02,4.74,1.19s1.96,2.86,1.84,4.53c-1.64.36-3.4-.02-4.74-1.19Z"/>
            <path class="cls-10" d="m302.6,164.3c-1.34-1.17-1.96-2.86-1.84-4.53,1.64-.36,3.4.02,4.74,1.19s1.96,2.86,1.84,4.53c-1.64.36-3.4-.02-4.74-1.19Z"/>
            <path class="cls-19" d="m302.6,164.3c-1.34-1.17-1.96-2.86-1.84-4.53l6.58,5.72c-1.64.36-3.4-.02-4.74-1.19Z"/>
          </g>
          <g>
            <path class="cls-23" d="m310.53,164.67c-.92.77-2.07,1.06-3.12.86-.01-1.07.46-2.16,1.37-2.93s2.07-1.06,3.12-.86c.01,1.07-.46,2.16-1.37,2.93Z"/>
            <path class="cls-10" d="m310.53,164.67c-.92.77-2.07,1.06-3.12.86-.01-1.07.46-2.16,1.37-2.93s2.07-1.06,3.12-.86c.01,1.07-.46,2.16-1.37,2.93Z"/>
            <path class="cls-19" d="m310.53,164.67c-.92.77-2.07,1.06-3.12.86l4.5-3.8c.01,1.07-.46,2.16-1.37,2.93Z"/>
          </g>
          <g>
            <path class="cls-23" d="m307.06,167.08c-.25-.61-.18-1.27.13-1.8.59.16,1.1.59,1.35,1.2s.18,1.27-.13,1.8c-.59-.16-1.1-.59-1.35-1.2Z"/>
            <path class="cls-10" d="m307.06,167.08c-.25-.61-.18-1.27.13-1.8.59.16,1.1.59,1.35,1.2s.18,1.27-.13,1.8c-.59-.16-1.1-.59-1.35-1.2Z"/>
            <path class="cls-19" d="m307.06,167.08c-.25-.61-.18-1.27.13-1.8l1.23,3c-.59-.16-1.1-.59-1.35-1.2Z"/>
          </g>
        </g>
        <rect class="cls-10" x="321.64" y="222.32" width="3.28" height="96.9" rx=".74" ry=".74"/>
        <g>
          <g class="cls-33">
            <path class="cls-23" d="m312.5,230.01c-5.28,1.28-10.52.14-14.36-2.67,2.12-4.26,6.25-7.69,11.53-8.97s10.52-.14,14.36,2.67c-2.12,4.26-6.25,7.69-11.53,8.97Z"/>
            <path class="cls-10" d="m312.5,230.01c-5.28,1.28-10.52.14-14.36-2.67,2.12-4.26,6.25-7.69,11.53-8.97s10.52-.14,14.36,2.67c-2.12,4.26-6.25,7.69-11.53,8.97Z"/>
            <path class="cls-19" d="m312.5,230.01c-5.28,1.28-10.52.14-14.36-2.67l25.89-6.3c-2.12,4.26-6.25,7.69-11.53,8.97Z"/>
          </g>
          <g class="cls-33">
            <path class="cls-23" d="m334.65,227.43c4.63.33,8.89-1.45,11.73-4.48-2.38-3.41-6.34-5.78-10.97-6.11-4.63-.33-8.89,1.45-11.73,4.48,2.38,3.41,6.34,5.78,10.97,6.11Z"/>
            <path class="cls-10" d="m334.65,227.43c4.63.33,8.89-1.45,11.73-4.48-2.38-3.41-6.34-5.78-10.97-6.11-4.63-.33-8.89,1.45-11.73,4.48,2.38,3.41,6.34,5.78,10.97,6.11Z"/>
            <path class="cls-19" d="m334.65,227.43c4.63.33,8.89-1.45,11.73-4.48l-22.69-1.63c2.38,3.41,6.34,5.78,10.97,6.11Z"/>
          </g>
          <g>
            <path class="cls-23" d="m319.02,220.14c-1.34-1.17-1.96-2.86-1.84-4.53,1.64-.36,3.4.02,4.74,1.19s1.96,2.86,1.84,4.53c-1.64.36-3.4-.02-4.74-1.19Z"/>
            <path class="cls-10" d="m319.02,220.14c-1.34-1.17-1.96-2.86-1.84-4.53,1.64-.36,3.4.02,4.74,1.19s1.96,2.86,1.84,4.53c-1.64.36-3.4-.02-4.74-1.19Z"/>
            <path class="cls-19" d="m319.02,220.14c-1.34-1.17-1.96-2.86-1.84-4.53l6.58,5.72c-1.64.36-3.4-.02-4.74-1.19Z"/>
          </g>
          <g>
            <path class="cls-23" d="m326.95,220.51c-.92.77-2.07,1.06-3.12.86-.01-1.07.46-2.16,1.37-2.93s2.07-1.06,3.12-.86c.01,1.07-.46,2.16-1.37,2.93Z"/>
            <path class="cls-10" d="m326.95,220.51c-.92.77-2.07,1.06-3.12.86-.01-1.07.46-2.16,1.37-2.93s2.07-1.06,3.12-.86c.01,1.07-.46,2.16-1.37,2.93Z"/>
            <path class="cls-19" d="m326.95,220.51c-.92.77-2.07,1.06-3.12.86l4.5-3.8c.01,1.07-.46,2.16-1.37,2.93Z"/>
          </g>
          <g>
            <path class="cls-23" d="m323.48,222.92c-.25-.61-.18-1.27.13-1.8.59.16,1.1.59,1.35,1.2s.18,1.27-.13,1.8c-.59-.16-1.1-.59-1.35-1.2Z"/>
            <path class="cls-10" d="m323.48,222.92c-.25-.61-.18-1.27.13-1.8.59.16,1.1.59,1.35,1.2s.18,1.27-.13,1.8c-.59-.16-1.1-.59-1.35-1.2Z"/>
            <path class="cls-19" d="m323.48,222.92c-.25-.61-.18-1.27.13-1.8l1.23,3c-.59-.16-1.1-.59-1.35-1.2Z"/>
          </g>
        </g>
        <g class="cls-33">
          <path class="cls-23" d="m196.22,257.99c-4.18.76-8.05.57-10.66-.36,2.11-1.79,5.66-3.34,9.84-4.11s8.05-.57,10.66.36c-2.11,1.79-5.66,3.34-9.84,4.11Z"/>
          <path class="cls-10" d="m196.22,257.99c-4.18.76-8.05.57-10.66-.36,2.11-1.79,5.66-3.34,9.84-4.11s8.05-.57,10.66.36c-2.11,1.79-5.66,3.34-9.84,4.11Z"/>
          <path class="cls-19" d="m196.22,257.99c-4.18.76-8.05.57-10.66-.36l20.49-3.75c-2.11,1.79-5.66,3.34-9.84,4.11Z"/>
        </g>
        <g class="cls-33">
          <path class="cls-23" d="m225.78,276.05c-4.18.76-8.05.57-10.66-.36,2.11-1.79,5.66-3.34,9.84-4.11s8.05-.57,10.66.36c-2.11,1.79-5.66,3.34-9.84,4.11Z"/>
          <path class="cls-10" d="m225.78,276.05c-4.18.76-8.05.57-10.66-.36,2.11-1.79,5.66-3.34,9.84-4.11s8.05-.57,10.66.36c-2.11,1.79-5.66,3.34-9.84,4.11Z"/>
          <path class="cls-19" d="m225.78,276.05c-4.18.76-8.05.57-10.66-.36l20.49-3.75c-2.11,1.79-5.66,3.34-9.84,4.11Z"/>
        </g>
        <g class="cls-33">
          <path class="cls-23" d="m256.99,279.34c-4.18.76-8.05.57-10.66-.36,2.11-1.79,5.66-3.34,9.84-4.11s8.05-.57,10.66.36c-2.11,1.79-5.66,3.34-9.84,4.11Z"/>
          <path class="cls-10" d="m256.99,279.34c-4.18.76-8.05.57-10.66-.36,2.11-1.79,5.66-3.34,9.84-4.11s8.05-.57,10.66.36c-2.11,1.79-5.66,3.34-9.84,4.11Z"/>
          <path class="cls-19" d="m256.99,279.34c-4.18.76-8.05.57-10.66-.36l20.49-3.75c-2.11,1.79-5.66,3.34-9.84,4.11Z"/>
        </g>
        <g class="cls-33">
          <path class="cls-23" d="m334.17,289.19c-4.18.76-8.05.57-10.66-.36,2.11-1.79,5.66-3.34,9.84-4.11,4.18-.76,8.05-.57,10.66.36-2.11,1.79-5.66,3.34-9.84,4.11Z"/>
          <path class="cls-10" d="m334.17,289.19c-4.18.76-8.05.57-10.66-.36,2.11-1.79,5.66-3.34,9.84-4.11,4.18-.76,8.05-.57,10.66.36-2.11,1.79-5.66,3.34-9.84,4.11Z"/>
          <path class="cls-19" d="m334.17,289.19c-4.18.76-8.05.57-10.66-.36l20.49-3.75c-2.11,1.79-5.66,3.34-9.84,4.11Z"/>
        </g>
        <g class="cls-33">
          <path class="cls-23" d="m271.77,236.64c-4.18.76-8.05.57-10.66-.36,2.11-1.79,5.66-3.34,9.84-4.11,4.18-.76,8.05-.57,10.66.36-2.11,1.79-5.66,3.34-9.84,4.11Z"/>
          <path class="cls-10" d="m271.77,236.64c-4.18.76-8.05.57-10.66-.36,2.11-1.79,5.66-3.34,9.84-4.11,4.18-.76,8.05-.57,10.66.36-2.11,1.79-5.66,3.34-9.84,4.11Z"/>
          <path class="cls-19" d="m271.77,236.64c-4.18.76-8.05.57-10.66-.36l20.49-3.75c-2.11,1.79-5.66,3.34-9.84,4.11Z"/>
        </g>
        <g class="cls-33">
          <path class="cls-23" d="m243.85,174.23c-4.18.76-8.05.57-10.66-.36,2.11-1.79,5.66-3.34,9.84-4.11s8.05-.57,10.66.36c-2.11,1.79-5.66,3.34-9.84,4.11Z"/>
          <path class="cls-10" d="m243.85,174.23c-4.18.76-8.05.57-10.66-.36,2.11-1.79,5.66-3.34,9.84-4.11s8.05-.57,10.66.36c-2.11,1.79-5.66,3.34-9.84,4.11Z"/>
          <path class="cls-19" d="m243.85,174.23c-4.18.76-8.05.57-10.66-.36l20.49-3.75c-2.11,1.79-5.66,3.34-9.84,4.11Z"/>
        </g>
        <g class="cls-33">
          <path class="cls-23" d="m317.75,182.44c-4.18.76-8.05.57-10.66-.36,2.11-1.79,5.66-3.34,9.84-4.11,4.18-.76,8.05-.57,10.66.36-2.11,1.79-5.66,3.34-9.84,4.11Z"/>
          <path class="cls-10" d="m317.75,182.44c-4.18.76-8.05.57-10.66-.36,2.11-1.79,5.66-3.34,9.84-4.11,4.18-.76,8.05-.57,10.66.36-2.11,1.79-5.66,3.34-9.84,4.11Z"/>
          <path class="cls-19" d="m317.75,182.44c-4.18.76-8.05.57-10.66-.36l20.49-3.75c-2.11,1.79-5.66,3.34-9.84,4.11Z"/>
        </g>
        <g class="cls-33">
          <path class="cls-23" d="m334.17,249.78c-4.18.76-8.05.57-10.66-.36,2.11-1.79,5.66-3.34,9.84-4.11s8.05-.57,10.66.36c-2.11,1.79-5.66,3.34-9.84,4.11Z"/>
          <path class="cls-10" d="m334.17,249.78c-4.18.76-8.05.57-10.66-.36,2.11-1.79,5.66-3.34,9.84-4.11s8.05-.57,10.66.36c-2.11,1.79-5.66,3.34-9.84,4.11Z"/>
          <path class="cls-19" d="m334.17,249.78c-4.18.76-8.05.57-10.66-.36l20.49-3.75c-2.11,1.79-5.66,3.34-9.84,4.11Z"/>
        </g>
        <g class="cls-33">
          <path class="cls-23" d="m411.36,239.92c-4.18.76-8.05.57-10.66-.36,2.11-1.79,5.66-3.34,9.84-4.11,4.18-.76,8.05-.57,10.66.36-2.11,1.79-5.66,3.34-9.84,4.11Z"/>
          <path class="cls-10" d="m411.36,239.92c-4.18.76-8.05.57-10.66-.36,2.11-1.79,5.66-3.34,9.84-4.11,4.18-.76,8.05-.57,10.66.36-2.11,1.79-5.66,3.34-9.84,4.11Z"/>
          <path class="cls-19" d="m411.36,239.92c-4.18.76-8.05.57-10.66-.36l20.49-3.75c-2.11,1.79-5.66,3.34-9.84,4.11Z"/>
        </g>
        <g class="cls-33">
          <path class="cls-23" d="m375.23,238.28c-4.18.76-8.05.57-10.66-.36,2.11-1.79,5.66-3.34,9.84-4.11s8.05-.57,10.66.36c-2.11,1.79-5.66,3.34-9.84,4.11Z"/>
          <path class="cls-10" d="m375.23,238.28c-4.18.76-8.05.57-10.66-.36,2.11-1.79,5.66-3.34,9.84-4.11s8.05-.57,10.66.36c-2.11,1.79-5.66,3.34-9.84,4.11Z"/>
          <path class="cls-19" d="m375.23,238.28c-4.18.76-8.05.57-10.66-.36l20.49-3.75c-2.11,1.79-5.66,3.34-9.84,4.11Z"/>
        </g>
        <g class="cls-33">
          <path class="cls-23" d="m375.23,177.52c-4.18.76-8.05.57-10.66-.36,2.11-1.79,5.66-3.34,9.84-4.11s8.05-.57,10.66.36c-2.11,1.79-5.66,3.34-9.84,4.11Z"/>
          <path class="cls-10" d="m375.23,177.52c-4.18.76-8.05.57-10.66-.36,2.11-1.79,5.66-3.34,9.84-4.11s8.05-.57,10.66.36c-2.11,1.79-5.66,3.34-9.84,4.11Z"/>
          <path class="cls-19" d="m375.23,177.52c-4.18.76-8.05.57-10.66-.36l20.49-3.75c-2.11,1.79-5.66,3.34-9.84,4.11Z"/>
        </g>
        <g class="cls-33">
          <path class="cls-23" d="m225.78,221.86c-4.18.76-8.05.57-10.66-.36,2.11-1.79,5.66-3.34,9.84-4.11s8.05-.57,10.66.36c-2.11,1.79-5.66,3.34-9.84,4.11Z"/>
          <path class="cls-10" d="m225.78,221.86c-4.18.76-8.05.57-10.66-.36,2.11-1.79,5.66-3.34,9.84-4.11s8.05-.57,10.66.36c-2.11,1.79-5.66,3.34-9.84,4.11Z"/>
          <path class="cls-19" d="m225.78,221.86c-4.18.76-8.05.57-10.66-.36l20.49-3.75c-2.11,1.79-5.66,3.34-9.84,4.11Z"/>
        </g>
        <g class="cls-33">
          <path class="cls-23" d="m243.7,239.92c-3.65-.86-6.76-2.23-8.6-3.65,2.28-.45,5.67-.29,9.32.57,3.65.86,6.76,2.23,8.6,3.65-2.28.45-5.67.29-9.32-.57Z"/>
          <path class="cls-10" d="m243.7,239.92c-3.65-.86-6.76-2.23-8.6-3.65,2.28-.45,5.67-.29,9.32.57,3.65.86,6.76,2.23,8.6,3.65-2.28.45-5.67.29-9.32-.57Z"/>
          <path class="cls-19" d="m243.7,239.92c-3.65-.86-6.76-2.23-8.6-3.65l17.92,4.22c-2.28.45-5.67.29-9.32-.57Z"/>
        </g>
        <g class="cls-33">
          <path class="cls-23" d="m214.14,264.56c-3.65-.86-6.76-2.23-8.6-3.65,2.28-.45,5.67-.29,9.32.57,3.65.86,6.76,2.23,8.6,3.65-2.28.45-5.67.29-9.32-.57Z"/>
          <path class="cls-10" d="m214.14,264.56c-3.65-.86-6.76-2.23-8.6-3.65,2.28-.45,5.67-.29,9.32.57,3.65.86,6.76,2.23,8.6,3.65-2.28.45-5.67.29-9.32-.57Z"/>
          <path class="cls-19" d="m214.14,264.56c-3.65-.86-6.76-2.23-8.6-3.65l17.92,4.22c-2.28.45-5.67.29-9.32-.57Z"/>
        </g>
        <g class="cls-33">
          <path class="cls-23" d="m291.33,220.22c-3.65-.86-6.76-2.23-8.6-3.65,2.28-.45,5.67-.29,9.32.57,3.65.86,6.76,2.23,8.6,3.65-2.28.45-5.67.29-9.32-.57Z"/>
          <path class="cls-10" d="m291.33,220.22c-3.65-.86-6.76-2.23-8.6-3.65,2.28-.45,5.67-.29,9.32.57,3.65.86,6.76,2.23,8.6,3.65-2.28.45-5.67.29-9.32-.57Z"/>
          <path class="cls-19" d="m291.33,220.22c-3.65-.86-6.76-2.23-8.6-3.65l17.92,4.22c-2.28.45-5.67.29-9.32-.57Z"/>
        </g>
        <g class="cls-33">
          <path class="cls-23" d="m314.32,267.84c-3.65-.86-6.76-2.23-8.6-3.65,2.28-.45,5.67-.29,9.32.57,3.65.86,6.76,2.23,8.6,3.65-2.28.45-5.67.29-9.32-.57Z"/>
          <path class="cls-10" d="m314.32,267.84c-3.65-.86-6.76-2.23-8.6-3.65,2.28-.45,5.67-.29,9.32.57,3.65.86,6.76,2.23,8.6,3.65-2.28.45-5.67.29-9.32-.57Z"/>
          <path class="cls-19" d="m314.32,267.84c-3.65-.86-6.76-2.23-8.6-3.65l17.92,4.22c-2.28.45-5.67.29-9.32-.57Z"/>
        </g>
        <g class="cls-33">
          <path class="cls-23" d="m355.38,215.29c-3.65-.86-6.76-2.23-8.6-3.65,2.28-.45,5.67-.29,9.32.57,3.65.86,6.76,2.23,8.6,3.65-2.28.45-5.67.29-9.32-.57Z"/>
          <path class="cls-10" d="m355.38,215.29c-3.65-.86-6.76-2.23-8.6-3.65,2.28-.45,5.67-.29,9.32.57,3.65.86,6.76,2.23,8.6,3.65-2.28.45-5.67.29-9.32-.57Z"/>
          <path class="cls-19" d="m355.38,215.29c-3.65-.86-6.76-2.23-8.6-3.65l17.92,4.22c-2.28.45-5.67.29-9.32-.57Z"/>
        </g>
        <g class="cls-33">
          <path class="cls-23" d="m376.73,285.91c-3.65-.86-6.76-2.23-8.6-3.65,2.28-.45,5.67-.29,9.32.57,3.65.86,6.76,2.23,8.6,3.65-2.28.45-5.67.29-9.32-.57Z"/>
          <path class="cls-10" d="m376.73,285.91c-3.65-.86-6.76-2.23-8.6-3.65,2.28-.45,5.67-.29,9.32.57,3.65.86,6.76,2.23,8.6,3.65-2.28.45-5.67.29-9.32-.57Z"/>
          <path class="cls-19" d="m376.73,285.91c-3.65-.86-6.76-2.23-8.6-3.65l17.92,4.22c-2.28.45-5.67.29-9.32-.57Z"/>
        </g>
        <g class="cls-33">
          <path class="cls-23" d="m393.15,241.57c-3.65-.86-6.76-2.23-8.6-3.65,2.28-.45,5.67-.29,9.32.57,3.65.86,6.76,2.23,8.6,3.65-2.28.45-5.67.29-9.32-.57Z"/>
          <path class="cls-10" d="m393.15,241.57c-3.65-.86-6.76-2.23-8.6-3.65,2.28-.45,5.67-.29,9.32.57,3.65.86,6.76,2.23,8.6,3.65-2.28.45-5.67.29-9.32-.57Z"/>
          <path class="cls-19" d="m393.15,241.57c-3.65-.86-6.76-2.23-8.6-3.65l17.92,4.22c-2.28.45-5.67.29-9.32-.57Z"/>
        </g>
        <g class="cls-33">
          <path class="cls-23" d="m393.15,276.05c-3.65-.86-6.76-2.23-8.6-3.65,2.28-.45,5.67-.29,9.32.57,3.65.86,6.76,2.23,8.6,3.65-2.28.45-5.67.29-9.32-.57Z"/>
          <path class="cls-10" d="m393.15,276.05c-3.65-.86-6.76-2.23-8.6-3.65,2.28-.45,5.67-.29,9.32.57,3.65.86,6.76,2.23,8.6,3.65-2.28.45-5.67.29-9.32-.57Z"/>
          <path class="cls-19" d="m393.15,276.05c-3.65-.86-6.76-2.23-8.6-3.65l17.92,4.22c-2.28.45-5.67.29-9.32-.57Z"/>
        </g>
      </g>
    </g>
    <g>
      <path class="cls-4" d="m640.83,495.33v11.94c0,4.05-17.6,7.33-39.33,7.33s-39.34-3.27-39.34-7.33v-11.94h78.66Z"/>
      <g>
        <path class="cls-15" d="m640.78,495.74c0,5.09-17.59,9.22-39.28,9.22s-39.28-4.13-39.28-9.22c0-.14.02-.27.05-.41v-.09l17.01-114.66h44.4l16.98,114.48c.09.22.12.46.12.68Z"/>
        <path class="cls-24" d="m633.13,487.83c0,4.14-14.31,7.5-31.96,7.5s-31.96-3.36-31.96-7.5c0-.11.01-.22.04-.33v-.07l13.84-93.28h36.12l13.81,93.13c.07.18.1.38.1.56Z"/>
        <path class="cls-15" d="m562.28,495.33c-.03.14-.05.27-.05.41h-.02l.07-.41Z"/>
        <ellipse class="cls-17" cx="601.49" cy="377.05" rx="29.03" ry="5.5"/>
        <rect class="cls-17" x="572.45" y="370.9" width="58.07" height="6.15"/>
        <ellipse class="cls-15" cx="601.49" cy="370.9" rx="29.03" ry="5.5"/>
        <path class="cls-16" d="m630.52,344.24l-.19.75v.02l-.8,3.16-5.47,21.69c0,1.88-9.75,3.42-21.77,3.42s-21.77-1.54-21.77-3.42l-6.71-21.31-1.04-3.31v-.02l-.09-.29-.22-.68h58.07Z"/>
        <path class="cls-3" d="m630.33,344.99v.02l-.8,3.16c-3.31,3.64-14.62,6.32-28.04,6.32s-23.96-2.51-27.68-5.94l-1.04-3.31v-.02l-.09-.29c.09-.24.2-.46.34-.68,2.6-3.76,13.59-6.63,26.97-6.81.5-.02,1.01-.02,1.5-.02s1.01,0,1.5.02c13.37.19,24.37,3.06,26.97,6.81.15.26.29.5.38.75Z"/>
        <path class="cls-15" d="m630.52,344.24l-.19.75v.02c-1.61,3.42-13.92,6.06-28.85,6.06s-26.69-2.54-28.73-5.84v-.02l-.09-.29-.22-.68c0-3.65,12.19-6.64,27.53-6.81.5-.02,1.01-.02,1.5-.02s1.01,0,1.5.02c15.34.17,27.53,3.16,27.53,6.81Z"/>
        <g>
          <ellipse class="cls-11" cx="581.85" cy="343.39" rx="2.56" ry=".85"/>
          <ellipse class="cls-11" cx="592.09" cy="339.97" rx="2.56" ry=".85"/>
          <ellipse class="cls-11" cx="592.09" cy="346.8" rx="2.56" ry=".85"/>
          <ellipse class="cls-11" cx="600.63" cy="343.39" rx="2.56" ry=".85"/>
          <ellipse class="cls-11" cx="609.17" cy="339.97" rx="2.56" ry=".85"/>
          <ellipse class="cls-11" cx="609.17" cy="346.8" rx="2.56" ry=".85"/>
          <ellipse class="cls-11" cx="621.13" cy="343.39" rx="2.56" ry=".85"/>
        </g>
        <ellipse class="cls-3" cx="601.17" cy="395.22" rx="18.07" ry="3.24"/>
        <ellipse class="cls-24" cx="601.17" cy="394.15" rx="18.07" ry="2.16"/>
      </g>
    </g>
    <g>
      <path class="cls-4" d="m538.33,527.12v11.94c0,4.05-17.6,7.33-39.33,7.33s-39.34-3.27-39.34-7.33v-11.94h78.66Z"/>
      <g>
        <path class="cls-15" d="m538.28,527.12c0,5.09-17.59,9.22-39.28,9.22s-39.28-4.13-39.28-9.22c0-.14.02-.27.05-.41v-.09l17.01-114.66h44.4l16.98,114.48c.09.22.12.46.12.68Z"/>
        <path class="cls-9" d="m530.63,519.21c0,4.14-14.31,7.5-31.96,7.5s-31.96-3.36-31.96-7.5c0-.11.01-.22.04-.33v-.07l13.84-93.28h36.12l13.81,93.13c.07.18.1.38.1.56Z"/>
        <path class="cls-15" d="m459.77,526.71c-.03.14-.05.27-.05.41h-.02l.07-.41Z"/>
        <ellipse class="cls-17" cx="498.98" cy="408.43" rx="29.03" ry="5.5"/>
        <rect class="cls-17" x="469.95" y="402.28" width="58.07" height="6.15"/>
        <ellipse class="cls-15" cx="498.98" cy="402.28" rx="29.03" ry="5.5"/>
        <path class="cls-16" d="m528.02,375.62l-.19.75v.02l-.8,3.16-5.47,21.69c0,1.88-9.75,3.42-21.77,3.42s-21.77-1.54-21.77-3.42l-6.71-21.31-1.04-3.31v-.02l-.09-.29-.22-.68h58.07Z"/>
        <path class="cls-3" d="m527.83,376.37v.02l-.8,3.16c-3.31,3.64-14.62,6.32-28.04,6.32s-23.96-2.51-27.68-5.94l-1.04-3.31v-.02l-.09-.29c.09-.24.2-.46.34-.68,2.6-3.76,13.59-6.63,26.97-6.81.5-.02,1.01-.02,1.5-.02s1.01,0,1.5.02c13.37.19,24.37,3.06,26.97,6.81.15.26.29.5.38.75Z"/>
        <path class="cls-15" d="m528.02,375.62l-.19.75v.02c-1.61,3.42-13.92,6.06-28.85,6.06s-26.69-2.54-28.73-5.84v-.02l-.09-.29-.22-.68c0-3.65,12.19-6.64,27.53-6.81.5-.02,1.01-.02,1.5-.02s1.01,0,1.5.02c15.34.17,27.53,3.16,27.53,6.81Z"/>
        <g>
          <ellipse class="cls-11" cx="479.34" cy="374.77" rx="2.56" ry=".85"/>
          <ellipse class="cls-11" cx="489.59" cy="371.35" rx="2.56" ry=".85"/>
          <ellipse class="cls-11" cx="489.59" cy="378.18" rx="2.56" ry=".85"/>
          <ellipse class="cls-11" cx="498.13" cy="374.77" rx="2.56" ry=".85"/>
          <ellipse class="cls-11" cx="506.67" cy="371.35" rx="2.56" ry=".85"/>
          <ellipse class="cls-11" cx="506.67" cy="378.18" rx="2.56" ry=".85"/>
          <ellipse class="cls-11" cx="518.62" cy="374.77" rx="2.56" ry=".85"/>
        </g>
        <ellipse class="cls-20" cx="498.67" cy="426.6" rx="18.07" ry="3.24"/>
        <ellipse class="cls-9" cx="498.67" cy="425.52" rx="18.07" ry="2.16"/>
      </g>
    </g>
    <g>
      <g>
        <g>
          <path class="cls-28" d="m1327.78,741.97c-.04,6.11-1.46,12.31-4.6,17.8l-5.18,9.16-17.49,30.99-5.76,10.18-12.66,22.44-9.16,16.25-4.69,8.28-20.81,36.88-25.85,45.77-19.21,34.04c-4.16,7.39-10.58,11.69-17.35,11.69h-438.7c-6.91,0-13.37-4.43-17.53-12l-18.51-33.73-25.06-45.77-20.23-36.88-6.6-12.04-4.12-7.48-15.05-27.45-3.05-5.53-17.4-31.79-7.13-13.02-.18-.31c-3.01-5.44-4.38-11.51-4.47-17.49-.09-5.58.97-11.07,2.97-15.8,3.63-8.81,10.45-15.18,18.99-15.18h676.92c7.57,0,13.77,5,17.62,12.26,2.88,5.36,4.43,12,4.29,18.73Z"/>
          <path class="cls-3" d="m1390.2,721.43c-5.13,7.08-12.31,13.94-21.38,20.54-2.04,1.51-4.16,2.97-6.37,4.43-11.95,7.88-26.52,15.27-43.47,22.13-.31.13-.66.27-.97.4l-17.49,30.99-5.76,10.18-12.66,22.44-9.16,16.25c-78.22,21.6-184.11,34.84-300.72,34.84s-230.11-14.21-309.09-37.19c-1.59-.44-3.19-.93-4.74-1.42l-4.12-7.48-15.05-27.45-3.05-5.53-17.4-31.79c-3.76-1.37-7.44-2.79-11.02-4.25-16.96-6.86-31.52-14.25-43.47-22.13-2.21-1.46-4.34-2.92-6.37-4.43-4.65-3.41-8.85-6.86-12.48-10.45,12.57-17.49,37.67-33.6,72.42-47.59,79.15-31.87,208.37-52.64,354.37-52.64,128.42,0,243.88,16.07,323.65,41.66.04,0,.09,0,.13.04,42.94,13.72,75.43,30.15,94.2,48.43Z"/>
          <path class="cls-28" d="m1399.41,695.49c0,8.9-3.19,17.57-9.21,25.94-5.13,7.08-12.31,13.94-21.38,20.54-2.04,1.51-4.16,2.97-6.37,4.43-11.95,7.88-26.52,15.27-43.47,22.13-.31.13-.66.27-.97.4-5.58,2.26-11.42,4.47-17.49,6.6-5.89,2.04-12.04,4.07-18.42,6.02-79.6,24.7-192.92,40.11-318.74,40.11s-230.11-14.21-309.09-37.19c-6.24-1.82-12.26-3.67-18.11-5.58-6.02-1.99-11.82-4.03-17.4-6.11-3.76-1.37-7.44-2.79-11.02-4.25-16.96-6.86-31.52-14.25-43.47-22.13-2.21-1.46-4.34-2.92-6.37-4.43-4.65-3.41-8.85-6.86-12.48-10.45-11.78-11.38-18.11-23.51-18.11-36.03,0-69.68,195.23-126.17,436.05-126.17s436.05,56.49,436.05,126.17Z"/>
          <ellipse class="cls-29" cx="965.6" cy="708.77" rx="363" ry="86.32"/>
          <path class="cls-27" d="m974.1,759.59c-5,.09-10.05.09-15.14.09-169.9,0-307.67-23.77-307.67-53.12s137.76-53.12,307.67-53.12c5.09,0,10.14,0,15.14.09-162.51,1.42-291.82,24.61-291.82,53.03s129.31,51.62,291.82,53.03Z"/>
          <path class="cls-27" d="m1240.06,706.56c0,20.3-108.68,36.78-242.74,36.78-6.07,0-12.1-.04-18.09-.11,125.34-1.43,224.05-17.32,224.05-36.67s-98.71-35.23-224.05-36.67c5.99-.07,12.03-.11,18.09-.11,134.06,0,242.74,16.48,242.74,36.78Z"/>
          <path class="cls-27" d="m818.45,703.27c0,7.32,39.18,13.26,87.5,13.26,2.19,0,4.36-.01,6.52-.04-45.18-.52-80.77-6.24-80.77-13.22s35.59-12.7,80.77-13.22c-2.16-.03-4.34-.04-6.52-.04-48.33,0-87.5,5.94-87.5,13.26Z"/>
        </g>
        <g>
          <g class="cls-33">
            <path class="cls-23" d="m996.23,718.2c16.49,4.01,32.89.45,44.89-8.35-6.61-13.32-19.54-24.03-36.03-28.04-16.49-4.01-32.89-.45-44.89,8.35,6.61,13.32,19.54,24.03,36.03,28.04Z"/>
            <path class="cls-10" d="m996.23,718.2c16.49,4.01,32.89.45,44.89-8.35-6.61-13.32-19.54-24.03-36.03-28.04-16.49-4.01-32.89-.45-44.89,8.35,6.61,13.32,19.54,24.03,36.03,28.04Z"/>
            <path class="cls-19" d="m996.23,718.2c16.49,4.01,32.89.45,44.89-8.35l-80.92-19.69c6.61,13.32,19.54,24.03,36.03,28.04Z"/>
          </g>
          <g class="cls-33">
            <path class="cls-23" d="m926.99,710.13c-14.46,1.04-27.77-4.53-36.65-14,7.43-10.64,19.82-18.05,34.27-19.09,14.46-1.04,27.77,4.53,36.65,14-7.43,10.64-19.82,18.05-34.27,19.09Z"/>
            <path class="cls-10" d="m926.99,710.13c-14.46,1.04-27.77-4.53-36.65-14,7.43-10.64,19.82-18.05,34.27-19.09,14.46-1.04,27.77,4.53,36.65,14-7.43,10.64-19.82,18.05-34.27,19.09Z"/>
            <path class="cls-19" d="m926.99,710.13c-14.46,1.04-27.77-4.53-36.65-14l70.92-5.1c-7.43,10.64-19.82,18.05-34.27,19.09Z"/>
          </g>
          <g>
            <path class="cls-23" d="m975.83,687.35c4.19-3.64,6.14-8.93,5.74-14.16-5.12-1.12-10.63.07-14.82,3.72-4.19,3.64-6.14,8.93-5.74,14.16,5.12,1.12,10.63-.07,14.82-3.72Z"/>
            <path class="cls-10" d="m975.83,687.35c4.19-3.64,6.14-8.93,5.74-14.16-5.12-1.12-10.63.07-14.82,3.72-4.19,3.64-6.14,8.93-5.74,14.16,5.12,1.12,10.63-.07,14.82-3.72Z"/>
            <path class="cls-19" d="m975.83,687.35c4.19-3.64,6.14-8.93,5.74-14.16l-20.56,17.88c5.12,1.12,10.63-.07,14.82-3.72Z"/>
          </g>
          <g>
            <path class="cls-23" d="m951.04,688.5c2.87,2.42,6.48,3.3,9.76,2.7.05-3.33-1.43-6.75-4.29-9.17-2.87-2.42-6.48-3.3-9.76-2.7-.05,3.33,1.43,6.75,4.29,9.17Z"/>
            <path class="cls-10" d="m951.04,688.5c2.87,2.42,6.48,3.3,9.76,2.7.05-3.33-1.43-6.75-4.29-9.17-2.87-2.42-6.48-3.3-9.76-2.7-.05,3.33,1.43,6.75,4.29,9.17Z"/>
            <path class="cls-19" d="m951.04,688.5c2.87,2.42,6.48,3.3,9.76,2.7l-14.06-11.87c-.05,3.33,1.43,6.75,4.29,9.17Z"/>
          </g>
          <g>
            <path class="cls-23" d="m961.88,696.03c.78-1.91.57-3.98-.39-5.63-1.84.5-3.44,1.83-4.23,3.74-.78,1.91-.57,3.98.39,5.63,1.84-.5,3.44-1.83,4.23-3.74Z"/>
            <path class="cls-10" d="m961.88,696.03c.78-1.91.57-3.98-.39-5.63-1.84.5-3.44,1.83-4.23,3.74-.78,1.91-.57,3.98.39,5.63,1.84-.5,3.44-1.83,4.23-3.74Z"/>
            <path class="cls-19" d="m961.88,696.03c.78-1.91.57-3.98-.39-5.63l-3.84,9.37c1.84-.5,3.44-1.83,4.23-3.74Z"/>
          </g>
        </g>
        <ellipse class="cls-28" cx="965.22" cy="978.63" rx="232.41" ry="24.35"/>
      </g>
      <g>
        <g>
          <ellipse class="cls-21" cx="1345.17" cy="610.31" rx="125.75" ry="19.22" transform="translate(-110.35 862.16) rotate(-34.22)"/>
          <polygon class="cls-21" points="1215.42 707.09 1207.49 695.43 1360.69 580.75 1378.37 606.74 1215.42 707.09"/>
        </g>
        <path class="cls-27" d="m1216.54,706.56c0,16.14-39.18,29.23-87.5,29.23-2.19,0-4.36-.03-6.52-.09,45.18-1.14,80.77-13.77,80.77-29.15s-35.59-28.01-80.77-29.15c2.16-.06,4.34-.09,6.52-.09,48.33,0,87.5,13.1,87.5,29.23Z"/>
      </g>
    </g>
    <g>
      <g>
        <path class="cls-8" d="m466.61,959.72c.77,4.12-3.6,8.43-9.75,9.62-6.15,1.19-11.77-1.19-12.54-5.31-.4-2.13.57-4.3,2.45-6.07.47-.44.99-.86,1.57-1.24,1.58-1.06,3.54-1.88,5.73-2.3,2.1-.41,4.14-.4,5.94-.04.69.13,1.34.32,1.95.55,2.48.93,4.24,2.63,4.64,4.81Z"/>
        <path class="cls-3" d="m460.09,954.7c.68.1,1.32.24,1.92.43-1.42.82-3.47,1.6-5.9,2.2-3.53.86-7,1.11-9.31.77.48-.39,1.01-.76,1.6-1.11-2.03-.04-3.58-.39-4.26-1.04.61-1.38,3.69-3,7.95-4.04,5.22-1.27,10.32-1.2,11.71.13-.38.86-1.72,1.82-3.72,2.67Z"/>
        <path class="cls-8" d="m463.8,952.03c-.38.86-1.72,1.82-3.72,2.67-1.2.51-2.63.98-4.23,1.37-2.68.65-5.32.95-7.45.91-2.03-.04-3.58-.39-4.26-1.04-.06-.06-.11-.12-.16-.18-.26-.35-.27-.76-.04-1.18.03-.06.06-.12.1-.17.75-1.13,3.03-2.38,6.17-3.32.03-.01.07-.02.1-.03.49-.15,1-.28,1.53-.41,5.45-1.33,10.76-1.19,11.87.31.24.33.26.69.09,1.07Z"/>
        <g>
          <path class="cls-8" d="m429.83,956.4l3.71,2.88c.1.08-.18.23-.63.33h0c-.75.17-1.5.19-1.67.06l-4.76-3.7c3.3-.05,3.17.29,3.36.43Z"/>
          <path class="cls-8" d="m448.19,959.06h0c-.35.17-1.05.32-1.56.33l-14.85.36c-.51.01-.63-.12-.28-.29h0c.35-.17,1.05-.32,1.56-.33l14.85-.36c.51-.01.63.12.28.29Z"/>
        </g>
        <g>
          <path class="cls-8" d="m478.2,946.34l-2.17,4.76c-.06.13.26.19.72.13h0c.76-.11,1.47-.37,1.57-.59l2.79-6.11c-3.06,1.25-2.8,1.58-2.9,1.82Z"/>
          <path class="cls-8" d="m462.44,956.62h0c.4.06,1.1-.05,1.57-.24l13.83-5.44c.47-.19.53-.38.14-.44h0c-.4-.06-1.1.05-1.57.24l-13.83,5.44c-.47.19-.53.38-.14.44Z"/>
        </g>
        <g>
          <path class="cls-8" d="m424.51,973.7l6.63-7.16c.19-.2,0-.36-.43-.37h0c-.71,0-1.53.27-1.84.6l-8.51,9.18c3.69-1.32,3.82-1.9,4.15-2.26Z"/>
          <path class="cls-8" d="m447.51,960.74h0c-.25-.18-.91-.17-1.48.02l-16.47,5.63c-.56.19-.81.49-.56.67h0c.25.18.91.17,1.48-.02l16.47-5.63c.56-.19.81-.49.56-.67Z"/>
        </g>
        <g>
          <path class="cls-8" d="m430.07,978.33l3.89-7.06c.11-.2-.17-.33-.62-.3h0c-.75.05-1.5.36-1.68.69l-5,9.06c3.33-1.5,3.21-2.04,3.41-2.39Z"/>
          <path class="cls-8" d="m448.72,964.67h0c-.35-.14-1.04-.08-1.55.14l-14.96,6.45c-.51.22-.64.51-.3.66h0c.35.14,1.04.08,1.55-.14l14.96-6.45c.51-.22.64-.51.3-.66Z"/>
        </g>
        <g>
          <path class="cls-8" d="m488.98,961.09l-8.94-4.11c-.25-.12-.14-.34.26-.5h0c.65-.27,1.52-.33,1.94-.14l11.48,5.27c-3.93.17-4.28-.32-4.72-.52Z"/>
          <path class="cls-8" d="m462.65,957.78h0c.16-.26.78-.5,1.37-.53l17.42-1c.59-.03.95.15.78.41h0c-.16.26-.78.5-1.37.53l-17.42,1c-.59.03-.95-.15-.78-.41Z"/>
        </g>
        <g>
          <path class="cls-8" d="m485.68,967.45l-6.37-5.05c-.18-.14.02-.37.45-.51h0c.71-.23,1.53-.23,1.83,0l8.18,6.48c-3.66-.13-3.77-.67-4.09-.93Z"/>
          <path class="cls-8" d="m463.08,961.87h0c.26-.26.93-.47,1.49-.46l16.35.32c.56.01.8.23.54.5h0c-.26.26-.93.47-1.49.46l-16.35-.32c-.56-.01-.8-.23-.54-.5Z"/>
        </g>
        <g>
          <g class="cls-32">
            <path class="cls-14" d="m448.3,967.34c-5.73,4.33-14.09,7.67-20.68,8.51-.04,0-.07,0-.11.01-3.18-1.76-1.81-5.8,3.95-10.15,5.77-4.35,14.18-7.7,20.79-8.53.02,0,.04.02.05.03,3.11,1.78,1.73,5.79-4.01,10.12Z"/>
            <path class="cls-5" d="m448.3,967.34c-5.73,4.33-14.09,7.67-20.68,8.51-.04,0-.07,0-.11.01-3.18-1.76-1.81-5.8,3.95-10.15,5.77-4.35,14.18-7.7,20.79-8.53.02,0,.04.02.05.03,3.11,1.78,1.73,5.79-4.01,10.12Z"/>
            <path class="cls-6" d="m448.3,967.34c-5.73,4.33-14.09,7.67-20.68,8.51l24.68-18.63c3.11,1.78,1.73,5.79-4.01,10.12Z"/>
          </g>
          <g class="cls-32">
            <path class="cls-14" d="m464.34,964.2c7,1.84,16.03,1.77,22.44.07.03,0,.07-.02.11-.03,2.24-2.82-.61-6.03-7.65-7.88-7.04-1.85-16.13-1.77-22.54-.05-.01.02-.02.03-.04.05-2.17,2.81.69,5.99,7.68,7.83Z"/>
            <path class="cls-5" d="m464.34,964.2c7,1.84,16.03,1.77,22.44.07.03,0,.07-.02.11-.03,2.24-2.82-.61-6.03-7.65-7.88-7.04-1.85-16.13-1.77-22.54-.05-.01.02-.02.03-.04.05-2.17,2.81.69,5.99,7.68,7.83Z"/>
            <path class="cls-6" d="m464.34,964.2c7,1.84,16.03,1.77,22.44.07l-30.12-7.9c-2.17,2.81.69,5.99,7.68,7.83Z"/>
          </g>
        </g>
        <path class="cls-3" d="m450.75,952.26c-.3.35-.86.73-1.66,1.1-1.01.47-2.22.83-3.38,1.03-.62.11-1.23.18-1.78.2.03-.06.06-.12.1-.17-.72.08-1.36.08-1.84-.01-1.17-.41-.65-1.38,1.29-2.27,2.06-.95,4.94-1.45,6.51-1.14.08.03.16.07.22.11.03-.01.07-.02.1-.03.75.23.88.68.44,1.2Z"/>
        <path class="cls-26" d="m449.29,952.73c-.26.15-.55.31-.89.47-.55.26-1.16.48-1.77.67-.88.27-1.78.46-2.59.55-.72.08-1.36.08-1.84-.01-.02,0-.03,0-.05,0-.1-.02-.19-.05-.27-.08t0,0c-1-.37-.35-1.31,1.59-2.21.62-.29,1.31-.54,2-.74,1.63-.47,3.29-.68,4.24-.47.1.02.19.05.27.08.08.03.16.07.22.11.53.34.17.97-.92,1.63Z"/>
        <path class="cls-7" d="m446.54,952.52c-.14.12-.3.25-.49.38-.36.24-.76.47-1.18.67-1.02.47-2.12.78-2.85.76-.02,0-.03,0-.05,0-.02,0-.05,0-.07,0t0,0c-1-.37-.35-1.31,1.59-2.21.62-.29,1.31-.54,2-.74.14-.03.28-.05.41-.07.19-.02.37-.03.54-.02.87.05.88.57.11,1.24Z"/>
        <path class="cls-3" d="m456.28,951.2c.41.21,1.08.36,1.96.41,1.12.06,2.38-.06,3.53-.29.62-.13,1.2-.29,1.72-.47-.05-.04-.1-.08-.16-.12.7-.19,1.29-.42,1.7-.69.92-.81.06-1.52-2.08-1.63-2.27-.12-5.14.48-6.47,1.34-.07.06-.12.12-.16.18-.03,0-.07,0-.1,0-.6.49-.54.95.07,1.27Z"/>
        <path class="cls-26" d="m457.81,951.09c.3.05.63.08,1.01.1.61.03,1.26.02,1.9-.03.92-.08,1.83-.23,2.61-.44.7-.19,1.29-.42,1.7-.69.01,0,.03-.02.04-.02.08-.06.15-.11.22-.17t0,0c.78-.71-.19-1.34-2.34-1.46-.69-.04-1.42-.01-2.14.06-1.69.16-3.31.59-4.11,1.13-.09.06-.16.12-.22.17-.07.06-.12.12-.16.18-.36.51.22.96,1.49,1.17Z"/>
        <path class="cls-7" d="m460.28,949.89c.18.06.38.12.61.17.42.09.89.15,1.36.18,1.13.06,2.27-.06,2.93-.35.02,0,.03-.01.05-.02.02-.01.04-.02.06-.03t0,0c.78-.71-.19-1.34-2.34-1.46-.69-.04-1.42-.01-2.14.06-.14.03-.28.05-.4.09-.19.05-.36.11-.51.18-.78.36-.59.85.38,1.19Z"/>
      </g>
      <g>
        <path class="cls-8" d="m522.74,1001.74c-.42,4.7-5.87,8.32-12.16,8.08-6.29-.24-11.05-4.25-10.63-8.96.22-2.43,1.77-4.57,4.09-6.03.58-.37,1.2-.69,1.87-.97,1.83-.76,3.96-1.16,6.2-1.08,2.15.08,4.12.6,5.77,1.44.63.32,1.21.68,1.73,1.09,2.13,1.64,3.36,3.94,3.13,6.42Z"/>
        <path class="cls-3" d="m517.85,994.61c.63.28,1.21.6,1.74.95-1.61.54-3.81.88-6.33.92-3.66.06-7.09-.54-9.23-1.49.57-.31,1.2-.58,1.86-.81-1.95-.55-3.36-1.32-3.83-2.2.98-1.35,4.42-2.36,8.84-2.43,5.42-.08,10.33,1.27,11.3,3.08-.61.85-2.18,1.56-4.36,1.99Z"/>
        <path class="cls-8" d="m522.2,992.62c-.61.85-2.18,1.56-4.36,1.99-1.31.26-2.83.42-4.49.44-2.78.04-5.42-.29-7.47-.87-1.95-.55-3.36-1.32-3.83-2.2-.04-.08-.08-.16-.1-.24-.16-.45-.04-.89.29-1.3.05-.06.1-.11.15-.17,1.04-1.04,3.6-1.84,6.92-2.09.03,0,.07,0,.11,0,.51-.04,1.05-.06,1.59-.07,5.65-.09,10.76,1.4,11.41,3.31.14.42.06.82-.21,1.2Z"/>
        <g>
          <path class="cls-8" d="m488.07,988.89l2.77,4.08c.08.11-.24.2-.7.2h0c-.77,0-1.51-.17-1.64-.36l-3.56-5.24c3.21.78,2.99,1.11,3.13,1.31Z"/>
          <path class="cls-8" d="m505.1,996.4h0c-.39.1-1.1.08-1.6-.03l-14.48-3.33c-.49-.11-.58-.29-.19-.38h0c.39-.1,1.1-.08,1.6.03l14.48,3.33c.49.11.58.29.19.38Z"/>
        </g>
        <g>
          <path class="cls-8" d="m537.76,990l-3.46,4.67c-.1.13.2.27.66.32h0c.77.08,1.52-.04,1.68-.26l4.43-5.99c-3.32.6-3.15,1.02-3.33,1.26Z"/>
          <path class="cls-8" d="m519.58,997.31h0c.37.16,1.08.22,1.59.14l14.93-2.49c.51-.09.62-.28.26-.45h0c-.37-.16-1.08-.22-1.59-.14l-14.93,2.49c-.51.09-.62.28-.26.45Z"/>
        </g>
        <g>
          <path class="cls-8" d="m478.02,1006.48l8.45-6.17c.24-.17.1-.4-.32-.51h0c-.68-.18-1.56-.09-1.95.19l-10.84,7.91c3.95-.52,4.24-1.12,4.66-1.43Z"/>
          <path class="cls-8" d="m503.96,998.06h0c-.19-.26-.84-.41-1.44-.34l-17.54,2.03c-.6.07-.93.34-.73.6h0c.19.26.84.41,1.44.34l17.54-2.03c.6-.07.93-.34.73-.6Z"/>
        </g>
        <g>
          <path class="cls-8" d="m482.09,1012.94l5.77-6.75c.16-.19-.07-.41-.51-.48h0c-.74-.13-1.56.02-1.83.34l-7.4,8.66c3.65-.8,3.69-1.43,3.98-1.76Z"/>
          <path class="cls-8" d="m504.02,1002.67h0c-.29-.24-.98-.35-1.54-.24l-16.31,3.3c-.56.11-.77.4-.48.65h0c.29.24.98.35,1.54.24l16.31-3.3c.56-.11.77-.4.48-.65Z"/>
        </g>
        <g>
          <path class="cls-8" d="m544.01,1008.84l-7.49-6.74c-.21-.19-.04-.41.39-.48h0c.71-.13,1.56.02,1.91.33l9.61,8.65c-3.85-.8-4.05-1.42-4.43-1.76Z"/>
          <path class="cls-8" d="m519.46,998.62h0c.23-.24.89-.35,1.48-.24l17.15,3.27c.59.11.87.4.64.64h0c-.23.24-.89.35-1.48.24l-17.15-3.27c-.59-.11-.87-.4-.64-.64Z"/>
        </g>
        <g>
          <path class="cls-8" d="m539.01,1014.98l-4.74-7.13c-.13-.2.13-.4.58-.44h0c.76-.08,1.55.13,1.77.46l6.08,9.14c-3.51-1.06-3.46-1.68-3.69-2.04Z"/>
          <path class="cls-8" d="m518.71,1003.2h0c.33-.22,1.03-.28,1.57-.13l15.73,4.45c.54.15.71.45.38.68h0c-.33.22-1.03.28-1.57.13l-15.73-4.45c-.54-.15-.71-.45-.38-.68Z"/>
        </g>
        <g>
          <g class="cls-32">
            <path class="cls-14" d="m502.86,1005.48c-6.78,3.3-15.82,4.86-22.43,4.13-.04,0-.07,0-.11-.01-2.57-2.73-.11-6.8,6.7-10.11s15.91-4.87,22.54-4.12c.01.02.03.03.04.05,2.51,2.73.03,6.77-6.75,10.07Z"/>
            <path class="cls-5" d="m502.86,1005.48c-6.78,3.3-15.82,4.86-22.43,4.13-.04,0-.07,0-.11-.01-2.57-2.73-.11-6.8,6.7-10.11s15.91-4.87,22.54-4.12c.01.02.03.03.04.05,2.51,2.73.03,6.77-6.75,10.07Z"/>
            <path class="cls-6" d="m502.86,1005.48c-6.78,3.3-15.82,4.86-22.43,4.13l29.18-14.2c2.51,2.73.03,6.77-6.75,10.07Z"/>
          </g>
          <g class="cls-32">
            <path class="cls-14" d="m519.27,1006.07c6.25,3.76,15.01,5.96,21.7,5.71.04,0,.07,0,.11,0,2.96-2.53,1.12-6.75-5.17-10.54-6.29-3.78-15.11-5.98-21.81-5.7-.02.01-.03.03-.05.04-2.9,2.53-1.03,6.73,5.22,10.5Z"/>
            <path class="cls-5" d="m519.27,1006.07c6.25,3.76,15.01,5.96,21.7,5.71.04,0,.07,0,.11,0,2.96-2.53,1.12-6.75-5.17-10.54-6.29-3.78-15.11-5.98-21.81-5.7-.02.01-.03.03-.05.04-2.9,2.53-1.03,6.73,5.22,10.5Z"/>
            <path class="cls-6" d="m519.27,1006.07c6.25,3.76,15.01,5.96,21.7,5.71l-26.92-16.2c-2.9,2.53-1.03,6.73,5.22,10.5Z"/>
          </g>
        </g>
        <path class="cls-3" d="m509.5,989.6c-.39.31-1.04.59-1.91.79-1.11.26-2.39.35-3.57.28-.63-.03-1.24-.11-1.77-.23.05-.06.1-.11.15-.17-.72-.09-1.34-.25-1.78-.47-1.02-.74-.24-1.67,1.89-2.17,2.26-.52,5.19-.35,6.62.38.07.06.13.11.18.17.03,0,.07,0,.11,0,.66.44.65.97.08,1.42Z"/>
        <path class="cls-26" d="m507.95,989.74c-.29.1-.62.2-.99.29-.61.14-1.26.24-1.91.29-.93.07-1.86.06-2.66-.04-.72-.09-1.34-.25-1.78-.47-.02,0-.03-.01-.04-.02-.09-.05-.17-.1-.24-.15t0,0c-.86-.66.04-1.53,2.17-2.02.69-.16,1.42-.26,2.15-.3,1.71-.11,3.38.08,4.24.55.09.05.17.1.24.15.07.06.13.11.18.17.42.51-.11,1.11-1.35,1.56Z"/>
        <path class="cls-7" d="m505.35,988.83c-.17.1-.37.2-.59.29-.41.18-.87.32-1.34.43-1.12.26-2.28.32-2.98.12-.02,0-.03,0-.05-.01-.02,0-.05-.02-.07-.02t0,0c-.86-.66.04-1.53,2.17-2.02.69-.16,1.42-.26,2.15-.3.15,0,.28.01.41.03.2.02.37.06.53.11.83.27.69.84-.24,1.38Z"/>
        <path class="cls-3" d="m515.16,989.82c.34.34.94.67,1.78.94,1.07.34,2.32.54,3.5.57.63.02,1.25-.01,1.8-.09-.04-.06-.08-.12-.12-.18.73-.03,1.37-.14,1.84-.33,1.12-.65.49-1.64-1.56-2.3-2.17-.7-5.11-.77-6.64-.16-.08.05-.15.1-.2.16-.03,0-.07-.01-.1-.02-.72.39-.8.91-.3,1.41Z"/>
        <path class="cls-26" d="m516.67,990.09c.28.13.59.25.94.36.58.19,1.22.34,1.85.44.92.15,1.84.21,2.65.17.73-.03,1.37-.14,1.84-.33.02,0,.03-.01.04-.02.1-.04.18-.08.26-.13t0,0c.95-.58.19-1.52-1.85-2.18-.66-.21-1.37-.37-2.09-.48-1.68-.25-3.37-.19-4.29.21-.1.04-.19.09-.26.13-.08.05-.15.1-.2.16-.49.47-.06,1.11,1.11,1.66Z"/>
        <path class="cls-7" d="m519.4,989.39c.15.11.33.22.54.34.38.21.82.39,1.26.54,1.07.35,2.21.51,2.94.36.02,0,.03,0,.05-.01.02,0,.05-.01.07-.02t0,0c.95-.58.19-1.52-1.85-2.18-.66-.21-1.37-.37-2.09-.48-.15,0-.28,0-.41,0-.2,0-.38.03-.54.07-.86.2-.81.78.03,1.4Z"/>
      </g>
      <g>
        <path class="cls-8" d="m581.13,682.74c-1.01,4.61-6.86,7.52-13.08,6.49-6.21-1.03-10.43-5.6-9.43-10.22.52-2.38,2.33-4.31,4.82-5.47.62-.29,1.28-.53,1.98-.73,1.91-.53,4.08-.66,6.29-.29,2.12.35,4.01,1.12,5.54,2.15.58.39,1.11.83,1.58,1.3,1.91,1.9,2.84,4.33,2.31,6.76Z"/>
        <path class="cls-3" d="m577.17,675.06c.59.36,1.13.75,1.61,1.16-1.66.33-3.89.4-6.4.12-3.63-.4-6.96-1.43-8.97-2.64.61-.23,1.26-.43,1.95-.57-1.86-.79-3.17-1.73-3.53-2.66,1.14-1.22,4.68-1.79,9.08-1.3,5.38.6,10.09,2.56,10.83,4.47-.71.76-2.36,1.27-4.57,1.43Z"/>
        <path class="cls-8" d="m581.74,673.63c-.71.76-2.36,1.27-4.57,1.43-1.33.09-2.86.06-4.51-.12-2.76-.3-5.34-.97-7.3-1.8-1.86-.79-3.17-1.73-3.53-2.66-.03-.08-.06-.17-.07-.25-.1-.47.07-.89.45-1.25.05-.05.11-.1.17-.15,1.16-.91,3.81-1.38,7.12-1.21.03,0,.07,0,.11,0,.51.03,1.05.07,1.59.13,5.62.62,10.5,2.73,10.91,4.71.09.43-.04.82-.36,1.16Z"/>
        <g>
          <path class="cls-8" d="m548.34,665.66l2.24,4.4c.06.12-.26.17-.72.11h0c-.77-.1-1.48-.35-1.58-.56l-2.88-5.64c3.09,1.17,2.83,1.47,2.94,1.69Z"/>
          <path class="cls-8" d="m564.29,675.24h0c-.4.05-1.11-.05-1.58-.23l-13.95-5.12c-.48-.17-.54-.36-.14-.4h0c.4-.05,1.11.05,1.58.23l13.95,5.12c.48.17.54.36.14.4Z"/>
        </g>
        <g>
          <path class="cls-8" d="m597.5,672.98l-4.01,4.2c-.11.12.16.3.62.4h0c.75.17,1.52.15,1.7-.04l5.15-5.39c-3.37.18-3.26.62-3.46.83Z"/>
          <path class="cls-8" d="m578.55,677.95h0c.35.21,1.04.36,1.56.34l15.13-.6c.52-.02.66-.2.31-.41h0c-.35-.21-1.04-.36-1.56-.34l-15.13.6c-.52.02-.66.2-.31.41Z"/>
        </g>
        <g>
          <path class="cls-8" d="m536.17,681.86l9.16-5.06c.26-.14.14-.39-.25-.55h0c-.66-.26-1.53-.29-1.96-.05l-11.75,6.5c3.98-.02,4.34-.58,4.8-.84Z"/>
          <path class="cls-8" d="m562.95,676.75h0c-.16-.28-.78-.52-1.38-.52l-17.66-.18c-.6,0-.96.22-.8.5h0c.16.28.78.52,1.38.52l17.66.18c.6,0,.96-.22.8-.5Z"/>
        </g>
        <g>
          <path class="cls-8" d="m539.4,688.77l6.57-5.97c.18-.17-.02-.41-.45-.54h0c-.72-.22-1.55-.17-1.86.1l-8.43,7.67c3.72-.34,3.84-.95,4.17-1.25Z"/>
          <path class="cls-8" d="m562.44,681.33h0c-.26-.28-.93-.47-1.5-.43l-16.59,1.24c-.57.04-.81.3-.55.58h0c.26.28.93.47,1.5.43l16.59-1.24c.57-.04.81-.3.55-.58Z"/>
        </g>
        <g>
          <path class="cls-8" d="m601.34,692.45l-6.59-7.62c-.19-.21.02-.41.45-.43h0c.72-.04,1.55.21,1.86.57l8.46,9.78c-3.72-1.27-3.84-1.91-4.17-2.3Z"/>
          <path class="cls-8" d="m578.26,679.24h0c.26-.21.93-.24,1.5-.05l16.6,5.39c.57.18.82.51.56.72h0c-.26.21-.93.24-1.5.05l-16.6-5.39c-.57-.18-.82-.51-.56-.72Z"/>
        </g>
        <g>
          <path class="cls-8" d="m595.61,697.91l-3.81-7.66c-.11-.22.18-.38.63-.37h0c.76.02,1.52.33,1.7.68l4.89,9.83c-3.35-1.49-3.22-2.1-3.41-2.48Z"/>
          <path class="cls-8" d="m576.95,683.69h0c.35-.18,1.06-.15,1.57.07l15.05,6.38c.51.22.64.54.29.72h0c-.35.18-1.06.15-1.57-.07l-15.05-6.38c-.51-.22-.64-.54-.29-.72Z"/>
        </g>
        <g>
          <g class="cls-32">
            <path class="cls-14" d="m560.93,683.97c-7.14,2.42-16.3,2.84-22.77,1.29-.03,0-.07-.02-.11-.03-2.21-3.03.74-6.76,7.92-9.19,7.18-2.44,16.4-2.84,22.88-1.27.01.02.02.03.04.05,2.15,3.02-.81,6.72-7.95,9.14Z"/>
            <path class="cls-5" d="m560.93,683.97c-7.14,2.42-16.3,2.84-22.77,1.29-.03,0-.07-.02-.11-.03-2.21-3.03.74-6.76,7.92-9.19,7.18-2.44,16.4-2.84,22.88-1.27.01.02.02.03.04.05,2.15,3.02-.81,6.72-7.95,9.14Z"/>
            <path class="cls-6" d="m560.93,683.97c-7.14,2.42-16.3,2.84-22.77,1.29l30.72-10.44c2.15,3.02-.81,6.72-7.95,9.14Z"/>
          </g>
          <g class="cls-32">
            <path class="cls-14" d="m577.15,686.61c5.73,4.52,14.15,7.79,20.82,8.38.04,0,.07,0,.11,0,3.26-2.14,1.95-6.56-3.81-11.1-5.77-4.54-14.24-7.83-20.93-8.39-.02.01-.04.02-.05.04-3.19,2.15-1.87,6.55,3.87,11.07Z"/>
            <path class="cls-5" d="m577.15,686.61c5.73,4.52,14.15,7.79,20.82,8.38.04,0,.07,0,.11,0,3.26-2.14,1.95-6.56-3.81-11.1-5.77-4.54-14.24-7.83-20.93-8.39-.02.01-.04.02-.05.04-3.19,2.15-1.87,6.55,3.87,11.07Z"/>
            <path class="cls-6" d="m577.15,686.61c5.73,4.52,14.15,7.79,20.82,8.38l-24.68-19.44c-3.19,2.15-1.87,6.55,3.87,11.07Z"/>
          </g>
        </g>
        <path class="cls-3" d="m569.51,669.04c-.42.26-1.1.45-2,.54-1.13.12-2.41.04-3.57-.17-.62-.11-1.21-.26-1.73-.45.05-.05.11-.1.17-.15-.71-.18-1.3-.42-1.7-.69-.92-.86-.03-1.69,2.15-1.91,2.31-.23,5.2.3,6.52,1.21.07.06.12.13.16.19.03,0,.07,0,.11,0,.6.52.53,1.04-.09,1.42Z"/>
        <path class="cls-26" d="m567.96,668.99c-.3.07-.64.12-1.02.16-.62.06-1.28.08-1.93.05-.93-.04-1.85-.17-2.64-.37-.71-.18-1.3-.42-1.7-.69-.01,0-.03-.02-.04-.03-.08-.06-.15-.12-.21-.18t0,0c-.77-.76.23-1.51,2.4-1.73.7-.07,1.44-.08,2.17-.03,1.71.11,3.34.51,4.13,1.08.09.06.16.12.22.18.07.06.12.13.16.19.35.56-.24,1.09-1.54,1.37Z"/>
        <path class="cls-7" d="m565.49,667.76c-.18.08-.39.15-.62.21-.43.12-.9.21-1.38.26-1.14.12-2.3.04-2.97-.26-.02,0-.03-.01-.05-.02-.02-.01-.04-.02-.06-.03t0,0c-.77-.76.23-1.51,2.4-1.73.7-.07,1.44-.08,2.17-.03.14.02.28.05.41.08.19.05.36.1.51.17.79.37.58.92-.41,1.34Z"/>
        <path class="cls-3" d="m575.09,669.97c.29.38.85.78,1.65,1.15,1.01.47,2.24.82,3.4,1,.63.1,1.24.15,1.79.14-.03-.06-.06-.13-.1-.19.73.06,1.38.03,1.86-.1,1.19-.51.69-1.57-1.25-2.48-2.06-.97-4.97-1.4-6.57-.99-.09.04-.16.08-.22.13-.03,0-.07-.02-.1-.03-.77.29-.9.8-.47,1.36Z"/>
        <path class="cls-26" d="m576.56,670.43c.26.16.55.32.89.48.56.26,1.16.49,1.78.67.89.26,1.8.44,2.61.5.73.06,1.38.03,1.86-.1.02,0,.03,0,.05-.01.1-.03.19-.06.27-.1t0,0c1.02-.46.38-1.48-1.56-2.39-.63-.29-1.32-.54-2.01-.73-1.64-.46-3.32-.61-4.29-.33-.1.03-.2.06-.28.1-.09.04-.16.08-.22.13-.55.41-.2,1.09.9,1.78Z"/>
        <path class="cls-7" d="m579.35,670.08c.14.13.3.26.49.4.36.25.76.49,1.19.69,1.02.48,2.13.78,2.87.72.02,0,.03,0,.05,0,.02,0,.05,0,.07,0t0,0c1.02-.46.38-1.48-1.56-2.39-.63-.29-1.32-.54-2.01-.73-.14-.03-.28-.04-.41-.06-.2-.02-.38-.02-.54,0-.88.09-.9.68-.14,1.39Z"/>
      </g>
    </g>
  </g>
</svg>